<?xml version="1.0" encoding="UTF-8" standalone="no"?>
<!-- Created with Inkscape (http://www.inkscape.org/) -->

<svg
   xmlns:dc="http://purl.org/dc/elements/1.1/"
   xmlns:cc="http://creativecommons.org/ns#"
   xmlns:rdf="http://www.w3.org/1999/02/22-rdf-syntax-ns#"
   xmlns:svg="http://www.w3.org/2000/svg"
   xmlns="http://www.w3.org/2000/svg"
   version="1.1"
   width="468.35858"
   height="500"
   id="svg2">
  <defs
     id="defs4" />
  <metadata
     id="metadata7">
    <rdf:RDF>
      <cc:Work
         rdf:about="">
        <dc:format>image/svg+xml</dc:format>
        <dc:type
           rdf:resource="http://purl.org/dc/dcmitype/StillImage" />
        <dc:title></dc:title>
      </cc:Work>
    </rdf:RDF>
  </metadata>
  <g
     transform="translate(-124.11859,-198.81503)"
     id="layer1">
    <path
       d="m 296.13017,681.44484 -15.00601,-16.65015 0,-48.63028 c 0,-49.05001 6.66052,-58.73884 25.10325,-36.51665 l 10.05343,12.11362 -2.57237,53.16681 -2.57229,53.16681 -15.00601,-16.65016 z m 105.04207,-37.98038 0,-55.35065 10.28984,-10.28984 c 18.96648,-18.96648 24.00961,-10.60024 24.00961,39.83033 l 0,50.12015 -17.14972,15.52034 -17.14973,15.52024 0,-55.35057 z m -161.20742,8.10333 -10.28984,-10.28983 0,-58.30907 0,-58.30907 17.14973,0 17.14972,0 0,-45.47961 0,-45.47971 -30.01202,-29.08876 -30.01202,-29.08876 0.10376,-34.76113 0.1029,-34.76103 20.83674,-36.44317 20.83666,-36.44317 -30.84387,0 -30.84386,0 13.50772,15.00601 13.50764,15.00601 -12.17871,28.85279 c -6.69834,15.86898 -12.1787,45.01691 -12.1787,64.77305 l 0,35.92036 30.01202,29.08877 c 35.72999,34.63087 36.67597,42.19921 8.57486,68.5989 l -21.43716,20.13918 0,46.99599 0,46.996 -17.14972,-15.52025 -17.14973,-15.52033 0,-43.21979 0,-43.2198 23.10874,-24.1204 23.10883,-24.12032 -31.68369,-32.44702 -31.68361,-32.44703 0,-26.1439 c 0,-14.37919 5.74628,-45.08603 12.76952,-68.23738 15.46314,-50.97302 15.32242,-46.38084 1.4218,-46.38084 -6.34334,0 -18.51742,-7.71737 -27.05361,-17.14972 l -15.52033,-17.14973 77.61451,0 77.61452,0 27.1716,30.94677 27.17159,30.94676 -5.2509,13.6836 c -2.88801,7.5259 -7.54151,30.39506 -10.34103,50.82021 l -5.09012,37.13661 19.85183,21.13138 c 10.91855,11.62229 16.07753,21.13138 11.46442,21.13138 -4.6131,0 -21.26154,-13.28263 -36.99641,-29.51699 l -28.609,-29.517 4.9368,-28.36333 c 2.71523,-15.59982 7.59733,-40.90407 10.849,-56.23163 l 5.9122,-27.86831 -24.34652,0 -24.34644,0 14.05463,14.05463 14.05463,14.05463 -20.19372,31.98887 c -11.1065,17.5939 -22.66345,45.15403 -25.68205,61.24476 l -5.48852,29.2558 18.63035,16.86024 c 29.35424,26.56527 42.59906,59.6813 42.59906,106.51086 l 0,43.30014 -12.86229,0 -12.8623,0 0,55.73661 c 0,55.77099 -4.73075,64.72564 -24.00961,45.44677 z m 212.6566,-45.44677 0,-55.73661 -12.8623,0 -12.86229,0 0,-43.30014 c 0,-46.82956 13.24482,-79.94559 42.59906,-106.51086 l 18.63035,-16.86024 -5.48852,-29.2558 c -3.0186,-16.09073 -14.57555,-43.65086 -25.68205,-61.24476 l -20.19372,-31.98887 14.05463,-14.05463 14.05463,-14.05463 -24.34644,0 -24.34652,0 5.9122,27.86831 c 3.25167,15.32756 8.13377,40.63181 10.849,56.23163 l 4.9368,28.36333 -28.609,29.517 c -15.73487,16.23436 -32.38331,29.51699 -36.99641,29.51699 -4.61311,0 0.54621,-9.50909 11.46442,-21.13138 l 19.85183,-21.13138 -5.09012,-37.13661 c -2.79952,-20.42515 -7.45302,-43.29431 -10.34103,-50.82021 l -5.2509,-13.6836 27.17159,-30.94676 27.1716,-30.94677 77.61452,0 77.61442,0 -15.52024,17.14973 c -8.53619,9.43235 -21.12315,17.14972 -27.97103,17.14972 l -12.4507,0 6.0656,15.00601 c 3.33613,8.25331 10.32062,39.12221 15.52119,68.5977 l 9.45558,53.59161 -33.42516,34.23043 -33.42507,34.23042 23.10883,24.12032 23.10874,24.1204 0,43.2198 0,43.21979 -17.14973,15.52033 -17.14972,15.52025 0,-46.996 0,-46.99599 -21.43716,-20.13918 c -28.1012,-26.39969 -27.15513,-33.96803 8.57486,-68.5989 l 30.01202,-29.08877 -0.12948,-30.47369 c -0.0686,-16.76051 -5.53216,-45.90836 -12.13591,-64.77306 l -12.00687,-34.29945 13.46494,-15.00601 13.46493,-15.00601 -30.17468,0 -30.17478,0 20.27089,40.04015 20.27089,40.04015 0,31.16406 0,31.16414 -30.01202,29.08876 -30.01202,29.08876 0,45.47971 0,45.47961 17.14973,0 17.14973,0 0,58.30907 0,58.30907 -10.28984,10.28983 c -19.27886,19.27887 -24.00962,10.32422 -24.00962,-45.44677 z m -125.37333,-39.92413 -18.18754,-20.09991 -4.86984,-50.23626 -4.86983,-50.23635 -22.08233,-33.36857 c -29.71782,-44.90673 -11.58979,-42.74612 21.20615,2.52744 28.91675,39.91839 53.89438,114.86526 49.71388,149.16943 l -2.72295,22.34404 -18.18754,-20.09982 z m 39.6247,-4.1866 c 0,-41.40218 23.56844,-108.97467 51.41839,-147.42041 32.84627,-45.34285 50.64469,-47.03029 20.82826,-1.97471 l -22.32011,33.72803 -4.67982,51.6097 -4.67982,51.60978 -20.28341,19.05532 -20.28349,19.05532 0,-25.66303 z"
       id="path2996"
       style="fill:#000000" />
  </g>
</svg>
