<?xml version="1.0" encoding="UTF-8" standalone="no"?>
<!-- Created with Inkscape (http://www.inkscape.org/) -->

<svg
   xmlns:dc="http://purl.org/dc/elements/1.1/"
   xmlns:cc="http://creativecommons.org/ns#"
   xmlns:rdf="http://www.w3.org/1999/02/22-rdf-syntax-ns#"
   xmlns:svg="http://www.w3.org/2000/svg"
   xmlns="http://www.w3.org/2000/svg"
   version="1.1"
   width="424.07465"
   height="500"
   id="svg2">
  <defs
     id="defs4" />
  <metadata
     id="metadata7">
    <rdf:RDF>
      <cc:Work
         rdf:about="">
        <dc:format>image/svg+xml</dc:format>
        <dc:type
           rdf:resource="http://purl.org/dc/dcmitype/StillImage" />
        <dc:title></dc:title>
      </cc:Work>
    </rdf:RDF>
  </metadata>
  <g
     transform="translate(-163.63073,-275.18592)"
     id="layer1">
    <path
       d="m 204.40728,714.38841 0,-60.79751 15.90803,-11.82692 c 20.96726,-15.58821 16.7131,-7.64349 16.7131,48.07723 l 0,55.82299 -16.31058,14.76086 -16.31055,14.76086 z m 324.17239,44.26679 -14.27175,-15.82499 0,-54.406 c 0,-54.25042 -3.66877,-63.44518 17.71809,-44.96801 l 15.64803,13.51913 -2.41129,58.75245 -2.41133,58.75243 z m -275.2407,-82.59661 0,-58.35093 -16.31056,0 -16.31058,0 0,-31.62517 c 0,-39.26261 19.43442,-87.83729 46.71948,-116.77143 l 20.73651,-21.98975 -5.3617,-26.80846 c -2.94894,-14.74467 -14.25381,-40.24535 -25.12193,-56.6682 l -19.76023,-29.85974 14.53606,-13.15495 14.53606,-13.15498 13.34192,14.74267 c 15.11485,16.7017 38.2372,77.54132 38.2372,100.60985 0,8.41857 -14.6795,28.5685 -32.6211,44.7777 l -24.96901,33.55233 -7.65212,43.90157 0,47.98272 16.31055,0 16.31058,0 0,55.82299 0,55.82299 -16.31058,14.76086 -16.31055,14.76086 z m 226.30901,44.51282 -14.27175,-14.32069 0,-56.50445 0,-56.50445 16.31058,0 16.31056,0 0,-47.98272 -7.65213,-43.90157 -24.96901,-33.55233 c -14.43524,-19.39751 -32.6211,-36.35913 -32.6211,-44.7777 0,-23.06853 23.12235,-83.90815 38.2372,-100.60985 l 13.34192,-14.74267 14.53606,13.15498 14.53606,13.15495 -19.76023,29.85974 c -10.86812,16.42285 -22.17299,41.92353 -25.12193,56.6682 l -5.3617,26.80846 20.73651,21.98975 c 27.28506,28.93414 46.71948,77.50882 46.71948,116.77143 l 0,31.62517 -15.95328,0 -15.95329,0 -2.3961,58.59225 -2.3961,58.59221 z m -169.22207,-96.10054 0,-44.69645 -20.38818,-19.15371 c -26.72613,-25.10787 -25.82636,-32.30594 8.15526,-65.24223 l 28.5435,-27.66544 0,-39.43854 c 0,-21.69119 -5.19649,-51.87549 -11.54775,-67.07618 l -11.54775,-27.63764 14.97635,-13.55342 14.97635,-13.55341 9.85851,18.42077 c 5.42217,10.13142 11.73989,41.85918 14.03941,70.5061 l 4.1809,52.08534 -29.84017,30.55911 -29.84017,30.55911 20.52745,19.28452 20.52743,19.28452 0,46.24611 0,46.24613 -16.31056,14.76087 -16.31058,14.76086 z m 112.13513,28.18226 -14.27176,-15.84155 0,-44.82915 0,-44.82911 20.52743,-19.28452 20.52745,-19.28452 -29.84017,-30.55911 -29.84017,-30.55911 4.18091,-52.08534 c 2.29951,-28.64692 8.61723,-60.37468 14.03941,-70.5061 l 9.8585,-18.42077 14.97635,13.55341 14.97635,13.55342 -11.54775,27.63764 c -6.35126,15.20069 -11.54775,45.38499 -11.54775,67.07618 l 0,39.43854 28.5435,27.66544 c 33.89803,32.85527 34.85785,40.15647 8.53036,64.88985 l -20.01315,18.80135 -2.41389,44.71253 -2.4139,44.71253 z m -258.7904,-11.09686 c 0.32536,-27.03932 32.25226,-132.40744 44.08007,-145.477 18.54292,-20.48971 16.12326,-25.16664 -13.02028,-25.16664 l -25.88741,0 19.36377,-20.61181 19.36377,-20.61178 -9.78692,-36.59221 c -5.38281,-20.1257 -9.78691,-45.0276 -9.78691,-55.33757 l 0,-18.74539 22.87327,-21.91396 22.87327,-21.91399 142.78419,0 142.78419,0 21.91399,22.87327 c 24.39562,25.46355 26.44328,41.51079 12.12705,95.03764 l -9.78691,36.59221 19.36376,20.61178 19.36377,20.61181 -25.8874,0 c -29.14355,0 -31.56321,4.67693 -13.02028,25.16664 11.8278,13.06956 43.7547,118.43768 44.08006,145.477 l 0.1397,11.61568 -20.38821,-19.15374 -20.38819,-19.15371 -0.0506,-33.23837 c -0.0286,-18.28107 -2.98174,-42.72972 -9.68221,-55.5773 -4.14948,-12.84756 -12.20801,-28.31082 -14.73307,-33.11576 -2.23523,-4.25341 -7.97945,-17.23004 -17.73214,-27.61128 l -17.73215,-18.875 27.15139,0 27.15139,0 -14.43158,-15.94674 -14.43162,-15.94674 5.01237,-28.90729 c 2.7568,-15.89903 7.24877,-41.75187 9.9822,-57.45078 l 4.96989,-28.54348 -156.73481,0 -156.73478,0 4.73187,26.50465 c 2.6025,14.57757 7.09451,40.43041 9.98223,57.45078 l 5.25037,30.94612 -14.43162,15.94674 -14.43159,15.94674 27.1514,0 27.15139,0 -17.73215,18.875 c -9.75269,10.38124 -15.49691,23.35787 -17.73214,27.61128 -2.52506,4.80494 -10.58359,18.22765 -14.73338,31.07521 -4.45367,13.78844 -9.65459,39.33678 -9.68222,57.61785 l -0.0503,33.23837 -20.38819,19.15371 -20.38821,19.15374 0.1397,-11.61568 z"
       id="path3025"
       style="fill:#000000" />
  </g>
</svg>
