<?xml version="1.0" encoding="UTF-8" standalone="no"?>
<!-- Created with Inkscape (http://www.inkscape.org/) -->

<svg
   xmlns:dc="http://purl.org/dc/elements/1.1/"
   xmlns:cc="http://creativecommons.org/ns#"
   xmlns:rdf="http://www.w3.org/1999/02/22-rdf-syntax-ns#"
   xmlns:svg="http://www.w3.org/2000/svg"
   xmlns="http://www.w3.org/2000/svg"
   version="1.1"
   width="432.86823"
   height="500"
   id="svg3058">
  <defs
     id="defs3060" />
  <metadata
     id="metadata3063">
    <rdf:RDF>
      <cc:Work
         rdf:about="">
        <dc:format>image/svg+xml</dc:format>
        <dc:type
           rdf:resource="http://purl.org/dc/dcmitype/StillImage" />
        <dc:title></dc:title>
      </cc:Work>
    </rdf:RDF>
  </metadata>
  <g
     transform="translate(-146.66116,-169.98249)"
     id="layer1">
    <path
       d="m 188.65263,654.19173 -21.48566,-16.03002 0,-29.54661 0,-29.54653 16.193,-20.58607 16.19299,-20.58607 32.85283,0 32.8529,0 17.36432,12.16244 17.36439,12.16252 0,-20.88195 0,-20.88195 -26.7537,-36.20505 c -14.71456,-19.91283 -41.08332,-44.94573 -58.59726,-55.62872 -37.34285,-22.77792 -43.50197,-38.85333 -6.94619,-18.12975 30.61777,17.35744 89.28252,75.2127 108.92299,107.42025 l 14.56759,23.88869 0.0312,29.99312 0.0312,29.9932 -24.03839,-20.22699 -24.03831,-20.22691 -23.19459,0 -23.19459,0 -19.17723,19.17724 c -10.54751,10.5475 -19.17732,27.281 -19.17732,37.1855 l 0,18.00818 15.92907,9.94786 c 8.761,5.47135 13.82731,13.34877 11.25841,17.50535 -6.60336,10.68439 -12.54637,9.24211 -36.95369,-8.96773 z m 310.72333,8.96773 c -2.5689,-4.15658 2.4974,-12.034 11.2584,-17.50535 l 15.9291,-9.94786 0,-18.00818 c 0,-9.9045 -8.6298,-26.638 -19.1773,-37.1855 l -19.1773,-19.17724 -23.1946,0 -23.1946,0 -24.0383,20.22691 -24.0384,20.22699 0.031,-29.9932 0.031,-29.99312 14.5675,-23.88869 c 19.6405,-32.20755 78.3053,-90.06281 108.9231,-107.42025 36.5557,-20.72358 30.3966,-4.64817 -6.9462,18.12975 -17.5139,10.68299 -43.8827,35.71589 -58.5972,55.62872 l -26.7532,36.20505 0,20.88195 0,20.88195 17.3644,-12.16252 17.3643,-12.16244 32.8529,0 32.8528,0 16.193,20.58607 16.193,20.58607 0,29.66615 0,29.66623 -22.6917,16.15799 c -25.7297,18.3211 -29.2208,19.16099 -35.7476,8.60052 z M 235.79208,516.41077 c -15.96111,-18.29813 -31.69017,-49.30545 -27.25897,-53.73665 5.53072,-5.5308 44.57649,43.77457 44.57649,56.2893 0,14.44274 -2.86064,14.02107 -17.31752,-2.55265 z m 236.08058,3.50935 c 0,-13.11672 38.7846,-63.03791 44.5196,-57.30296 5.0882,5.0882 -17.9279,47.31048 -32.2849,59.22581 l -12.2347,10.15381 0,-12.07666 z M 325.86551,501.56918 c -7.78726,-11.56257 -25.83545,-32.72993 -40.10708,-47.03852 -31.10381,-31.18452 -20.70991,-34.68356 14.64861,-4.93131 l 25.05743,21.08446 -5.79761,-19.13122 c -3.1887,-10.52219 -16.3391,-43.45377 -29.22307,-73.1814 l -23.42554,-54.05011 3.29301,-39.70862 3.29293,-39.70862 21.95342,-37.46068 21.95334,-37.46067 13.96287,12.63622 13.96278,12.63614 -23.44397,44.36008 -23.44391,44.36007 3.19176,39.52721 3.19175,39.5272 24.87297,53.15232 c 24.6703,52.71932 31.6372,93.17307 17.54597,101.88195 -4.02977,2.49054 -13.69839,-4.93194 -21.48566,-16.4945 z m 50.2523,16.09775 c -12.10439,-12.10447 -4.95662,-50.1644 19.05925,-101.4852 l 24.873,-53.15232 3.1917,-39.5272 3.1918,-39.52721 -23.444,-44.36007 -23.4439,-44.36008 13.9628,-12.63614 13.9628,-12.63622 21.9534,37.46067 21.9534,37.46068 3.293,39.70862 3.293,39.70862 -23.4256,54.05011 c -12.8839,29.72763 -26.0343,62.65921 -29.223,73.1814 l -5.7977,19.13122 25.0575,-21.08446 c 35.5179,-29.88639 45.5939,-26.1818 14.6486,5.38571 -14.2716,14.55861 -33.0008,35.9259 -41.6204,47.48292 -8.6196,11.55694 -18.2881,18.39649 -21.48565,15.19895 z M 208.28747,402.63717 c -13.90935,-9.4015 -25.33581,-20.1348 -25.39214,-23.85189 -0.0547,-3.7171 8.68716,-0.99913 19.42999,6.03981 l 19.53242,12.79819 0,-83.42725 0,-83.42718 15.62593,14.14132 15.62593,14.14123 0,80.8253 0,80.82522 -9.76621,-0.48518 c -5.37141,-0.26721 -21.14657,-8.17776 -35.05592,-17.57918 z m 263.58519,-62.76047 0,-80.8253 15.6259,-14.14123 15.626,-14.14132 0,83.42718 0,83.42725 19.5324,-12.79819 c 10.7428,-7.03894 19.4889,-9.75691 19.4357,-6.03981 -0.1133,7.89875 -50.6712,41.91664 -62.2975,41.91664 l -7.9225,0 0,-80.82522 z m -299.57375,12.77475 c -16.51458,-10.4725 -27.88244,-21.18494 -25.26197,-23.80541 2.62046,-2.62047 8.9249,-0.60394 14.0099,4.48089 17.30915,17.30916 21.74606,9.28923 21.74606,-39.30672 l 0,-48.55196 12.1058,12.1058 12.10573,12.10572 -2.33952,51.00625 -2.33959,51.00625 -30.02641,-19.04082 z m 346.45155,-32.82493 0,-53.47062 11.7195,-9.72628 11.7194,-9.72629 0,47.83442 0,47.8345 7.3519,0 c 4.0435,0 9.5248,-3.51583 12.1805,-7.81296 2.6558,-4.29714 8.3445,-7.81297 12.6417,-7.81297 12.9864,0 0.7281,13.10875 -28.2427,30.20188 l -27.3703,16.14894 0,-53.47062 z"
       id="path3077"
       style="fill:#000000" />
  </g>
</svg>
