<?xml version="1.0" encoding="UTF-8" standalone="no"?>
<!-- Created with Inkscape (http://www.inkscape.org/) -->

<svg
   xmlns:dc="http://purl.org/dc/elements/1.1/"
   xmlns:cc="http://creativecommons.org/ns#"
   xmlns:rdf="http://www.w3.org/1999/02/22-rdf-syntax-ns#"
   xmlns:svg="http://www.w3.org/2000/svg"
   xmlns="http://www.w3.org/2000/svg"
   version="1.1"
   width="362.83411"
   height="500"
   id="svg2">
  <defs
     id="defs4" />
  <metadata
     id="metadata7">
    <rdf:RDF>
      <cc:Work
         rdf:about="">
        <dc:format>image/svg+xml</dc:format>
        <dc:type
           rdf:resource="http://purl.org/dc/dcmitype/StillImage" />
        <dc:title></dc:title>
      </cc:Work>
    </rdf:RDF>
  </metadata>
  <g
     transform="translate(-242.71427,-235.37067)"
     id="layer1">
    <path
       d="m 279.71657,720.63101 -13.3392,-14.73966 0,-38.06802 0,-38.06798 15.7754,14.27656 15.7754,14.2765 0,22.44066 0,22.44058 39.43848,0 39.4385,0 0,-214.19036 0,-214.19036 15.8997,14.38912 15.89978,14.38906 -2.09632,213.6047 -2.09622,213.60478 -55.67816,2.28704 -55.67808,2.28704 z m 165.44866,8.85094 c -2.8922,-2.8921 -5.2585,-99.95228 -5.2585,-215.68918 l 0,-210.4307 15.77538,-14.27658 15.7754,-14.27656 0,214.19036 0,214.19036 39.4385,0 39.43848,0 0,-22.44058 0,-22.44066 15.7754,-14.2765 15.7754,-14.27656 0,39.43848 0,39.4385 -14.42454,13.05406 -14.42456,13.05404 -51.30624,0 c -28.21846,0 -53.67264,-2.3663 -56.56472,-5.25848 z M 331.45087,677.77983 c -24.23734,-25.93354 -23.76534,-21.04216 -22.11364,-30.92556 l 4.36632,-26.12694 20.41194,20.412 20.41204,20.41196 -2.6647,17.60896 -2.66462,17.6089 z m 163.66974,0.55292 0,-19.71924 19.71924,-18.5252 19.71924,-18.5253 0,19.71926 0,19.71924 -19.71924,18.52528 -19.71924,18.52528 0,-19.71924 z m -234.90534,-87.67768 -17.501,-18.62892 0,-22.40534 0,-22.40532 15.7754,14.27658 c 8.67646,7.85212 15.7754,19.0506 15.7754,24.8856 l 0,10.60904 15.7754,0 15.77538,0 0,-170.80802 0,-170.80802 15.92542,14.4124 15.9255,14.41232 -2.12202,170.1991 -2.12194,170.19918 -27.8533,2.34516 -27.85326,2.34526 z m 255.93924,12.62396 c -2.8922,-2.89212 -5.2585,-80.43024 -5.2585,-172.30686 l 0,-167.04836 15.77538,-14.27656 15.7754,-14.27658 0,170.80802 0,170.80802 15.7754,0 15.7754,0 0,-10.60904 c 0,-5.835 7.09894,-17.03348 15.7754,-24.8856 l 15.7754,-14.27658 0,23.51072 0,23.51062 -18.25568,17.15038 -18.2557,17.1503 -23.812,0 c -13.09666,0 -26.17842,-2.36632 -29.0705,-5.25848 z"
       id="path2996"
       style="fill:#000000" />
  </g>
</svg>
