<?xml version="1.0" encoding="UTF-8" standalone="no"?>
<!-- Created with Inkscape (http://www.inkscape.org/) -->

<svg
   xmlns:dc="http://purl.org/dc/elements/1.1/"
   xmlns:cc="http://creativecommons.org/ns#"
   xmlns:rdf="http://www.w3.org/1999/02/22-rdf-syntax-ns#"
   xmlns:svg="http://www.w3.org/2000/svg"
   xmlns="http://www.w3.org/2000/svg"
   xmlns:sodipodi="http://sodipodi.sourceforge.net/DTD/sodipodi-0.dtd"
   xmlns:inkscape="http://www.inkscape.org/namespaces/inkscape"
   version="1.1"
   width="448.70309"
   height="500"
   id="svg2"
   inkscape:version="0.48.4 r9939"
   sodipodi:docname="Atmospheric Pressure Surge-glyph.svg">
  <sodipodi:namedview
     pagecolor="#ffffff"
     bordercolor="#666666"
     borderopacity="1"
     objecttolerance="10"
     gridtolerance="10"
     guidetolerance="10"
     inkscape:pageopacity="0"
     inkscape:pageshadow="2"
     inkscape:window-width="1366"
     inkscape:window-height="706"
     id="namedview7"
     showgrid="false"
     fit-margin-top="0"
     fit-margin-left="0"
     fit-margin-right="0"
     fit-margin-bottom="0"
     inkscape:zoom="0.28456197"
     inkscape:cx="372.12958"
     inkscape:cy="414.6724"
     inkscape:window-x="-8"
     inkscape:window-y="-8"
     inkscape:window-maximized="1"
     inkscape:current-layer="svg2" />
  <defs
     id="defs4" />
  <metadata
     id="metadata7">
    <rdf:RDF>
      <cc:Work
         rdf:about="">
        <dc:format>image/svg+xml</dc:format>
        <dc:type
           rdf:resource="http://purl.org/dc/dcmitype/StillImage" />
        <dc:title />
      </cc:Work>
    </rdf:RDF>
  </metadata>
  <g
     transform="matrix(0.60288554,0,0,0.60288554,-1.6042564e-8,-134.45395)"
     id="layer1">
    <path
       d="m 219.68123,1022.3019 -28.24016,-30.0604 25.99213,-23.52264 25.99229,-23.52269 0,-41.39825 0,-41.39828 -27.06433,-34.40682 c -14.88542,-18.92367 -55.09723,-48.6121 -89.35973,-65.97416 -58.996,-29.89552 -91.630793,-57.85003 -67.535375,-57.85003 6.051977,0 42.481925,18.86048 80.955515,41.91218 l 69.95197,41.91217 49.62905,70.92832 49.62891,70.92833 -6.98849,35.46415 -6.98852,35.46412 76.73154,0 76.73154,0 -6.98848,-35.46412 -6.98852,-35.46415 49.62894,-70.92833 49.62905,-70.92832 69.95193,-41.91217 c 38.47359,-23.0517 74.90354,-41.91218 80.95551,-41.91218 24.09538,0 -8.53937,27.95451 -67.53533,57.85003 -34.2625,17.36206 -74.47435,47.05049 -89.35977,65.97416 l -27.06428,34.40682 0,41.39828 0,41.39825 25.99223,23.52269 25.99214,23.52264 -28.24016,30.0604 -28.24017,30.0603 -124.46463,0 -124.4646,0 z M 86.658446,915.86037 66.221147,895.42308 93.566992,841.70803 c 15.040258,-29.5433 28.761138,-56.09745 30.490878,-59.00937 1.72978,-2.91182 14.99169,5.42689 29.47099,18.53046 l 26.32587,23.82468 -8.13998,20.15769 c -4.47698,11.08689 -11.1057,27.41188 -14.7305,36.27793 l -6.59067,16.12005 19.14485,0 c 10.52963,0 26.36907,8.70485 35.19885,19.34409 l 16.0542,19.3441 -56.84789,0 -56.8479,0 z m 453.376324,1.09357 c 8.82979,-10.63924 24.66927,-19.34406 35.1989,-19.34406 l 19.14485,0 -6.59067,-16.12009 c -3.62484,-8.86604 -10.25353,-25.19105 -14.73054,-36.27788 l -8.13998,-20.15773 26.32591,-23.82468 c 14.47929,-13.10353 27.7412,-21.44228 29.47094,-18.53047 1.72975,2.91193 15.55044,29.64842 30.71287,59.4146 l 27.56777,54.12007 -22.13517,20.03223 -22.13532,20.03211 -55.37191,0 -55.3718,0 z M 299.49341,852.07621 c -20.19819,-26.02218 -46.17616,-59.55566 -57.72907,-74.5191 l -21.00524,-27.2059 40.3493,-50.16192 40.34934,-50.16204 4.2976,-160.94914 4.2976,-160.94898 24.71851,22.36988 24.71851,22.37003 0,146.72014 0,146.72009 -17.34647,41.49799 c -9.5405,22.82381 -26.95017,49.46256 -38.68817,59.19701 -28.43568,23.58238 -27.19133,31.40241 12.50313,78.57657 18.61466,22.12229 30.78789,43.27918 27.05178,47.01529 -3.73611,3.73626 -23.31879,-14.49774 -43.51682,-40.51992 z m 98.68475,34.71903 c 0,-6.50066 9.02168,-19.30668 20.04819,-28.45785 11.02639,-9.15121 26.03173,-27.81901 33.34497,-41.48405 l 13.297,-24.8454 -26.03804,-27.79941 C 395.61905,718.07419 385.2821,670.6109 385.2821,518.3354 l 0,-145.46636 24.71851,-22.37003 24.71851,-22.36988 4.29764,160.94898 4.2976,160.94914 39.80058,49.63897 39.80059,49.63898 -37.35474,51.35068 c -43.56224,59.884 -87.38263,103.08089 -87.38263,86.13936 z M 127.36097,697.23003 C 8.5313688,634.13207 -4.9486085,625.84288 1.2274073,619.66693 4.7036816,616.1907 38.647778,627.75522 76.658818,645.36594 l 69.110762,32.01962 24.81573,-22.07248 c 13.64854,-12.13983 32.71949,-40.74651 42.37994,-63.57034 l 17.56417,-41.49799 0,-138.07083 0,-138.07073 33.30781,31.26414 33.30793,31.26406 -4.51725,128.96055 -4.51721,128.96058 -42.79285,67.70431 c -23.53611,37.23735 -46.64749,67.27317 -51.35869,66.74612 -4.7113,-0.52745 -34.68045,-14.82478 -66.59819,-31.77292 z m 372.09328,-34.9732 -42.79286,-67.70431 -4.51724,-128.96058 -4.51725,-128.96055 33.30796,-31.26406 33.30782,-31.26414 0,138.07073 0,138.07083 17.56417,41.49799 c 9.66041,22.82383 28.73136,51.43051 42.3799,63.57034 l 24.81577,22.07248 68.51701,-31.74453 c 76.29514,-35.34795 83.82619,-37.32956 72.55347,-19.08989 -6.09984,9.86961 -182.42905,103.40999 -194.9341,103.40999 -1.59048,0 -22.14858,-30.46695 -45.68465,-67.7043 z m -377.39809,-34.20101 -24.046877,-26.57153 16.708507,-20.13241 16.70851,-20.13256 -14.92873,-14.92874 -14.92874,-14.92873 0,-154.17226 0,-154.17221 25.79214,23.34159 25.79209,23.34162 0,142.06646 0,142.06645 19.67745,21.74325 19.67731,21.74326 -23.20245,28.65375 -23.20233,28.65375 z m 452.09025,-2.50479 -20.69368,-29.54435 19.08307,-21.08661 19.0832,-21.08657 0,-142.06645 0,-142.06646 25.79213,-23.34162 25.7921,-23.34159 0,154.17221 0,154.17226 -14.92874,14.92873 -14.92873,14.92874 17.09142,20.5937 17.09125,20.59384 -26.34419,26.34434 -26.34419,26.34419 z m -385.52917,-98.31308 -22.56811,-24.98868 0,-131.16916 2.846,-137.80984 8.47093,6.64071 c 4.89857,3.8402 16.53082,9.52858 25.29364,18.93245 l 15.8738,17.03503 -3.67409,138.17403 -3.67409,138.17399 z m 338.52147,-115.10029 0,-141.27618 24.96197,-20.21859 c 33.80202,-27.37878 26.62225,-15.18094 26.62225,122.67791 l 0,133.40984 -25.79209,23.34158 -25.79213,23.34164 z"
       id="path2996"
       style="fill:#000000"
       inkscape:connector-curvature="0" />
  </g>
</svg>
