<?xml version="1.0" encoding="UTF-8" standalone="no"?>
<!-- Created with Inkscape (http://www.inkscape.org/) -->

<svg
   xmlns:dc="http://purl.org/dc/elements/1.1/"
   xmlns:cc="http://creativecommons.org/ns#"
   xmlns:rdf="http://www.w3.org/1999/02/22-rdf-syntax-ns#"
   xmlns:svg="http://www.w3.org/2000/svg"
   xmlns="http://www.w3.org/2000/svg"
   version="1.1"
   width="586.75928"
   height="500"
   id="svg2998">
  <defs
     id="defs3000" />
  <metadata
     id="metadata3003">
    <rdf:RDF>
      <cc:Work
         rdf:about="">
        <dc:format>image/svg+xml</dc:format>
        <dc:type
           rdf:resource="http://purl.org/dc/dcmitype/StillImage" />
        <dc:title></dc:title>
      </cc:Work>
    </rdf:RDF>
  </metadata>
  <g
     transform="translate(-88.145306,-196.85364)"
     id="layer1">
    <path
       d="m 176.60389,673.18337 c -21.24465,-22.73132 -27.96791,-40.36531 -11.51242,-30.19524 l 9.20993,5.69202 0,-18.96335 0,-18.96344 -13.2927,0 c -7.31094,0 -19.73035,9.19106 -27.59858,20.4246 l -14.30598,20.4246 -15.47942,-15.47942 -15.479414,-15.47941 10.76356,-23.62358 c 5.919964,-12.99292 17.227094,-26.10372 25.126824,-29.13517 l 14.36317,-5.51169 21.81576,20.49478 c 26.7463,25.12691 44.25908,65.38354 40.16923,92.33697 l -3.05761,20.15088 -20.72235,-22.17255 z m 384.5148,-1.41741 c 0,-30.05313 18.67858,-68.47688 44.76379,-92.08361 l 19.01972,-17.21263 14.23763,5.46343 c 7.83066,3.00492 19.08124,16.09408 25.0012,29.087 l 10.76356,23.62358 -15.96966,15.77717 -15.96966,15.77717 -9.08293,-16.00447 c -4.99565,-8.8024 -17.19439,-20.34558 -27.10843,-25.65133 l -18.02541,-9.64695 0,23.89242 0,23.89241 9.20994,-5.69202 c 18.28678,-11.30188 8.68865,11.09374 -13.81491,32.23478 l -23.02484,21.63073 0,-25.08768 z m -335.85991,-26.47534 -14.55658,-20.72236 64.68902,-2.70597 64.68902,-2.70597 0,-93.12331 0,-93.12332 18.41987,16.6698 18.41987,16.66971 0,99.88193 0,99.88184 -68.55231,0 -68.55222,0 -14.55667,-20.72235 z m 160.87114,-79.15949 0,-99.88193 18.41987,-16.66971 18.41987,-16.6698 0,93.12332 0,93.12331 64.68902,2.70597 64.68902,2.70597 -14.55657,20.72236 -14.55668,20.72235 -68.55222,0 -68.55231,0 0,-99.88184 z M 194.56326,590.4915 c -18.22324,-18.22324 -12.84611,-24.52744 23.48534,-27.5343 l 34.53725,-2.85849 -43.74719,-47.00484 c -53.54868,-57.53612 -57.95177,-76.39402 -6.12709,-26.24131 31.86508,30.83698 72.89912,92.59651 72.89912,109.71897 0,9.94323 -70.29778,4.66962 -81.04743,-6.08003 z m 292.87595,6.08003 c 0,-17.12246 41.03404,-78.88199 72.89913,-109.71897 51.82467,-50.15271 47.42159,-31.29481 -6.1271,26.24131 l -43.74719,47.00484 34.53726,2.85849 c 36.33135,3.00686 41.70857,9.31106 23.48533,27.5343 -10.74965,10.74965 -81.04743,16.02326 -81.04743,6.08003 z M 272.43317,547.86111 c -8.38334,-9.26345 -15.24235,-21.56682 -15.24235,-27.3408 l 0,-10.49813 13.81491,5.30124 c 27.28692,10.47096 12.75069,-8.94064 -50.65465,-67.64431 -83.67797,-77.47296 -84.0449,-95.17492 -0.43287,-20.86456 66.40456,59.01681 85.30243,81.97865 96.43005,117.16678 l 6.55297,20.72235 -17.61309,0 c -9.6871,0 -24.47208,-7.57913 -32.85534,-16.84257 z m 174.2681,-3.87978 c 11.12763,-35.18813 30.0255,-58.14997 96.43005,-117.16678 83.6124,-74.31036 83.24548,-56.6084 -0.43286,20.86456 -63.40535,58.70367 -77.94157,78.11527 -50.65465,67.64431 l 13.8149,-5.30124 0,12.09844 c 0,16.66253 -30.25141,42.58306 -49.69801,42.58306 l -16.01285,0 6.55305,-20.72235 z m -136.55332,-46.07243 -16.11739,-24.65647 0,-64.79365 0,-64.79355 -45.52747,0 -45.52738,0 -14.58863,-20.72236 -14.58854,-20.72235 37.16421,-2.83565 37.16421,-2.83555 -26.69758,-22.4646 c -25.0641,-21.09002 -44.73118,-64.82533 -33.98383,-75.57268 8.55566,-8.55575 32.90553,17.90761 32.90553,35.76163 l 0,17.2922 16.11739,-0.20446 c 8.86456,-0.11236 26.47856,-8.30938 39.14222,-18.21504 32.1308,-25.13308 49.8859,-22.86016 77.46578,9.91662 l 23.84351,28.33639 0,79.00522 0,79.00522 -18.41987,-16.66971 -18.41987,-16.66979 0,-67.64707 c 0,-37.20584 -2.21803,-67.64707 -4.92897,-67.64707 -2.71095,0 -14.96108,6.57322 -27.22236,14.60714 l -22.29339,14.60714 23.02622,19.93012 23.02622,19.93011 -2.71131,96.35757 -2.71131,96.35757 -16.11739,-24.65656 z m 122.23648,-72.98828 -0.20446,-98.33835 22.96782,-18.06648 22.96774,-18.06649 -22.64373,-14.83674 c -12.45404,-8.16019 -24.86185,-14.83675 -27.5728,-14.83675 -2.71094,0 -4.92897,30.44123 -4.92897,67.64707 l 0,67.64707 -18.41987,16.6698 -18.41987,16.6697 0,-79.00522 0,-79.00522 23.84351,-28.33639 c 27.57989,-32.77678 45.33498,-35.0497 77.46578,-9.91662 12.66366,9.90566 30.27766,18.10241 39.14222,18.21505 l 16.11739,0.20446 0,-17.29221 c 0,-17.85401 24.34978,-44.31738 32.90554,-35.76163 10.74735,10.74735 -8.91983,54.48267 -33.98384,75.57268 l -26.69757,22.4646 37.1642,2.83555 37.16421,2.83565 -14.58854,20.72236 -14.58863,20.72235 -45.52738,0 -45.52747,0 -0.20446,66.77203 -0.20446,66.77204 -18.01031,23.02484 -18.0103,23.02483 -0.20446,-98.33835 z m -172.89112,0.37393 c -6.33183,-6.39879 -11.51242,-24.12672 -11.51242,-39.3955 l 0,-27.76133 14.54644,14.54645 14.54655,14.54654 -3.03413,24.84896 -3.03402,24.84896 -11.51242,-11.63408 z m 227.9459,-14.90463 c 0,-15.19639 6.21671,-32.78921 13.8149,-39.09516 l 13.81491,-11.46536 0,27.62981 c 0,15.19639 -6.21671,32.78921 -13.81491,39.09516 l -13.8149,11.46536 0,-27.62981 z"
       id="path3017"
       style="fill:#000000" />
  </g>
</svg>
