<?xml version="1.0" encoding="UTF-8" standalone="no"?>
<!-- Created with Inkscape (http://www.inkscape.org/) -->

<svg
   xmlns:dc="http://purl.org/dc/elements/1.1/"
   xmlns:cc="http://creativecommons.org/ns#"
   xmlns:rdf="http://www.w3.org/1999/02/22-rdf-syntax-ns#"
   xmlns:svg="http://www.w3.org/2000/svg"
   xmlns="http://www.w3.org/2000/svg"
   version="1.1"
   width="451.5596"
   height="500"
   id="svg3016">
  <defs
     id="defs3018" />
  <metadata
     id="metadata3021">
    <rdf:RDF>
      <cc:Work
         rdf:about="">
        <dc:format>image/svg+xml</dc:format>
        <dc:type
           rdf:resource="http://purl.org/dc/dcmitype/StillImage" />
        <dc:title></dc:title>
      </cc:Work>
    </rdf:RDF>
  </metadata>
  <g
     transform="translate(-161.26145,-165.25412)"
     id="layer1">
    <path
       d="m 221.69524,660.42221 c 0,-10.14017 24.55703,-51.09911 36.65771,-61.14181 l 12.94609,-10.74426 0,8.79169 c 0,4.83538 -3.72028,11.09091 -8.2673,13.90114 -13.98033,8.64032 -9.16918,20.66824 8.2673,20.66824 l 16.5346,0 0,-102.05989 0,-102.05998 16.5346,-14.96356 16.5346,-14.96365 0,123.63738 0,123.63738 -9.92076,9.92076 c -9.65447,9.65447 -89.28684,14.44967 -89.28684,5.37656 z m 241.40515,-5.37656 -9.92076,-9.92076 0,-123.63738 0,-123.63738 16.5346,14.96365 16.5346,14.96356 0,102.05998 0,102.05989 16.5346,0 c 17.43648,0 22.24763,-12.02792 8.2673,-20.66824 -4.54702,-2.81023 -8.2673,-9.06576 -8.2673,-13.90114 l 0,-8.79169 12.94609,10.74426 c 12.10069,10.0427 36.65771,51.00164 36.65771,61.14181 0,9.07311 -79.63237,4.27791 -89.28684,-5.37656 z M 175.80322,599.29421 c 7.99786,-8.83758 24.38572,-17.20822 36.41729,-18.60142 l 21.87568,-2.53302 2.55873,-45.12987 2.55873,-45.12978 -17.0265,15.40876 c -31.36804,28.38767 -17.44657,0.0744 16.04269,-32.62401 l 33.0692,-32.29124 0,53.92718 0,53.92718 -29.57973,34.55731 -29.57982,34.55732 -25.43898,0 -25.43906,0 14.54177,-16.06841 z m 356.55995,-18.48891 -29.57974,-34.55731 0,-53.92718 0,-53.92718 33.0692,32.29124 c 33.48921,32.70139 47.41071,61.01168 16.04269,32.62401 l -17.0265,-15.40876 2.55873,45.12978 2.55873,45.12987 21.87569,2.53302 c 12.03157,1.3932 28.41937,9.76384 36.41727,18.60142 l 14.5418,16.06841 -25.4391,0 -25.43896,0 -29.57981,-34.55732 z m -186.65843,-198.49811 0,-186.01415 16.5346,-14.96365 16.5346,-14.96365 0,186.01424 0,186.01424 -16.5346,14.96365 -16.5346,14.96356 0,-186.01424 z m 64.07157,169.21112 -14.46778,-15.99697 0,-185.13361 0,-185.13361 16.69722,16.69722 16.69722,16.69721 -2.22944,184.43337 -2.22945,184.43345 -14.46777,-15.99706 z M 221.69524,432.2306 l 0,-20.66824 20.66825,-19.41683 20.66825,-19.41683 0,20.66825 0,20.66825 -20.66825,19.41683 -20.66825,19.41682 0,-20.66825 z m 307.95691,-0.57953 c -10.23078,-10.94682 -18.60142,-28.87958 -18.60142,-39.8507 l 0,-19.94759 21.39428,21.39436 21.39437,21.39429 -2.79294,18.45641 -2.79286,18.45634 -18.60143,-19.9032 z m -250.08581,-70.01237 0,-41.3365 16.5346,-14.96357 16.5346,-14.96364 0,41.33649 0,41.3365 -16.5346,14.96365 -16.5346,14.96356 0,-41.33649 z m 196.34837,24.61018 -14.46778,-16.07378 0,-40.45587 0,-40.45586 17.04188,17.04188 17.04188,17.04188 -2.5741,39.48776 -2.57411,39.48777 -14.46777,-16.07378 z"
       id="path3035"
       style="fill:#000000" />
  </g>
</svg>
