<?xml version="1.0" encoding="UTF-8" standalone="no"?>
<!-- Created with Inkscape (http://www.inkscape.org/) -->

<svg
   xmlns:dc="http://purl.org/dc/elements/1.1/"
   xmlns:cc="http://creativecommons.org/ns#"
   xmlns:rdf="http://www.w3.org/1999/02/22-rdf-syntax-ns#"
   xmlns:svg="http://www.w3.org/2000/svg"
   xmlns="http://www.w3.org/2000/svg"
   version="1.1"
   width="387.38342"
   height="500"
   id="svg2">
  <defs
     id="defs4" />
  <metadata
     id="metadata7">
    <rdf:RDF>
      <cc:Work
         rdf:about="">
        <dc:format>image/svg+xml</dc:format>
        <dc:type
           rdf:resource="http://purl.org/dc/dcmitype/StillImage" />
        <dc:title></dc:title>
      </cc:Work>
    </rdf:RDF>
  </metadata>
  <g
     transform="translate(-144.07145,-198.39278)"
     id="layer1">
    <path
       d="m 312.06921,687.37031 -9.88222,-9.88744 0,-227.68638 0,-227.68638 -59.29333,0 -59.29332,0 0,52.61287 0,52.61279 -15.81156,-14.30922 -15.81155,-14.3093 0,-50.16224 0,-50.16223 78.08978,0 78.08971,0 8.99124,10.83376 8.99124,10.83384 -2.09384,238.59864 -2.09393,238.59865 -9.88222,-9.88736 z m 37.55244,-229.49064 0,-240.51303 9.48694,-9.48693 9.48693,-9.48693 77.47661,0 77.47663,0 0,50.16223 0,50.16224 -15.8116,14.3093 -15.8115,14.30922 0,-52.61279 0,-52.61287 -59.29335,0 -59.29333,0 0,228.29947 0,228.29955 -11.85866,9.84183 -11.85867,9.84182 0,-240.51311 z m -84.9871,182.05898 -9.88222,-9.89044 0,-176.29883 0,-176.29883 -15.81156,0 -15.81155,0 0,52.35553 0,52.35562 -11.85867,-9.84182 -11.85866,-9.84183 0,-54.37245 0,-54.37238 26.4449,0 26.44491,0 13.23261,14.62181 13.23261,14.6219 -2.12508,183.42612 -2.12507,183.42604 -9.88222,-9.89044 z m 132.42177,-174.50904 0,-185.52851 14.45761,-13.0839 c 7.95171,-7.19623 25.7397,-13.08398 39.52888,-13.08398 l 25.07128,0 0,54.37238 0,54.37245 -11.85867,9.84183 -11.85866,9.84182 0,-52.35562 0,-52.35553 -15.81156,0 -15.81155,0 0,176.91192 0,176.912 -11.85867,9.84182 -11.85866,9.84183 0,-185.52851 z m -176.65467,145.41752 -13.08398,-14.45761 0,-28.05618 0,-28.0561 -11.85867,-9.84182 -11.85866,-9.84183 0,33.81641 0,33.81641 -15.81156,-14.30922 -15.81155,-14.3093 0,-34.35068 c 0,-18.89283 2.11898,-34.35068 4.70892,-34.35068 2.58993,0 15.04153,7.35743 27.67021,16.34986 l 22.96131,16.34994 0,-58.6064 0,-58.60639 -15.81156,-14.30922 -15.81155,-14.3093 0,27.31438 c 0,15.02295 4.26912,31.5835 9.48693,36.80131 l 9.48693,9.48694 -8.10887,0 c -4.45981,0 -15.84413,-8.23387 -25.29849,-18.29753 l -17.18961,-18.29753 0.35023,-46.92513 0.35022,-46.92514 47.0846,50.49057 47.08459,50.49056 0,101.69564 c 0,55.93259 -1.22745,101.69565 -2.72757,101.69565 -1.5002,0 -8.6154,-6.5059 -15.81156,-14.45761 z m 216.18355,-86.01272 0,-102.92096 47.08456,-50.49056 47.0846,-50.49057 0.3503,48.03305 0.3502,48.03298 -18.2975,17.18969 c -18.7813,17.64411 -39.87694,24.76706 -22.8126,7.70267 5.2179,-5.21781 9.487,-21.77836 9.487,-36.80131 l 0,-27.31438 -15.8116,14.3093 -15.81153,14.30922 0,58.60639 0,58.6064 22.63333,-16.11632 c 27.0947,-19.29318 32.7071,-15.33998 32.7071,23.03775 l 0,29.08013 -15.8115,14.3093 -15.8116,14.30922 0,-33.81641 0,-33.81641 -11.8587,9.84183 -11.85863,9.84182 0,29.42981 0,29.42973 -15.81156,14.3093 -15.81155,14.30921 0,-102.92088 z"
       id="path2996"
       style="fill:#000000" />
  </g>
</svg>
