<?xml version="1.0" encoding="UTF-8" standalone="no"?>
<!-- Created with Inkscape (http://www.inkscape.org/) -->

<svg
   xmlns:dc="http://purl.org/dc/elements/1.1/"
   xmlns:cc="http://creativecommons.org/ns#"
   xmlns:rdf="http://www.w3.org/1999/02/22-rdf-syntax-ns#"
   xmlns:svg="http://www.w3.org/2000/svg"
   xmlns="http://www.w3.org/2000/svg"
   xmlns:sodipodi="http://sodipodi.sourceforge.net/DTD/sodipodi-0.dtd"
   xmlns:inkscape="http://www.inkscape.org/namespaces/inkscape"
   width="368.55087"
   height="500"
   id="svg3019"
   version="1.1"
   inkscape:version="0.48.4 r9939"
   sodipodi:docname="New document 5">
  <defs
     id="defs3021" />
  <sodipodi:namedview
     id="base"
     pagecolor="#ffffff"
     bordercolor="#666666"
     borderopacity="1.0"
     inkscape:pageopacity="0.0"
     inkscape:pageshadow="2"
     inkscape:zoom="0.35"
     inkscape:cx="233.78579"
     inkscape:cy="158.88155"
     inkscape:document-units="px"
     inkscape:current-layer="layer1"
     showgrid="false"
     fit-margin-top="0"
     fit-margin-left="0"
     fit-margin-right="0"
     fit-margin-bottom="0"
     inkscape:window-width="1366"
     inkscape:window-height="706"
     inkscape:window-x="-8"
     inkscape:window-y="-8"
     inkscape:window-maximized="1" />
  <metadata
     id="metadata3024">
    <rdf:RDF>
      <cc:Work
         rdf:about="">
        <dc:format>image/svg+xml</dc:format>
        <dc:type
           rdf:resource="http://purl.org/dc/dcmitype/StillImage" />
        <dc:title></dc:title>
      </cc:Work>
    </rdf:RDF>
  </metadata>
  <g
     inkscape:label="Layer 1"
     inkscape:groupmode="layer"
     id="layer1"
     transform="translate(-141.21421,-191.24373)">
    <path
       style="fill:#000000"
       d="m 191.23057,667.38903 c -10.96165,-13.02717 -19.93028,-29.70859 -19.93028,-37.06983 0,-30.8519 103.28835,-135.88919 133.62654,-135.88919 l 11.1214,0 -9.36328,11.28205 c -5.1498,6.20513 -13.41654,11.28206 -18.37057,11.28206 -16.02939,0 -70.03779,51.7838 -75.11765,72.02359 l -4.93409,19.65883 15.82571,26.82256 15.82564,26.82248 -14.37657,14.37665 -14.37657,14.37657 -19.93028,-23.68577 z m 233.46408,9.13229 -13.32351,-14.72232 15.67145,-26.5612 15.67153,-26.56126 -4.93409,-19.65883 c -5.07986,-20.23979 -59.08834,-72.02359 -75.11766,-72.02359 -4.95402,0 -13.22076,-5.07693 -18.37057,-11.28206 l -9.36327,-11.28205 11.12139,0 c 30.61612,0 133.62655,105.10806 133.62655,136.34762 0,7.61336 -9.37314,24.33276 -20.82908,37.15429 l -20.82916,23.31181 -13.32358,-14.72241 z m -176.77032,-71.42157 20.21375,-16.65262 -7.89074,-13.99441 -7.89075,-13.99448 15.67318,-15.67319 c 8.62025,-8.62024 16.84802,-14.1689 18.28393,-12.3303 1.4359,1.83852 10.1294,16.46232 19.31886,32.49735 l 16.70813,29.15456 -12.75429,14.09332 -12.75429,14.09332 -34.56077,-0.27077 -34.56077,-0.27077 20.21376,-16.65254 z m 93.46603,3.10023 -12.75429,-14.09332 16.70812,-29.15456 c 9.18946,-16.03503 17.88296,-30.65883 19.31887,-32.49735 1.4359,-1.8386 9.66368,3.71006 18.28392,12.3303 l 15.67318,15.67319 -7.89074,13.99448 -7.89074,13.99441 20.21375,16.65262 20.21376,16.65254 -34.56077,0.27077 -34.56085,0.27077 -12.75421,-14.09332 z m -188.22778,-17.8725 c 2.92288,-5.17095 13.18835,-20.0604 22.81224,-33.08764 l 17.4981,-23.686 -12.27827,-10.16016 c -6.75306,-5.58816 -18.43683,-23.69871 -25.96392,-40.24573 l -13.68558,-30.08548 -0.16547,-83.44967 -0.16547,-83.44976 15.04274,-13.61345 15.04274,-13.61353 0.0451,70.73841 c 0.0526,84.96546 8.57609,119.30788 37.91395,152.72195 l 22.09252,25.16199 -20.62247,27.02391 c -11.34238,14.86313 -26.70365,35.60157 -34.13612,46.08539 -7.43239,10.48381 -16.93985,19.06148 -21.1276,19.06148 l -7.61411,0 5.31415,-9.40171 z m 321.22403,-9.65977 c -7.43247,-10.48382 -22.79374,-31.22226 -34.13611,-46.08539 l -20.62247,-27.02391 22.09252,-25.16199 c 29.33793,-33.41407 37.86355,-67.75649 37.91395,-152.72195 l 0.0451,-70.73841 15.04275,13.61353 15.04274,13.61345 -0.16547,83.44976 -0.16548,83.44967 -13.68558,30.08548 c -7.52709,16.54702 -19.21086,34.65757 -25.96384,40.24573 l -12.27834,10.16016 17.49809,23.686 c 9.6239,13.02724 19.88936,27.91669 22.81224,33.08764 l 5.31415,9.40171 -7.61411,0 c -4.18775,0 -13.69521,-8.57767 -21.1276,-19.06148 z m -261.79806,-120.71514 -26.24552,-41.02832 0,-81.42334 0,-81.42327 15.04274,-13.61353 15.04274,-13.61353 0,79.29013 0,79.29006 24.69003,36.57657 24.69002,36.5765 11.03649,-1.04479 c 6.07004,-0.57463 17.51479,-3.68833 25.43268,-6.91921 l 14.39628,-5.87442 -5.06549,8.19619 c -2.78607,4.50793 -20.30003,16.71091 -38.92001,27.11777 l -33.85436,18.92159 -26.2456,-41.0284 z m 167.05821,23.61914 c -15.71718,-9.32898 -32.64027,-21.35423 -37.60685,-26.72283 l -9.03016,-9.76108 15.04274,5.70323 c 8.27351,3.13671 20.00918,6.17331 26.07922,6.74802 l 11.03648,1.04479 24.69003,-36.5765 24.69003,-36.57657 0,-79.29006 0,-79.29013 15.04274,13.61353 15.04274,13.61353 0,81.42327 0,81.42334 -26.55593,41.51353 c -14.60575,22.83247 -27.29806,41.19454 -28.20514,40.80463 -0.90708,-0.3896 -14.50872,-8.3418 -30.2259,-17.6707 z m -121.2566,-53.2222 -13.05642,-19.92659 11.87218,-13.11862 11.87218,-13.11862 0,-82.85745 0,-82.85744 15.04274,-13.61353 15.04274,-13.61353 0,93.67859 0,93.67859 -8.70688,8.70689 -8.70689,8.70689 9.96822,12.01087 9.96815,12.01095 -15.11976,15.11984 -15.11984,15.11976 -13.05642,-19.9266 z m 105.20486,4.46183 -13.85789,-15.31291 9.74491,-11.74183 9.74491,-11.74191 -8.70689,-8.70689 -8.70689,-8.70689 0,-93.67859 0,-93.67859 15.04274,13.61353 15.04274,13.61353 0,84.40903 0,84.4091 11.28206,9.36328 c 14.192,11.77831 13.98877,14.85087 -2.39007,36.1377 l -13.33772,17.33427 -13.8579,-15.31283 z m -132.12377,-126.08419 0,-82.73499 15.04274,-13.61353 15.04274,-13.61353 0,82.73507 0,82.73507 -15.04274,13.61353 -15.04274,13.61346 0,-82.73508 z m 171.11117,67.46857 -13.1624,-14.57415 0,-81.9339 0,-81.93389 15.31141,15.3114 15.31148,15.3114 -2.14908,81.19665 -2.14901,81.19658 -13.1624,-14.57409 z"
       id="path3038"
       inkscape:connector-curvature="0" />
  </g>
</svg>
