<?xml version="1.0" encoding="UTF-8" standalone="no"?>
<!-- Created with Inkscape (http://www.inkscape.org/) -->

<svg
   xmlns:dc="http://purl.org/dc/elements/1.1/"
   xmlns:cc="http://creativecommons.org/ns#"
   xmlns:rdf="http://www.w3.org/1999/02/22-rdf-syntax-ns#"
   xmlns:svg="http://www.w3.org/2000/svg"
   xmlns="http://www.w3.org/2000/svg"
   version="1.1"
   width="460.93066"
   height="500"
   id="svg3037">
  <defs
     id="defs3039" />
  <metadata
     id="metadata3042">
    <rdf:RDF>
      <cc:Work
         rdf:about="">
        <dc:format>image/svg+xml</dc:format>
        <dc:type
           rdf:resource="http://purl.org/dc/dcmitype/StillImage" />
        <dc:title></dc:title>
      </cc:Work>
    </rdf:RDF>
  </metadata>
  <g
     transform="translate(-151.88322,-151.43362)"
     id="layer1">
    <path
       d="m 239.34519,632.991 c 3.10319,-10.14345 8.77237,-23.97541 12.59811,-30.73771 l 6.95599,-12.29508 0.24918,14.34426 0.24918,14.34426 12.55229,0 c 30.43172,0 22.34435,-55.29352 -18.74229,-128.14196 l -22.49853,-39.89082 -2.50713,17.58664 c -1.37885,9.67262 -9.13492,23.58475 -17.23557,30.91573 l -14.72845,13.3291 -22.17737,-33.51229 -22.17738,-33.51221 2.54803,-26.09205 2.54795,-26.09197 16.3732,28.68852 16.37312,28.68853 2.54401,-30.73771 c 1.39918,-16.90573 5.51238,-30.7377 9.14049,-30.7377 14.60968,0 51.03312,36.08574 71.25853,70.59787 l 21.45615,36.61196 4.22975,52.69402 4.22975,52.69402 -10.29262,24.8486 -10.29262,24.84861 -24.14812,0 -24.14811,0 5.64229,-18.44262 z m 233.06033,-6.40599 -10.29263,-24.8486 4.22976,-52.69402 4.22983,-52.69402 21.45607,-36.61196 c 20.22541,-34.51213 56.64884,-70.59787 71.25854,-70.59787 3.6281,0 7.7413,13.83197 9.1405,30.7377 l 2.544,30.73771 16.3731,-28.68853 16.3732,-28.68852 2.548,26.09197 2.548,26.09205 -22.1774,33.51221 -22.1774,33.51229 -14.7284,-13.3291 c -8.1007,-7.33098 -15.8567,-21.24311 -17.2356,-30.91573 l -2.5071,-17.58664 -22.49854,39.89082 c -41.08664,72.84844 -49.17402,128.14196 -18.74238,128.14196 l 12.55238,0 0.24918,-14.34426 0.24918,-14.34426 6.95598,12.29508 c 3.82582,6.7623 9.495,20.59426 12.5982,30.73771 l 5.6422,18.44262 -24.1481,0 -24.14812,0 -10.29262,-24.84861 z m -163.82738,14.18795 c 0,-2.75262 9.22131,-18.59311 20.4918,-35.20114 l 20.4918,-30.19631 0,-26.54107 c 0,-14.59762 -5.20442,-30.86033 -11.56532,-36.13943 l -11.56541,-9.59844 -6.05656,9.79984 -6.05664,9.79975 -16.02541,-42.95975 -16.02541,-42.95984 25.45066,-26.25844 25.45065,-26.25836 0,-95.92131 c 0,-52.75664 2.95082,-95.92123 6.55738,-95.92123 3.60656,0 10.98361,4.42623 16.39344,9.83606 l 9.83607,9.83607 0,102.34057 0,102.34058 -17.25222,18.36409 c -16.01639,17.04869 -15.22623,41.81386 1.01386,31.77689 11.10967,-6.86607 24.43508,24.36049 24.43508,57.26065 0,33.33058 -22.4641,82.6182 -48.30812,105.99091 -9.49614,8.58803 -17.26565,13.36246 -17.26565,10.60991 z m 125.30803,-16.01098 c -26.37688,-28.84844 -43.34082,-68.18844 -43.34082,-100.50934 0,-32.96845 13.31476,-64.21386 24.43508,-57.34115 16.24009,10.03697 17.03025,-14.7282 1.01386,-31.77689 l -17.25222,-18.36409 0,-102.34058 0,-102.34057 9.83607,-9.83607 c 5.40983,-5.40983 12.78688,-9.83606 16.39344,-9.83606 3.60656,0 6.55738,43.16459 6.55738,95.92123 l 0,95.92131 25.45065,26.25836 25.45066,26.25844 -16.02541,42.95984 -16.02541,42.95975 -6.05664,-9.79975 -6.05656,-9.79984 -11.56541,9.59844 c -6.3609,5.2791 -11.56532,21.54181 -11.56532,36.13943 l 0,26.54107 20.89696,30.79327 c 23.94385,35.28328 22.72984,45.80017 -2.14631,18.5932 z m -177.15074,-225.83992 -13.70655,-15.14565 20.4795,-19.23951 20.47959,-19.23959 0,-80.53836 0,-80.53844 -15.12303,0 c -8.3177,0 -21.79918,-7.37705 -29.95893,-16.39345 l -14.8359,-16.39344 32.78688,0 32.78689,0 13.56549,14.98967 13.56549,14.98967 0,94.13255 0,94.13254 -23.16639,22.19475 -23.1664,22.19484 -13.70664,-15.14558 z m 213.15205,-8.24574 -21.96508,-22.92663 0,-94.59255 0,-94.59254 14.98967,-13.56549 14.98967,-13.56549 31.36271,0 31.36264,0 -14.8358,16.39344 c -8.15979,9.0164 -21.64127,16.39345 -29.95897,16.39345 l -15.12303,0 0,79.4695 0,79.46951 20.66131,21.56574 20.66123,21.56574 -15.08959,13.65598 -15.08968,13.6559 -21.96508,-22.92656 z"
       id="path3056"
       style="fill:#000000" />
  </g>
</svg>
