<?xml version="1.0" encoding="UTF-8" standalone="no"?>
<svg
   xmlns:dc="http://purl.org/dc/elements/1.1/"
   xmlns:cc="http://creativecommons.org/ns#"
   xmlns:rdf="http://www.w3.org/1999/02/22-rdf-syntax-ns#"
   xmlns:svg="http://www.w3.org/2000/svg"
   xmlns="http://www.w3.org/2000/svg"
   xmlns:sodipodi="http://sodipodi.sourceforge.net/DTD/sodipodi-0.dtd"
   xmlns:inkscape="http://www.inkscape.org/namespaces/inkscape"
   viewBox="0 0 509.54868 537.71002"
   version="1.1"
   id="svg839"
   sodipodi:docname="Ishi_glyph.svg"
   inkscape:version="0.92.4 (5da689c313, 2019-01-14)"
   width="509.54868"
   height="537.71002">
  <metadata
     id="metadata845">
    <rdf:RDF>
      <cc:Work
         rdf:about="">
        <dc:format>image/svg+xml</dc:format>
        <dc:type
           rdf:resource="http://purl.org/dc/dcmitype/StillImage" />
        <dc:title />
      </cc:Work>
    </rdf:RDF>
  </metadata>
  <defs
     id="defs843" />
  <sodipodi:namedview
     pagecolor="#ffffff"
     bordercolor="#666666"
     borderopacity="1"
     objecttolerance="10"
     gridtolerance="10"
     guidetolerance="10"
     inkscape:pageopacity="0"
     inkscape:pageshadow="2"
     inkscape:window-width="1280"
     inkscape:window-height="647"
     id="namedview841"
     showgrid="false"
     inkscape:zoom="0.77391845"
     inkscape:cx="-29.552294"
     inkscape:cy="249.43307"
     inkscape:window-x="0"
     inkscape:window-y="25"
     inkscape:window-maximized="0"
     inkscape:current-layer="svg839"
     inkscape:document-rotation="0" />
  <path
     d="m 254.90229,0 c 5.35,15.81 7.74,32.91 9.18,49.49 0.73,16.03 1.68,31.92 0.87,47.99 -0.63,9.06 -0.48,17.99 -0.78,27.02 -0.73,12.71 -1.09,25.48 -1,38.22 9.85,-3.83 19.03,-9.09 27.64,-15.2 18.09,-13.27 31.99,-30.51 43.54,-49.6 16.77,-27.56 28.56,-57.69 42.27,-86.8 7.46,6.59 9.49,15.86 10.6,25.34 1.55,14.95 -4.29,30.07 -11.43,42.93 -9.61,16.76 -23.64,32.11 -36.38,46.6 -11.26,12.94 -22.63,25.16 -36.26,35.68 -12.14,9.35 -25.25,16.85 -40.31,20.3 -1.02,22.92 0.86,45.56 0.82,68.52 0.54,9.75 0.49,19.47 0.66,29.22 8.02,-12.45 11.39,-27.58 12.51,-42.19 0.98,-8.75 0.11,-17.23 -1.25,-25.89 -1.17,-6.95 -3.82,-13.31 -6.77,-19.65 19.99,-2.78 39.26,-9.27 56.3,-20.19 26.75,-16.65 48.02,-42.57 71.58,-63.54 10,-8.8 20.58,-16.87 32.19,-23.44 -2.84,12.67 -7.82,24.88 -11.08,37.46 -0.7,2.42 -1.26,5.22 -2.69,7.32 -2,2.32 -4.72,4.1 -7.11,6 -8.44,6.58 -16.84,13.22 -25.48,19.54 -27.43,20.38 -56.22,37.93 -88.23,50.19 -0.14,9.99 0.21,19.93 -0.68,29.9 -0.11,8.72 -2.03,17.19 -2.43,25.88 8.71,2.04 18.35,0.8 27.45,0.87 -3.71,-10.6 -9.37,-19.43 -12.02,-30.41 -1.33,-5.01 -1.36,-10.02 -1.32,-15.17 26.48,-11.15 54.7,-22.52 78.28,-38.92 0.74,4.51 1.3,8.82 -0.11,13.28 -2.07,6.56 -5.23,12.7 -7.14,19.34 -13.97,7.28 -28.83,11.92 -43.34,17.85 2.26,3.62 4.27,7.08 7.49,9.97 4.47,4.01 9.75,6.39 15.1,8.96 -2.71,2.5 -5.29,4.91 -8.46,6.82 -6.23,3.77 -13.25,5.6 -20.28,7.2 15.02,0 30.07,-2.03 44.84,-4.64 27.92,-5.24 55.22,-13.35 81.26,-24.74 11.84,-5.24 23.25,-10.77 33.9,-18.19 4.8,-3.1 11.05,-7.31 17.01,-6.61 3.73,0.47 5.5,4.4 5.69,7.76 0.29,4.73 -3.32,8.97 -6.8,11.76 -8.28,6.55 -18.01,10.76 -27.24,15.8 -37.68,20.07 -80.26,31.78 -122.33,38.03 2.98,1.97 5.46,3.21 5.91,7.15 3.1,18.12 8.98,33.19 9.67,51.21 -6.8,-0.54 -12.69,-3.26 -18.93,-5.72 -6.25,26.59 -3.92,55.84 -9.3,82.73 -1.86,9.13 -4.92,17.84 -10.58,25.35 -2.07,-12.47 -2.39,-25.59 -3.32,-38.28 -0.59,-19.33 -0.51,-38.69 -0.08,-58.02 0.32,-7.34 0.88,-14.66 1.14,-22 0.79,-9.13 0.69,-18.06 2.55,-27.08 6.26,3.07 10.91,7.84 16.1,12.32 0.23,-8.84 0.12,-17.7 0.04,-26.55 -10.02,1.26 -20.35,0.86 -30.45,0.9 -9.38,0.07 -18.28,-1.92 -27.43,-3.58 -2.33,3.5 -4.68,6.92 -7.63,9.94 -4.72,4.89 -9.74,8.79 -13.25,14.77 -3.37,5.8 -5.14,12.63 -5.85,19.26 -1.44,16.78 1.76,31.72 3.04,48.27 1,8.15 0.71,16.26 0.59,24.45 5.55,-2.3 10.8,-4.81 15.05,-9.19 9.23,-9.52 13.73,-21.99 16.45,-34.73 3.41,-15.45 3.87,-30.92 3.67,-46.67 -5.62,-0.77 -11.73,-0.83 -17.1,-2.67 -2.76,-0.94 -3.93,-3.38 -5.62,-5.55 3.32,-3.37 6.38,-6.42 11.27,-7.25 12.46,-2.13 25.8,6.95 29.23,18.96 4.3,13.64 4.24,28.72 0.77,42.53 -5.22,21.86 -17.27,42.08 -34.11,56.98 -5.11,4.52 -10.83,8.24 -17.22,10.69 -1.62,0.92 -3.67,0.97 -3.86,3.16 -1.74,9.35 -1.4,19.6 -0.74,29.04 0.71,20.46 3.71,39.56 2.03,60.01 -0.94,9.93 -3.72,19.42 -10.16,27.22 -5.56,-5.24 -8.17,-12.08 -9.67,-19.41 -2.78,-14.91 -1.54,-28.85 -0.68,-43.8 1.32,-15.38 2.32,-30.59 1.68,-46.04 -0.13,-2.97 -0.57,-5.9 -1.03,-8.84 -8.04,-2.37 -14.98,-6.9 -21.31,-12.3 -11.65,-10.24 -20.84,-23.57 -27.28,-37.62 -7.33,-16.92 -11.2,-35.34 -7.63,-53.7 1.31,-6.2 2.95,-13.12 7.44,-17.84 5.74,-6.03 13.89,-10.22 22.39,-9.22 4.34,0.54 9.44,2.88 11.72,6.77 0.25,3.33 -2.11,5.31 -4.99,6.32 -5.42,1.82 -11.53,1.81 -17.16,2.82 0.02,6.56 0.12,13.11 0.65,19.66 0.84,15.91 3.33,33.01 10.19,47.53 5.14,10.64 13.14,19.64 24.9,22.81 -1.87,-22.62 3.83,-42.92 3.78,-65.36 -0.21,-8.77 -1.6,-18.34 -6.09,-26.02 -5.57,-9.77 -15.5,-14.87 -20.82,-24.94 -7.77,1.29 -15.27,3.07 -23.19,3.39 -11.57,0.47 -23.19,0.06 -34.75,-0.23 0.31,8.76 -1.18,17.2 0.23,25.93 5.02,-4.68 9.62,-9.4 16.04,-12.21 2.47,21.03 2.93,41.97 3.84,63.08 -0.06,14.65 0.44,29.41 -0.68,44.02 -0.49,12.79 -1.18,25.7 -3.23,38.34 -3.08,-4.51 -5.8,-9.2 -7.49,-14.43 -5.98,-17.73 -5.93,-35.23 -7.45,-53.57 -0.8,-13.76 -1.57,-26.92 -5.06,-40.34 -6.16,2.83 -12.07,5.47 -18.96,5.88 1.2,-17.8 6.92,-34.32 10.04,-51.74 0.58,-3.45 3.14,-4.64 5.63,-6.63 -34.24,-5.14 -67.560004,-13.43 -99.430004,-27.12 -12.55,-5.25 -24.19,-11.67 -36.23,-17.93 -6.26,-3.38 -13.5000004,-7.37 -17.9400004,-13.04 -3.40000001,-3.88 -3.41000001,-10.79 0.43,-14.33 2.68,-1.68 6.96,-0.95 9.7400004,0.24 7.19,2.99 13.77,8.46 20.66,12.24 13.88,7.69 28.46,14.15 43.38,19.56 27.190004,9.79 55.440004,16.8 84.190004,20.01 6.22,0.65 12.44,1.19 18.7,1.06 -5.94,-2.35 -12.25,-3.93 -17.65,-7.26 -2.99,-1.82 -5.45,-4.1 -8.05,-6.42 5.61,-2.97 11.12,-5.26 15.68,-9.86 3.07,-2.72 4.99,-5.87 6.46,-9.66 -14.5,-5.35 -29.52,-10.43 -43.21,-17.64 -1.46,-6.16 -4.36,-11.69 -6.42,-17.63 -1.7,-4.86 -1.48,-9.82 -0.35,-14.78 20.24,14.4 44.57,24.74 67.39,34.48 3.3,1.61 8.23,2.59 10.69,5.31 0.59,5.98 -0.65,12.27 -2.37,17.99 -2.78,9.32 -7.95,17.49 -10.87,26.76 6.34,0.06 12.68,0.29 19.01,0.27 3.09,0.04 5.91,-0.78 8.75,-1.89 -1.69,-10.02 -2.83,-20.16 -3.19,-30.31 -0.22,-8.22 -0.12,-16.45 -0.16,-24.67 -6.44,-2.58 -12.87,-5.16 -19.14,-8.13 -34.29,-15.7 -65.17,-38.2 -94.58,-61.57 -2.540004,-2.1 -5.980004,-3.97 -7.790004,-6.75 -2.11,-5.29 -3.12,-11 -5.01,-16.39 -2.66,-9.05 -6.28,-18.02 -7.91,-27.32 15.06,7.9 28.530004,19.83 40.960004,31.34 18.21,17.6 34.5,35.68 55.46,50.54 13.3,9.42 28.08,16.66 43.84,20.92 6.48,1.8 13.03,2.83 19.64,3.99 -2.46,4.71 -4.62,9.51 -5.86,14.7 -3.76,14.98 -3.31,31.2 -0.2,46.26 2.04,9.58 4.95,18.72 10.58,26.85 0.28,-11.78 0.06,-23.57 0.41,-35.35 0.83,-20.79 1.03,-41.61 0.78,-62.42 -8.51,-2.28 -16.76,-5.3 -24.39,-9.76 -18.3,-10.44 -34.4,-26.04 -48.18,-41.84 -14.63,-16.9 -30.22,-33.07 -41.23,-52.74 -5.85,-10.91 -10.91,-23.68 -10.55,-36.24 -0.13,-10.66 2.34,-21.13 9.16,-29.53 0.61,-0.08 1.22,-0.16 1.82,-0.24 14.57,31.3 28.13,65.66 47.15,94.41 8.52,12.67 18.4,25.03 30.13,34.89 10.72,9.23 22.83,16.56 36,21.75 0.2,-13.79 -0.88,-27.5 -1.07,-41.27 -1.2,-19.01 -1.06,-37.98 -0.85,-57.01 0.93,-19.87 2.79,-39.3 8.1,-58.54 0.64,-2.05 1.47,-3.98 2.32,-5.95 z"
     fill="#dbad4f"
     id="path833"
     style="fill:#ebc965;fill-opacity:1" />
  <path
     d="m 52.842286,256.75 c 13.23,3.13 23.03,10.5 34.32,17.48 15.280004,9.72 31.600004,20.04 41.110004,35.95 -35.100004,-4.8 -68.890004,-21.39 -95.740004,-44.29 -3.28,-2.5 -5.92,-5.14 -8.01,-8.74 9.39,-2.53 18.88,-2.87 28.32,-0.4 z"
     fill="#dbad4f"
     id="path835"
     style="fill:#ebc965;fill-opacity:1" />
  <path
     d="m 467.90229,255.07 c 5.65,-0.25 10.92,0.7 16.45,1.67 -0.79,1.97 -1.26,3.81 -2.89,5.28 -3.49,3.21 -7.35,6.02 -10.99,9.06 -25.86,20.46 -56.7,34.42 -89.4,39.18 8.36,-14.33 22.35,-23.83 35.96,-32.68 7.14,-4.47 14.16,-9.18 21.45,-13.42 9.05,-5.22 18.92,-8.63 29.42,-9.09 z"
     fill="#dbad4f"
     id="path837"
     style="fill:#ebc965;fill-opacity:1" />
</svg>
