<?xml version="1.0" encoding="UTF-8" standalone="no"?>
<svg
   xmlns:dc="http://purl.org/dc/elements/1.1/"
   xmlns:cc="http://creativecommons.org/ns#"
   xmlns:rdf="http://www.w3.org/1999/02/22-rdf-syntax-ns#"
   xmlns:svg="http://www.w3.org/2000/svg"
   xmlns="http://www.w3.org/2000/svg"
   xmlns:sodipodi="http://sodipodi.sourceforge.net/DTD/sodipodi-0.dtd"
   xmlns:inkscape="http://www.inkscape.org/namespaces/inkscape"
   viewBox="0 0 554.15997 482.95999"
   version="1.1"
   id="svg855"
   sodipodi:docname="Dustbringers_glyph.svg"
   inkscape:version="0.92.4 (5da689c313, 2019-01-14)"
   width="554.15997"
   height="482.95999">
  <metadata
     id="metadata861">
    <rdf:RDF>
      <cc:Work
         rdf:about="">
        <dc:format>image/svg+xml</dc:format>
        <dc:type
           rdf:resource="http://purl.org/dc/dcmitype/StillImage" />
        <dc:title />
      </cc:Work>
    </rdf:RDF>
  </metadata>
  <defs
     id="defs859" />
  <sodipodi:namedview
     pagecolor="#ffffff"
     bordercolor="#666666"
     borderopacity="1"
     objecttolerance="10"
     gridtolerance="10"
     guidetolerance="10"
     inkscape:pageopacity="0"
     inkscape:pageshadow="2"
     inkscape:window-width="1280"
     inkscape:window-height="647"
     id="namedview857"
     showgrid="false"
     inkscape:zoom="0.29443359"
     inkscape:cx="653.75962"
     inkscape:cy="70.174067"
     inkscape:window-x="2000"
     inkscape:window-y="149"
     inkscape:window-maximized="0"
     inkscape:current-layer="svg855"
     inkscape:document-rotation="0" />
  <path
     d="m 118.02,0.01 c 9.71,4.04 19.05,9 28.11,14.33 17.55,10.54 34.46,23.56 47.68,39.29 20.41,23.49 32.87,52.78 38.12,83.31 -7.56,5.1 -13.87,11.81 -17.75,20.13 -5.87,11.8 -6.27,25.01 -3.04,37.64 3.8,14.73 12.45,28.98 18.01,43.28 4.87,12.21 8,25.25 8.97,38.37 1.21,13.32 0.47,26.51 -0.47,39.78 -0.76,7.02 -3.77,13.71 -0.85,20.75 4.02,8.66 13.02,15.51 18,23.68 2.29,3.76 3.9,8.11 2.4,12.49 -3.84,10.26 -14.97,16.94 -19.31,26.29 -3.9,9.73 -3.93,20.23 -1.28,30.28 3.96,15.8 12.14,28.46 17.51,43.48 1.18,3.17 1.72,6.47 2.16,9.81 -9.1,-4.11 -15.34,-10.74 -22.68,-17.22 -13.28,-11.61 -25.21,-25.2 -34.39,-40.3 -3.72,-6.07 -6.68,-12.58 -9.7,-19.06 4.9,-1.05 10.37,-1.71 14.6,-4.55 6.55,-4.22 10.57,-11.42 12.18,-18.9 1.64,-10.13 0.95,-20.34 -4.63,-29.21 -4.16,-7.26 -11.99,-11.74 -20.32,-11.92 -8.18,-0.02 -15.24,2.89 -22.43,6.44 -0.29,-2.35 -0.73,-4.76 -0.68,-7.12 0.35,-4.38 2.73,-8.32 6.23,-10.91 5.22,-4.02 12.3,-6.25 18.38,-8.72 3.19,-15.83 -0.68,-29.96 -5.35,-44.96 -0.99,-0.03 -1.99,-0.06 -2.99,-0.1 -0.89,1.44 -2.16,2.95 -2.5,4.62 -0.22,3.62 1.36,7.59 2.16,11.11 0.87,3.34 0.68,6.54 0.61,9.95 -3.95,-0.45 -7.56,-1.44 -11.24,-2.89 -25.07,-8.94 -49.5,-20.13 -73.43,-31.75 C 89.68,262.24 79.2,257.36 69.24,251.3 50.53,240.03 32.24,227.7 14.84,214.5 9.39,210.14 4,206.67 0,200.82 c 19.01,6.14 37.53,14.02 55.76,22.16 35.11,15.91 69.43,34.57 103.69,52.27 1.91,0.64 3.68,2.17 5.43,0.43 5.71,-4.1 6.05,-11.27 8.93,-17.13 1.55,-3.42 4.73,-5.63 8.48,-5.86 3.3,-0.1 6.73,1.26 9.64,2.72 6.3,3.46 11.69,8.98 14.35,15.73 4.01,9.38 5.06,18.9 5.97,28.96 0.92,9.19 0.31,18.19 0.79,27.42 2.03,-4.4 3.88,-8.81 4.79,-13.6 1.58,-8.57 2.59,-17.11 1.32,-25.8 -1.3,-15.28 -5.42,-30.36 -11.53,-44.4 -6.58,-14.88 -18,-26.91 -24.65,-41.41 -5.1,-11.53 -4.72,-24.25 -0.43,-35.96 4.85,-12.91 13.53,-24.53 23.56,-33.89 C 199.09,98.53 182.54,67.6 159.86,41.57 152.72,33.04 144.74,25.39 136.84,17.58 130.76,11.51 124.05,6.14 118.02,0.01 Z"
     fill="#9f0608"
     id="path833"
     style="fill:#b02d2c;fill-opacity:1" />
  <path
     d="m 436.35,0 c -7.78,7.25 -15.77,14.3 -23.46,21.66 -10.92,10.76 -21.23,22.24 -30.34,34.59 -14.62,19.68 -25.66,42.11 -32.06,65.79 -0.83,3.32 -2.4,7.45 -1.65,10.84 2.02,3.06 5.12,5.42 7.48,8.24 7.52,8.73 13.9,19.26 16.83,30.47 2.59,9.77 2.41,20.17 -1.54,29.56 -4.41,10.77 -12.53,20.6 -18.61,30.54 -7.42,11.83 -12.05,24.95 -15.23,38.49 -4.31,18.93 -5.15,38.93 2.9,57.02 0.28,-5.73 1,-11.36 0.99,-17.1 0,-13.05 1.23,-27.35 6.39,-39.47 3.63,-8.73 11.45,-15.13 20.49,-17.63 4.15,-1.13 8.48,0.49 10.85,4.07 3.59,5.52 3.96,14.21 9.45,18.42 1.97,1.78 3.54,0.78 5.61,-0.1 46.5,-24.1 90.81,-48.62 139.86,-67.51 6.67,-2.46 12.86,-5.27 19.85,-6.74 -6.93,8.07 -15.75,13.95 -24.37,20.43 -14.85,10.68 -30.08,20.94 -45.84,30.25 -9.68,5.8 -19.97,10.76 -30.14,15.64 -23.51,11.6 -47.71,22.51 -72.37,31.42 -4.1,1.65 -8.08,2.98 -12.56,2.96 0.12,-3.46 0.29,-6.85 1.19,-10.21 0.91,-3.61 2.41,-7.63 1.88,-11.38 -0.27,-2.58 -3.02,-3.34 -4.92,-4.49 -3.69,11 -6.74,21.64 -6.98,33.34 -0.01,4.04 0.62,8.19 1.05,12.21 7.69,3.37 18.01,6.01 22.69,13.51 2.9,4.27 2.21,8.6 1.32,13.38 -7.78,-3.99 -15.86,-7.05 -24.78,-6.26 -8.45,0.95 -15.23,6.53 -19.16,13.86 -6.47,12.88 -5.84,29.65 3.24,41.16 5.08,6.18 12.27,8.41 20.02,8.95 -8.77,23.24 -24.99,42.57 -43.16,59.12 -7.69,6.68 -14.06,13.73 -23.61,17.93 0.67,-3.69 1.33,-7.34 2.67,-10.86 4.53,-12.08 11.06,-23.62 15.17,-35.73 1.69,-5.03 3.16,-9.9 3.4,-15.23 0.33,-8.45 0.47,-16.31 -3.79,-23.93 -4.63,-7.5 -12.39,-13.26 -16.75,-20.98 -2.48,-4.24 -2.35,-9.88 0.02,-14.13 5.01,-9.2 15.12,-16.27 19.21,-25.91 2.02,-4.51 1.15,-8.81 0.08,-13.41 -1.22,-5.05 -1.64,-10.19 -1.78,-15.37 -0.24,-8.72 -0.33,-17.46 -0.12,-26.18 0.29,-11.36 2.45,-22.78 5.76,-33.63 4.5,-14.45 11.58,-26.97 17.34,-40.73 3.7,-8.9 6.18,-18.06 6.02,-27.77 0.29,-13.95 -5.85,-27.99 -16.39,-37.16 -1.91,-1.69 -4.12,-3.17 -5.82,-5.07 -0.13,-1.55 0.11,-3.16 0.36,-4.69 4.91,-24.29 14.2,-47.65 28.78,-67.79 C 366.48,44.11 385.59,27.76 406.99,14.94 416.42,9.32 426.19,4.15 436.35,0 Z"
     fill="#9f0608"
     id="path835"
     style="fill:#b02d2c;fill-opacity:1" />
  <path
     d="m 23.13,92.54 c 33.33,17.5 64.11,40.51 92.04,65.67 4.23,3.78 8.19,7.85 12.39,11.66 9.01,8.21 17.26,17.43 25.69,26.32 12.02,13.49 24.04,27.27 34.36,42.12 -10.58,0.54 -20.1,4.57 -30.44,6.26 -7.08,-9.8 -13.36,-20.27 -20.16,-30.26 -7.13,-10.52 -15.6,-20.34 -24.2,-29.69 C 101.46,172.97 89.91,161.49 77.88,150.54 66.59,139.45 54.72,129.1 44.07,117.36 36.8,109.5 29.29,101.32 23.13,92.54 Z"
     fill="#9f0608"
     id="path837"
     style="fill:#b02d2c;fill-opacity:1" />
  <path
     d="m 530.51,93.05 c -8.16,11.61 -18.1,22.1 -28.13,32.1 -8.83,8.85 -17.67,17.67 -26.97,26.02 -11.49,11.26 -23.57,21.66 -34.27,33.72 -8.63,9.18 -16.79,18.75 -23.84,29.21 -7.08,10.08 -13.1,20.82 -20.55,30.57 -10.31,-1.94 -19.82,-5.88 -30.43,-6.35 4.73,-6.87 10.1,-13.34 15.32,-19.86 36.63,-44.44 80.29,-84.51 129.45,-114.69 6.46,-3.84 12.68,-7.76 19.42,-10.72 z"
     fill="#9f0608"
     id="path839"
     style="fill:#b02d2c;fill-opacity:1" />
  <path
     id="path841"
     d="m 288.16984,110.1293 c 10.68,16.34 20.27977,32.23164 25.00977,51.43164 2.2,8.17 2.08008,16.15883 1.83008,24.54883 -0.11,4.28 -1.30063,8.3 -2.89063,12.25 -11.96,-10.64 -23.86961,-21.46891 -34.84961,-33.12891 -6.09,5.85 -11.90875,11.97008 -18.21875,17.58008 -5.81,5.21 -10.95086,10.88867 -17.38086,15.38867 -4.57,-12.68 -3.61023,-25.80867 -0.24023,-38.63867 4.66,-17.37 14.00047,-33.97016 24.23047,-48.66016 -8.63,8.24 -16.80039,16.93844 -24.40039,26.14844 -9.68,11.98 -17.78922,25.60125 -20.19922,41.03125 -0.83,7.12 -0.92133,14.97008 1.38867,21.83008 2.76,8.98 7.6,16.26992 11.5,24.66992 3.98,8.4 6.48992,17.72976 8.66992,26.75976 4.53,19.22 5.15149,39.62047 3.52149,59.23047 -0.44,6.28 -1.89118,12.41992 -2.45117,18.66992 -0.35,2.58 0.70078,4.46907 2.05078,6.53907 9.16,13.6 15.79047,28.61984 21.73046,43.83984 3.30001,8.49 6.1793,17.15953 9.7793,25.51953 2.48,-7.37 5.2293,-14.64844 8.0293,-21.89844 6.35,-16.82 13.81984,-34.10968 24.08984,-48.92968 2.16,-2.87 1.08188,-5.66063 0.67188,-8.89063 -1.97,-10.63 -2.61063,-21.54031 -3.14063,-32.32031 0.25,-21.64 3.32024,-42.93 10.99024,-63.25 4.79,-12.11 12.29015,-21.92 14.91015,-34.25 2.22,-9.03 0.53922,-18.4607 -2.05078,-27.2207 -5.28,-16.34 -15.92039,-29.8293 -27.40039,-42.2793 -5.02,-5.4 -10.51969,-10.2307 -15.17969,-15.9707 z m -19.59961,86.79101 c 0.56,6.4 1.28954,12.76946 1.51954,19.18946 0.68,9.92 1.52945,21.29085 -2.56055,30.63085 -1.21,3.09001 -3.62906,4.7793 -6.28906,6.5293 -1.47,-8.4 -4.39094,-16.26031 -7.71094,-24.07031 -1.29,-3.35 -3.33992,-7.45008 -2.91992,-11.08008 0.59,-2.19 2.38101,-4.1489 3.79101,-5.87891 4.62,-5.20998 9.22992,-10.41031 14.16992,-15.32031 z m 16.64063,0.71875 c 5.1,3.8 9.15961,8.49047 13.34961,13.23047 1.86,2.41 4.76984,5.2 5.33984,8.25 -0.96,5.67 -4.01969,11.07977 -5.92969,16.50977 -2.37998,5.73 -3.76984,11.70164 -5.33984,17.68164 -5.69,-3.54 -7.75031,-9.19008 -8.57031,-15.58008 -1.09,-13.62 0.37039,-26.5818 1.15039,-40.0918 z m -0.12109,69.95117 0.20117,0.16993 c 1.6,1.55 3.07883,3.24015 4.54883,4.91015 -1.01,19.31 2.28937,38.16899 0.85937,57.45899 -0.48,6.3 -2.75976,12.04101 -5.75976,17.54101 -0.70001,-4.2 -1.03969,-8.31031 -0.92969,-12.57031 0.3,-22.66 -0.91992,-44.91977 1.08008,-67.50977 z m -16.49024,0.33008 c 1.73,5.99 1.14133,12.89969 1.36133,19.17969 0.08,20.36 -0.0102,40.73008 -0.24024,61.08008 -2.36999,-4.02 -4.5214,-8.00086 -5.4414,-12.63086 -2.11,-10.17 -1.74852,-21.14945 -0.72852,-31.43945 0.63,-10.83 1.43868,-21.58922 1.13868,-32.44922 1.28998,-1.26 2.58015,-2.52024 3.91015,-3.74024 z"
     style="fill:#b02d2c;fill-opacity:1" />
  <path
     d="m 45.87,272.87 c 8.4,3.08 16.61,6.69 24.9,10.08 26.81,11.35 53.87,23.58 78.18,39.71 -0.26,6.91 -0.57,13.59 0.87,20.41 1.74,9.67 5.88,17.6 9.24,26.69 -8.73,-2.93 -17.27,-6.64 -22.64,-14.54 -4.72,-6.91 -5.32,-14.48 -5.62,-22.59 C 110.31,318.66 84.68,311.64 64.87,296.6 56.48,290.39 49.53,282.35 45.26,272.77 l 0.37,0.06 z"
     fill="#9f0608"
     id="path851"
     style="fill:#b02d2c;fill-opacity:1" />
  <path
     d="m 508.82,272.47 c -1.5,3.4 -3.09,6.72 -5.31,9.72 -8.49,11.47 -19.83,19.18 -32.39,25.62 -15.84,8.36 -33.39,14.98 -48.16,25.06 0.05,7.81 -0.48,15.14 -4.91,21.81 -5.35,8.28 -13.81,11.87 -22.7,15.11 2.07,-7.36 5.83,-14 7.72,-21.43 2.49,-8.54 2.06,-16.71 1.83,-25.47 31.51,-21.03 68.94,-36.1 103.92,-50.42 z"
     fill="#9f0608"
     id="path853"
     style="fill:#b02d2c;fill-opacity:1" />
</svg>
