<?xml version="1.0" encoding="UTF-8" standalone="no"?>
<svg
   xmlns:dc="http://purl.org/dc/elements/1.1/"
   xmlns:cc="http://creativecommons.org/ns#"
   xmlns:rdf="http://www.w3.org/1999/02/22-rdf-syntax-ns#"
   xmlns:svg="http://www.w3.org/2000/svg"
   xmlns="http://www.w3.org/2000/svg"
   xmlns:sodipodi="http://sodipodi.sourceforge.net/DTD/sodipodi-0.dtd"
   xmlns:inkscape="http://www.inkscape.org/namespaces/inkscape"
   viewBox="0 0 530.23181 478.95762"
   version="1.1"
   id="svg2079"
   sodipodi:docname="Edgedancers_glyph.svg"
   width="530.23181"
   height="478.95761"
   inkscape:version="0.92.4 (5da689c313, 2019-01-14)">
  <metadata
     id="metadata2085">
    <rdf:RDF>
      <cc:Work
         rdf:about="">
        <dc:format>image/svg+xml</dc:format>
        <dc:type
           rdf:resource="http://purl.org/dc/dcmitype/StillImage" />
        <dc:title />
      </cc:Work>
    </rdf:RDF>
  </metadata>
  <defs
     id="defs2083" />
  <sodipodi:namedview
     pagecolor="#ffffff"
     bordercolor="#666666"
     borderopacity="1"
     objecttolerance="10"
     gridtolerance="10"
     guidetolerance="10"
     inkscape:pageopacity="0"
     inkscape:pageshadow="2"
     inkscape:window-width="1280"
     inkscape:window-height="646"
     id="namedview2081"
     showgrid="false"
     inkscape:zoom="0.64453125"
     inkscape:cx="-25.071979"
     inkscape:cy="345.27213"
     inkscape:window-x="1944"
     inkscape:window-y="104"
     inkscape:window-maximized="0"
     inkscape:current-layer="svg2079" />
  <path
     id="path839"
     style="fill:#fcf3ee;fill-opacity:1;stroke:#000000;stroke-width:0.75;stroke-miterlimit:4;stroke-dasharray:none;stroke-opacity:1"
     d="m 80.159304,0.24263404 c 0.24,1.01000246 0.47949,2.02076246 0.729495,3.03076496 3.289995,11.749995 7.950427,23.169862 12.190425,34.60986 6.39,16.880002 11.709206,34.31061 17.679206,51.370605 7.84,22.669996 16.41969,45.468826 26.92968,67.048826 7.10001,14.15 15.25071,28.40101 25.47071,40.54102 3.94,4.77999 8.07016,9.2596 13.16015,12.84961 5.88,4.29 12.91025,7.74953 17.26026,13.76953 2.35,3.13 3.00927,6.61103 4.00928,10.31103 -17.64,-5.4 -34.96942,-12.10994 -51.89942,-19.43994 -46.100001,-20.08 -90.290901,-47.23034 -124.420896,-84.59033 -4.520002,-4.72 -7.650097,-10.30067 -11.6000999,-15.43067 -2.46,-3.27 -5.6592975,-5.54978 -9.02929503,-7.77978 7.83000003,27.45 24.39970493,52.28063 45.44970793,71.39063 16.129995,14.82 34.590405,26.70007 53.670405,37.33007 28.859998,15.89 58.410218,28.60916 88.220218,43.63916 -7.05,16.54 -13.64013,35.09984 -26.14014,48.33985 -3.21,3.16 -6.97986,7.06042 -11.35986,8.44042 -1.11,-0.54999 -2.11986,-1.27002 -3.10986,-2.02002 -9.25,-7.52999 -18.15066,-14.95031 -25.93067,-24.07031 -2.02999,-2.5 -3.58051,-5.1792 -5.2705,-7.92919 12.45999,-4.05 23.74121,-4.72989 34.49121,-11.12989 -38.13,-24.79 -73.319886,-52.78028 -107.879886,-82.28027 -7.8,-6.51 -15.421215,-13.24023 -23.24121,-19.74024 14.169998,31.96 38.950605,58.42057 66.370605,79.58057 7.999995,6.48 16.659801,12.01004 24.799801,18.29004 -5.29,2.36 -10.849531,4.15 -16.019528,6.75 -3.230003,1.55 -5.35035,3.99996 -7.860353,6.45996 6.27,9.47 14.210311,17.39953 22.570311,25.01953 13.81,12.16 28.52919,22.35938 41.90919,35.10938 15.69999,14.98999 31.79066,30.97029 43.93065,49.05029 2.83001,4.36 6.11979,7.98037 10.02979,11.38037 -0.51,-8.51 -1.65064,-16.87969 -1.41064,-25.42969 0.23,-21.33 5.52042,-42.34007 15.19043,-61.33007 0.64999,10.24999 1.64984,20.41894 4.08984,30.41894 3.22,14.42 9.00029,27.7008 13.80029,41.5708 -7.15999,-2.78 -10.66036,-8.63064 -14.38036,-14.91064 -3.10001,-5.41001 -4.95016,-11.00004 -7.16016,-16.79004 -4.68,12.84 -4.11928,25.67025 -2.50928,39.01025 0.55,3.84 0.74027,7.99016 2.03027,11.66015 1.86,3.47001 5.24975,6.05055 7.48975,9.31056 3.61,5.08 7,10.31021 10.5,15.47021 10.52,16.06 18.30005,32.92966 27.06006,49.65967 -2.23,-22.14 -8.33022,-44.62975 -19.97022,-63.73975 -3.46999,-5.9 -7.57978,-11.26105 -11.52978,-16.83105 4.64,2.1 9.39035,4.04047 13.86035,6.48047 2.65,1.43 4.60902,3.21047 6.24903,5.73047 5.46,8.41 9.61052,18.459 16.29052,25.979 1.65,-1.11 2.77012,-2.64002 3.87011,-4.27002 3.92001,-5.92 7.28049,-12.04972 10.7505,-18.21973 1.98,-3.42 3.85962,-6.56964 7.36962,-8.63964 4.71,-2.75001 9.88008,-4.7603 14.83008,-7.0503 -3.75,5.36 -7.61996,10.33062 -10.95996,15.89063 -11.79,19.17 -18.28031,41.89996 -20.32031,64.20996 9.11,-17.18 16.94986,-34.36965 27.85986,-50.63965 4.8,-6.92 8.95053,-14.08045 14.79053,-20.21045 3.62,-3.77 3.34939,-8.91004 4.12939,-13.79004 1.74,-13.4 2.63072,-26.9007 -2.50927,-39.7207 -3.42,9.61 -6.95004,18.5298 -13.79004,26.2998 -2.13,2.43 -4.78127,3.69071 -7.55127,5.22071 1.06,-3.45 2.25129,-6.82067 3.57129,-10.18067 6.09,-15.92 11.26939,-31.52008 13.12939,-48.58008 0.46,-4.38 0.72959,-8.7792 1.07959,-13.17919 10.32,19.62 15.43012,42.0099 15.12012,64.1499 0.01,7.58 -0.68006,15.06935 -1.56006,22.58935 3.87,-3.3 7.26004,-6.85988 10.04005,-11.12988 9.93997,-14.88 22.0209,-27.72988 34.6509,-40.37989 8.53995,-8.25999 17.1501,-16.32894 26.37007,-23.66894 17.1,-13.77 35.32995,-27.01027 47.6499,-45.53027 -2.40997,-2.37 -4.6299,-4.70004 -7.66987,-6.29004 -5.24003,-2.71 -10.94115,-4.56062 -16.37115,-6.89063 3.94005,-2.97 7.92975,-5.82914 11.9898,-8.61914 14.22,-10.18999 27.9603,-21.31994 40.34032,-33.68994 15.72998,-15.98 29.8101,-34.79084 38.89013,-55.36084 -5.66003,4.4 -10.89923,9.24959 -16.40918,13.82959 -31.04002,26.48 -63.23115,53.01055 -96.91117,76.06055 -5.83995,4.05 -11.86913,7.80975 -17.61908,11.98974 10.80998,6.46 21.97988,6.88014 34.43993,11.14014 -7.96005,13.76 -22.37993,24.65975 -34.66995,34.48975 -5.22998,-3.58 -10.11083,-7.53977 -14.1108,-12.50977 -10.57005,-12.91 -16.52985,-29.58957 -23.06985,-44.80957 32.73,-16.57 67.87102,-31.40976 99.33105,-50.00976 17.49997,-10.53 33.93885,-22.01008 48.35887,-36.58008 18.36,-18.14 32.48993,-40.89072 39.68993,-65.74073 -3.96,2.48001 -7.48988,5.32973 -10.1499,9.21973 -3.88995,5.47 -7.47968,11.05133 -12.21968,15.86133 -23.68005,25.25 -51.40987,45.55891 -81.56985,62.3789 -29.51002,16.39001 -60.90007,29.60102 -93.06007,39.79102 1.06005,-4.05 1.87965,-7.86013 4.65967,-11.14014 6.27,-7.77 16.16963,-11.21064 23.3496,-18.66064 12.79005,-13.11 22.791,-29.73953 31.02105,-46.01953 15.57998,-31.24 26.99925,-65.879998 37.98923,-98.999998 6.26002,-19.68 15.1509,-38.669865 20.4609,-58.60986046 -2.88,3.21999746 -5.5506,6.57014996 -7.93065,10.16015246 -30.52995,43.970003 -46.09035,99.319606 -75.13035,144.849606 -11.40998,18.05 -26.04975,35.31967 -43.77979,47.40967 -3.6,-10.17 -7.33998,-20.11939 -6.22998,-31.1294 0.31,-4.36999 1.6598,-8.38046 4.54981,-11.73046 6.37999,-7.57 13.89021,-14.1193 20.20018,-21.7793 12.87998,-15.6 24.1602,-32.4608 31.68015,-51.320801 5.28,-13.53 9.0507,-27.87939 10.18073,-42.379395 -8.50005,9.070005 -11.48115,19.578893 -17.18115,30.35889 -8.22,15.72 -17.53013,31.440616 -28.8501,45.140626 -9.80003,11.58 -21.2095,22.14 -34.7095,29.25 -2.05001,1.11999 -4.31961,2.15968 -6.09962,3.67968 -0.66,6.1 0.3,12.47008 0.75,18.58008 2.51001,26.36 8.3394,52.3609 17.6294,77.1709 -2.32,2.51 -4.67939,4.93982 -7.1294,7.31982 -1.60999,-6.91999 -2.7904,-13.90988 -4.1704,-20.87988 -4.53,-22.74 -8.73026,-45.19132 -10.51026,-68.36133 -1.73,-16.32 -3.09025,-33.86961 -13.51025,-47.34961 -2.53,18.62001 -0.96909,38.62055 0.44091,57.31055 0.95001,9.02 1.53995,18.07 2.93995,27 1.23,7.94 2.66916,16.71949 1.63916,24.72949 -1.17,7.84 -6.02865,14.94094 -10.61865,21.21094 -3.38001,4.5 -6.44114,9.14861 -9.16113,14.07861 -5.48001,-10.83 -14.55927,-19.21927 -18.48927,-30.25927 -3.42,-9.51 -0.89958,-20.08957 0.42042,-29.80957 2.31999,-16.87001 3.61923,-33.92995 4.46923,-50.93995 0.33,-11.04 0.57074,-22.38029 -1.23925,-33.30029 -4.40001,6.14 -7.441,12.68002 -9.271,20.02002 -3.78,15.07 -4.08037,31.44965 -6.13037,46.88965 -3.13,23.27 -8.05881,46.43951 -12.52881,69.49951 -2.55,-2.22 -4.93016,-4.51908 -7.16016,-7.05908 11.27001,-30.93 17.68924,-63.17961 18.71924,-96.09961 -15.84,-7.36 -29.42986,-18.56137 -40.60986,-31.90137 -11.4,-13.54999 -20.71002,-29.418783 -29.02002,-45.008786 -5.92,-10.999995 -8.98976,-22.141035 -17.75977,-31.31103 2.59001,28.08 13.27959,54.629783 29.5796,77.529776 6.21,8.55 12.6807,17.34051 20.22069,24.77051 4.64001,4.67 9.33015,9.41035 13.39014,14.61036 3.28,4.14 3.55944,9.30011 3.66944,14.37011 0.06,9.39 -3.22036,18.3398 -6.36035,27.04981 -23.09001,-15.80001 -39.98981,-39.16016 -53.29981,-63.41016 -12.14,-21.87 -22.14996,-45.610058 -32.70996,-68.310061 -9.77,-21.179992 -20.42948,-42.939255 -33.959478,-61.989255 -2.13,-3.06 -4.43961,-5.9812875 -6.849608,-8.82128996 z M 291.26819,257.67281 c 1.85,3.85 3.60059,7.66039 4.35059,11.90039 2.19,10.85 0.30951,21.92012 -0.25049,33.12012 -1.51,25.25999 -3.47992,49.53982 -12.91992,73.31982 1.57,-9.8 3.78033,-19.30051 4.34033,-29.27051 0.57,-13.12999 0.57986,-26.28893 -3.64014,-38.89892 -0.97999,-2.16 -1.69998,-5.36042 -4.72998,-4.92041 -4.18,0.83 -7.43054,5.84943 -10.06054,8.91943 1.48,-9.45 4.05045,-18.66912 7.46045,-27.59912 3.73999,-9.65001 8.5597,-18.7808 15.4497,-26.5708 z m -52.25976,0.0498 c 3.81999,4.45001 7.21037,9.18113 9.88037,14.41114 6.33,12.27 10.61966,25.64023 12.90967,39.24023 -2.54001,-2.68 -5.07956,-6.00086 -8.28956,-7.88086 -1.87,-1.07 -4.08957,-0.76043 -5.05957,1.30957 -3.42999,6.9 -4.32084,15.32137 -5.11083,22.90137 -1.51001,16.17 1.56042,31.03985 3.94042,46.83984 -9.21,-23.03 -11.13982,-49.3008 -12.56982,-73.8208 -0.53,-10.24 -2.1,-21.61018 0,-31.68018 0.77,-4.05 2.47931,-7.66031 4.29932,-11.32031 z m -34.1294,11.77002 c 1.28,1.98 2.52027,3.97012 3.53027,6.12012 3.52,7.16 3.3893,16.22008 1.5293,23.83008 -3.49,13.56 -11.54921,26.54068 -15.94922,39.95068 -1.5,4.69 -2.35099,9.39949 -3.27099,14.22949 -11.56,-6.99999 -20.40967,-17.88928 -29.40967,-28.00927 4.96,-2.91 9.66969,-6.0202 13.42969,-10.4502 12.2,-13.46 17.53062,-33.06089 30.14062,-45.6709 z m 120.99023,0.49073 c 3.19001,2.82999 5.56965,6.75052 7.88966,10.29052 7.53,11.84 13.1694,25.98936 22.87942,36.08936 3.57001,3.9 7.90088,6.73035 12.44086,9.36035 -9.73995,10.13 -17.33003,20.74942 -29.83005,27.89941 -0.54998,-3.62 -1.07003,-7.29984 -2.02005,-10.83984 -4.30995,-15.75 -14.85999,-31.07008 -17.76999,-47.08008 -1.61,-8.2 -0.11106,-16.5292 4.16895,-23.6792 0.65,-0.89 1.06121,-1.81052 2.2412,-2.04052 z m -53.38037,50.45947 c 1.56,3.05 3.0603,5.96117 3.3003,9.45117 0.9,10.51 -0.26988,21.37863 -1.37988,31.84863 -2.06001,16.18001 -5.04004,32.33082 -9.29004,48.09083 -4.7,-17.04001 -7.68076,-34.59061 -9.78076,-52.12061 -0.79001,-9.84 -2.00003,-20.27006 -0.52002,-30.06006 0.27,-2.79 1.6908,-4.85979 3.3208,-7.02979 2.69,2.12001 4.95003,4.42086 7.04003,7.13086 2.01,-2.89 4.55958,-5.15103 7.30957,-7.31103 z"
     inkscape:connector-curvature="0" />
</svg>
