<?xml version="1.0" encoding="UTF-8" standalone="no"?>
<svg
   xmlns:dc="http://purl.org/dc/elements/1.1/"
   xmlns:cc="http://creativecommons.org/ns#"
   xmlns:rdf="http://www.w3.org/1999/02/22-rdf-syntax-ns#"
   xmlns:svg="http://www.w3.org/2000/svg"
   xmlns="http://www.w3.org/2000/svg"
   xmlns:sodipodi="http://sodipodi.sourceforge.net/DTD/sodipodi-0.dtd"
   xmlns:inkscape="http://www.inkscape.org/namespaces/inkscape"
   viewBox="0 0 519.44592 572.58008"
   version="1.1"
   id="svg855"
   sodipodi:docname="Beteb_glyph.svg"
   inkscape:version="0.92.4 (5da689c313, 2019-01-14)"
   width="519.44592"
   height="572.58008">
  <metadata
     id="metadata861">
    <rdf:RDF>
      <cc:Work
         rdf:about="">
        <dc:format>image/svg+xml</dc:format>
        <dc:type
           rdf:resource="http://purl.org/dc/dcmitype/StillImage" />
        <dc:title />
      </cc:Work>
    </rdf:RDF>
  </metadata>
  <defs
     id="defs859" />
  <sodipodi:namedview
     pagecolor="#ffffff"
     bordercolor="#666666"
     borderopacity="1"
     objecttolerance="10"
     gridtolerance="10"
     guidetolerance="10"
     inkscape:pageopacity="0"
     inkscape:pageshadow="2"
     inkscape:window-width="1280"
     inkscape:window-height="647"
     id="namedview857"
     showgrid="false"
     inkscape:zoom="1.1494894"
     inkscape:cx="-162.29795"
     inkscape:cy="273.3778"
     inkscape:window-x="0"
     inkscape:window-y="25"
     inkscape:window-maximized="0"
     inkscape:current-layer="svg855"
     inkscape:document-rotation="0" />
  <path
     id="path833"
     d="m 259.81381,0 c -4.02,14.580001 -5.28922,30.070081 -6.69922,45.080081 -0.99,9.73 -0.52063,19.4807 -1.39063,29.2207 -0.48,10.98 -0.089,22.01 -0.20898,32.999999 -0.14,6.36 0.48898,12.65023 0.70898,18.99023 0.24,26.02 0.69953,51.97977 0.26954,78.00977 -0.19,7.11 0.0702,14.11945 -1.00977,21.18945 -14.03,-3.28 -23.26016,-13.86953 -34.16016,-22.51953 0.2,-9.96 -0.16008,-19.80992 -1.58007,-29.66992 -1.75,-15.74 -5.55852,-32.29977 -4.22852,-48.00977 0.67,-7.11 2.06977,-14.69086 5.25976,-21.13085 5.44,-11.130009 16.92032,-19.930079 21.57032,-31.330079 2.08,-4.75 2.60883,-9.74867 2.79883,-14.88868 -8.31,2.46001 -13.61969,8.24954 -19.17969,14.51954 -10.32,12.62 -17.38063,29.389759 -28.64063,41.259759 -4.77,5.16 -10.58898,8.87977 -16.95898,11.75977 0.61,8.3 1.63992,16.54961 2.16992,24.84961 0.42,6.81 1.81906,13.48125 2.28906,20.28125 -9.07,-2.41 -16.2,-8.10985 -22.25,-15.08985 -7.84,-8.77 -14.62898,-17.09047 -26.45898,-20.48047 -2.56,12.18 1.74906,24.89024 10.28906,33.74024 11.55,12.23 27.00039,18.85984 39.65039,30.33984 2.51,2.42 5.07024,4.25914 4.99024,8.11914 -0.09,11.63 1.31023,23.08032 2.99023,34.57032 1.02,7.14 2.63898,14.08961 2.70899,21.34961 -10.02,-4.16 -19.06907,-10.4386 -26.28907,-18.5586 -11.06,-12.3 -18.97984,-28.22125 -25.58984,-43.28125 -2.68,-5.79 -4.8907,-11.72984 -7.9707,-17.33984 -4.87,11.81 -4.36938,26.01031 -1.85938,38.32031 4.75,20.34 17.65055,38.93047 32.56055,53.23047 6.16,5.45 13.27843,11.25039 21.14844,13.90039 3.99,1.56 8.99031,2.72992 11.57031,6.41992 4.37,6.17 4.45031,13.20922 3.57031,20.44922 -1.05,7.82 -1.28047,15.4907 0.51953,23.2207 -9.42,-3.84 -16.09867,-10.53156 -22.88867,-17.85156 -6.97,-7.68 -14.40055,-15.92953 -22.81055,-22.01953 -5.31,-3.86 -11.26125,-6.50938 -17.53125,-8.35938 0.44,5.04 0.94078,9.84039 3.30078,14.40039 4.38,8.77001 11.15086,14.38844 18.38086,20.64844 15.69,13.72 26.00891,31.22071 38.37891,47.72071 2.21,3.05 4.93109,5.81101 6.87109,9.04101 1.33,1.92 -0.23015,4.46852 -1.16015,6.22852 -3.68,6.05 -8.09094,10.92117 -9.46094,18.20117 l 1.08984,1.38867 c 5.64,-1.41 11.04094,-4.66945 14.46094,-9.43945 5.14,-6.98 8.44867,-15.14977 13.13867,-22.50977 8.8,3.49 15.03,11.67008 19.25,19.83008 6.7,13.94 8.26094,30.24 8.96094,45.5 0.28,16.66 0.16062,33.36023 -0.85938,49.99023 -0.03,12.64 -0.54054,25.4493 0.68946,38.0293 1.03,14.13 3.11008,29.48977 9.58008,42.25977 6.3,-13.83 8.46023,-28.2686 9.49023,-43.3086 0.74,-20.21 0.0302,-40.7607 -0.0898,-60.9707 -0.02,-6.71 -0.88985,-13.28 -0.33985,-20 0.56,-7.4 0.1393,-14.65953 1.2793,-22.01953 1.65,-12.79 4.29016,-25.21031 11.66016,-36.07031 3.86,-5.67 9.04898,-9.88039 14.70898,-13.65039 6.92,8.78 9.16156,18.91953 16.85156,26.26953 3.51,3.45 7.84875,5.03062 12.46875,6.39062 -0.56,-3.74 -1.23961,-7.30929 -3.34961,-10.5293 -2.99,-4.69999 -6.19039,-9.18156 -8.40039,-14.35156 14.97,-17.97 25.23016,-36.79969 41.41016,-53.42968 7.92,-7.67 18.91008,-15.37985 23.58008,-25.58985 2.26,-4.4 2.59062,-9.05015 2.64062,-13.91015 -8.96,2.59999 -17.12086,7.41031 -23.88086,13.82031 -5.61,5.37 -10.93961,11.07039 -16.34961,16.65039 -6.74,7.05 -13.12054,13.78062 -22.31054,17.64062 1.1,-6.07 1.71133,-12.09023 0.86132,-18.24023 -0.76,-7.27 -2.11039,-16.60977 1.59961,-23.25977 2.4,-4.53 6.54922,-6.4414 11.19922,-7.9414 10.69,-3.24 19.97133,-11.32852 27.61133,-19.22852 12.34,-13 22.76922,-29.15031 27.44922,-46.57031 2.94,-13.1 3.83055,-27.70985 -1.43945,-40.33985 -4.24,8.25 -7.50102,16.97985 -11.54102,25.33985 -6.65,13.94 -14.06867,27.89039 -25.38867,38.65039 -6.56,6.75 -14.53078,11.89906 -23.30078,15.28906 2.05,-16.56 5.49984,-32.93992 6.08984,-49.91992 0.13,-3.02 -0.2107,-6.31977 0.5293,-9.25977 1.29,-2.38 3.69117,-4.27078 5.70117,-6.05078 11.91,-10.31 27.27031,-17.57875 38.07031,-28.96875 4.3,-4.45 7.81985,-9.51 9.58985,-15.5 1.93,-6 1.50851,-12.08125 1.22851,-18.28125 -3.61,1.08 -7.08828,2.21133 -10.23828,4.36133 -10.69,7.02 -17.32992,19.47938 -28.41992,26.60938 -3.25,2.2 -6.87133,3.22953 -10.61133,4.26953 3.02,-14.85 2.75984,-29.92938 5.08985,-44.85938 -5.2,-2.62 -10.18016,-5.18953 -14.41016,-9.26953 -12.27,-11.03 -19.50883,-28.291409 -29.54883,-41.441399 -5.4,-7.20001 -12.23969,-14.04001 -20.92969,-17 -0.13,7.17999 1.39844,13.70007 5.14844,19.83007 5.16,8.62 13.70125,16.22086 18.53125,25.380859 3.77,6.98 5.12945,15.37946 5.93945,23.18946 0.77,7.54 -0.25023,14.51023 -0.99023,21.99023 -1.6,14.82 -4.95977,30.23 -4.75977,45 -0.03,2.98 0.17993,6.0893 -0.33007,9.0293 -1.77,2.93 -5.16969,5.00078 -7.67969,7.30078 -8.16,6.97 -15.68977,13.46055 -26.50977,15.81054 -0.5,-8.03999 -0.51031,-16.09085 -1.07031,-24.13085 -0.26,-13 -0.0496,-26.00977 -0.0996,-39.00977 -0.1,-8.02 0.77992,-15.98 0.66992,-24 0.23,-26.02 0.70047,-51.979769 -0.0195,-78.009769 -1.02,-20.33 -2.86109,-40.39101 -7.37109,-60.291011 z m 36.21093,232.56055 c 4.18002,7.14 6.32985,15.50023 6.58985,23.74023 0.56,12.97 -2.57117,26.37055 -9.20117,37.56055 -4.3,7.02 -9.89938,13.07914 -18.35938,14.61914 -2.57,-11.11 -1.74984,-21.90969 -1.58984,-33.17969 0.06,-11.02 0.89055,-21.52906 -2.18946,-32.28906 8.51,-3.03 16.87001,-5.94117 24.75,-10.45117 z m -72.9707,0.54101 c 4.98,1.45 9.22985,4.24852 14.08985,5.97852 3.54,1.28 7.11015,2.44093 10.66015,3.71093 -0.64,4.51 -1.52976,8.98977 -2.00976,13.50977 -1.13,11.99 0.77922,23.14977 0.44922,35.00977 -0.06,5.8 -0.9486,11.49945 -2.0586,17.18945 -4.43,-1.08 -8.16039,-2.80984 -11.40039,-6.08984 -8.65,-8.26001 -13.43078,-20.90977 -15.30078,-32.50977 -1.87,-12.34 -0.86969,-25.83883 5.57031,-36.79883 z m 71.64063,81.08008 c 3.05,8.41 4.9489,17.12891 4.6289,26.12891 -0.2,5.64 -1.54992,11.89085 -5.16992,16.38085 -2.9,3.58002 -7.62937,4.50891 -11.60937,6.37891 -2.75,1.23 -4.69922,3.14985 -6.94922,5.08985 -1.14,-3.24002 -2.30164,-6.35008 -2.43164,-9.83008 -0.32,-7.31 0.24992,-14.7493 0.91992,-22.0293 0.4,-4.11 -0.0502,-8.15094 -0.66016,-12.21094 7.45,-2.62 13.96149,-6.9982 21.27149,-9.9082 z m -70.06055,0.0195 c 7.29,2.7 13.5807,7.24953 20.9707,9.76953 -0.38,6.45 -0.50054,12.89008 0.18946,19.33008 0.8,8.54 1.46023,16.65 -2.00977,24.75 -2.18,-1.77 -4.15117,-3.61008 -6.70117,-4.83008 -3.25,-1.62 -7.40875,-2.57086 -10.21875,-4.88086 -3.16,-2.72 -5.09969,-6.98 -5.92969,-11 -1.86,-11.29 -0.20078,-22.46867 3.69922,-33.13867 z"
     style="fill:#125064;fill-opacity:1" />
  <path
     d="m 21.884124,158.21078 c 1.1,5.79 2.6,11.31 6.07,16.17 7.55,10.96 20.56,18.43 29.29,27.53 7.36,7.61 10.47,17.95 10.18,28.39 0.04,8.37 -3.6,16.65 -7.82,23.72 -7.28,11.61 -18.3,21.39 -26.45,32.56 -0.78,1.14 -1.46,2.32 -1.9,3.64 0.99,3.95 3.08,7.55 4.22,11.48 3.99,13.84 4.73,28.54 3.55,42.85 -0.66,7.6 -2.73,14.79 -5.6,21.83 -0.08,-5.48 0.11,-10.64 -1,-16.05 -1.46,-7.15 -4.88,-13.45 -9.34,-19.15 -7.64,-10.12 -18.9599999,-19.24 -22.24999992,-31.82 -1.45,-7.7 -1.47,-16.97 3.74000002,-23.37 7.0399999,-9.34 19.5799999,-14.8 27.6099999,-23.36 3.99,-4.38 6.78,-10.36 6.15,-16.39 -0.33,-3.22 -1.85,-6.01 -3.92,-8.43 -5.42,-6.37 -12.76,-10.19 -18.69,-16.36 -5.31,-4.97 -7.2699999,-13.12 -7.0899999,-20.15 0.61,-12.15 7.5799999,-22.71 13.2499999,-33.09 z"
     fill="#0a4a6e"
     id="path835"
     style="fill:#125064;fill-opacity:1" />
  <path
     d="m 497.69412,158.50078 c 4.64,8.46 10.3,17.82 12.3,27.32 1.37,7.42 0.61,16.42 -3.79,22.78 -6.06,8.11 -17.07,12.84 -22.83,21.16 -2.69,3.76 -2.65,8.4 -1.79,12.75 1.38,5.81 5.36,10.47 9.88,14.17 5.9,4.75 12.48,8.8 18.25,13.74 4.67,4.06 8.58,9.56 9.38,15.83 0.79,6.15 0.38,13.11 -2.58,18.68 -7.24,14.35 -20.61,22.64 -27.25,37.87 -3.47,7.44 -2.68,14.49 -3.73,22.39 -4.51,-10.18 -5.52,-20.88 -5.85,-31.89 0.37,-15.05 2.01,-29.48 8.84,-43.12 -8.37,-13.23 -21.18,-23.6 -29.33,-37.21 -3.98,-6.71 -6.96,-13.74 -7.06,-21.67 -0.39,-8.72 1.1,-17.3 6.1,-24.61 8.53,-11.72 22.63,-18.93 31.36,-29.78 4.45,-5.39 6.48,-11.73 8.1,-18.41 z"
     fill="#0a4a6e"
     id="path837"
     style="fill:#125064;fill-opacity:1" />
  <path
     d="m 107.36412,192.31078 c 8.23,12.05 11.94,27.57 12.99,41.96 0.86,14.07 -0.78,30.15 -7.92,42.59 -2.78,5.17 -6.9,8.99 -11.32,12.74 13.7,10.71 25.58,23.61 35.38,37.95 18.43,27.11 29.34,59.43 34.16,91.69 -3.73,-3.9 -7.06,-8.11 -10.3,-12.42 -17.67,-22.92 -33.77,-46.36 -53.28,-67.84 -9.759996,-11.44 -21.889996,-19.12 -32.699996,-29.17 -5.14,-4.94 -9.97,-11.19 -10.83,-18.48 -0.62,-6.18 3.26,-11.79 7.45,-15.92 7.7,-7.29 17.42,-12.61 25.37,-19.61 4.449996,-3.98 8.169996,-8.55 9.469996,-14.52 1.8,-8.12 -0.52,-15.9 -2.22,-23.79 -1.71,-7.45 -2.05,-16.27 1.11,-23.39 0.48,-1.35 1.45,-1.35 2.64,-1.79 z"
     fill="#0a4a6e"
     id="path839"
     style="fill:#125064;fill-opacity:1" />
  <path
     d="m 413.60412,192.53078 c 2.36,3.23 3,7.91 3.42,11.79 0.78,10.51 -4.51,21.14 -4,32.01 0.09,5.58 2.02,10.89 5.69,15.11 8.68,9.9 20.94,15.33 29.79,24.25 3.77,3.86 7.03,7.89 7.11,13.57 0.41,5.79 -2.11,10.72 -5.67,15.09 -6.17,7.42 -14.17,13.43 -21.63,19.37 -5.02,3.98 -9.49,8.48 -13.95,13.06 -24.51,26.23 -42.49,54.82 -65.3,82.4 0.37,-8.11 2.57,-15.57 4.3,-23.47 8.31,-34.22 24.34,-67.4 49.5,-92.43 4.75,-4.99 10.11,-9.24 15.18,-13.89 -4.16,-3.78 -8.15,-7.15 -10.96,-12.12 -7.13,-12.75 -8.61,-26.59 -8.23,-40.96 0.72,-13.56 3.9,-27.63 10.38,-39.65 1.08,-1.62 2.06,-4.24 4.37,-4.13 z"
     fill="#0a4a6e"
     id="path841"
     style="fill:#125064;fill-opacity:1" />
  <path
     d="m 287.08412,392.84078 c 4.3,2.59 7.71,6.57 10.76,10.5 7.62,9.77 12.94,21.59 21.35,30.65 2.89,3.2 6.25,5.8 9.71,8.33 -5.61,6.18 -10.89,12.59 -15.26,19.71 -10.4,16.36 -18.86,36.89 -33.04,50.28 -3.55,-7.55 -5.18,-15.7 -3.5,-23.98 2.42,-12.84 10.73,-24.14 18.45,-34.36 2.11,-2.97 4.96,-6.06 6.08,-9.56 -0.87,-2.71 -2.74,-5.2 -4.3,-7.55 -4.69,-6.69 -9.55,-14.21 -11.92,-22.08 -1.98,-7.12 -1.64,-15.27 1.67,-21.94 z"
     fill="#0a4a6e"
     id="path851"
     style="fill:#125064;fill-opacity:1" />
  <path
     d="m 232.51412,392.92078 c 2.32,6.13 3.62,12.36 2.17,18.88 -2.38,11.89 -11.26,22.42 -17.5,32.67 7.81,12.03 18.62,23.63 23.32,37.17 3.46,9.86 2.99,21.18 -1.62,30.62 -6.82,-6.05 -11.77,-13.69 -16.52,-21.42 -7.76,-13.04 -14.92,-27.73 -24.31,-39.71 -2.16,-2.82 -4.87,-5.22 -6.89,-8.13 1.04,-2.92 5.2,-4.8 7.26,-7.15 11.17,-11.02 17.17,-27.38 28.39,-38.63 1.75,-1.69 3.69,-2.96 5.7,-4.3 z"
     fill="#0a4a6e"
     id="path853"
     style="fill:#125064;fill-opacity:1" />
</svg>
