<?xml version="1.0" encoding="UTF-8" standalone="no"?>
<svg
   xmlns:dc="http://purl.org/dc/elements/1.1/"
   xmlns:cc="http://creativecommons.org/ns#"
   xmlns:rdf="http://www.w3.org/1999/02/22-rdf-syntax-ns#"
   xmlns:svg="http://www.w3.org/2000/svg"
   xmlns="http://www.w3.org/2000/svg"
   xmlns:sodipodi="http://sodipodi.sourceforge.net/DTD/sodipodi-0.dtd"
   xmlns:inkscape="http://www.inkscape.org/namespaces/inkscape"
   viewBox="0 0 511.88235 541.83008"
   version="1.1"
   id="svg845"
   sodipodi:docname="Shash_glyph.svg"
   inkscape:version="0.92.4 (5da689c313, 2019-01-14)"
   width="511.88235"
   height="541.83008">
  <metadata
     id="metadata851">
    <rdf:RDF>
      <cc:Work
         rdf:about="">
        <dc:format>image/svg+xml</dc:format>
        <dc:type
           rdf:resource="http://purl.org/dc/dcmitype/StillImage" />
        <dc:title />
      </cc:Work>
    </rdf:RDF>
  </metadata>
  <defs
     id="defs849" />
  <sodipodi:namedview
     pagecolor="#ffffff"
     bordercolor="#666666"
     borderopacity="1"
     objecttolerance="10"
     gridtolerance="10"
     guidetolerance="10"
     inkscape:pageopacity="0"
     inkscape:pageshadow="2"
     inkscape:window-width="1280"
     inkscape:window-height="647"
     id="namedview847"
     showgrid="false"
     inkscape:zoom="1.4211053"
     inkscape:cx="-13.968084"
     inkscape:cy="259.13967"
     inkscape:window-x="2035"
     inkscape:window-y="169"
     inkscape:window-maximized="0"
     inkscape:current-layer="svg845"
     inkscape:document-rotation="0" />
  <path
     id="path833"
     style="fill:#6c011d;fill-opacity:1"
     d="m 302.38595,0 c -3.04,3.21 -3.94906,5.92984 -4.03906,10.33984 -0.12,36.75 0.36906,73.25883 -0.21094,110.04883 0.45,35.82 2.97008,70.95977 10.83008,106.00977 1.7,8.27 3.78953,16.31054 7.76953,23.81054 14.32,-7.25 23.83125,-18.08976 35.53125,-28.75976 27.2,-25.18 52.3593,-52.19071 69.7793,-85.2207 19.37,23.50999 31.6007,52.75132 37.9707,82.36132 -31.4,16.09 -64.50039,28.07891 -98.65039,36.87891 -1.43,0.34 -2.87984,0.58961 -4.33984,0.84961 5.74,-6.74 13.16953,-9.82891 18.26953,-16.87891 1.77,-2.38 2.65102,-5.03054 3.54101,-7.81054 -25.65,9.4 -50.42109,24.00086 -67.62109,45.63085 18.4,1.42001 37.25047,-0.95039 54.98047,-5.90039 27.24,-7.5 53.44055,-21.22117 80.81055,-27.70117 -2.33,8.46 -6.4011,16.05039 -11.1211,23.40039 -7.45,11.53 -16.44031,22.35 -23.57031,34 -16.04,-1.73 -31.94914,-3.21976 -48.11914,-3.25976 -18.76,-0.31 -37.33078,0.5307 -55.80078,3.9707 -3.92,0.81 -7.76828,1.81867 -11.73828,2.38867 0.41,-1.34 0.82976,-2.66976 1.25976,-4.00976 4.27,-2.14 8.74914,-2.40852 13.36914,-3.22852 -9.45,-25.21 -5.67961,-55.90125 -14.09961,-81.78125 -1.7,1.21 -3.36117,2.08133 -4.20117,4.11133 -2.31,4.97 -1.17867,11.72914 -1.38867,17.11914 -0.5,16.43 1.11891,32.80039 4.37891,48.90039 -4.74,4.42 -9.58024,7.63008 -11.74024,14.08008 -2.54,7.66 -2.76976,16.1589 -3.75976,24.12891 -0.85,-11.42001 -3.02844,-22.79985 -4.89844,-34.08985 -6.26,-35.46 -13.94125,-70.01945 -17.28125,-105.93945 -0.73,-6.09 -0.74039,-12.19953 -1.65039,-18.26953 -2.27,1.2 -1.56016,2.98945 -1.91016,5.18945 -3.37,52.5 -16.46961,99.74063 -23.59961,152.39062 -0.64,-7.94999 -0.88008,-17.09007 -3.83007,-24.58007 -2.20001,-5.64 -7.37899,-8.9 -11.45899,-13.25 3.87,-16.46 4.95008,-33.69055 4.58008,-50.56055 -0.07,-4.69 0.63898,-10.52086 -1.29102,-14.88086 -0.87,-2.1 -2.54953,-3.07867 -4.26953,-4.38867 -4.37,13 -5.46898,27.6793 -6.70898,41.2793 -1.55,14 -2.36024,27.18929 -7.49024,40.52929 3.95,0.84 8.58852,0.92024 12.22852,2.74024 1.97,1.05 1.79055,2.7914 2.31055,4.6914 -20.69,-5.22 -41.72977,-6.76031 -63.00977,-6.57031 -17.58,-0.12 -35.06977,1.33031 -52.509769,3.32031 -8.11,-13.27 -18.58046,-25.35047 -26.48046,-38.73047 -3.48,-5.89 -6.39071,-12.10093 -8.22071,-18.71093 27.49,6.62 52.240709,19.62039 79.720709,27.40039 18.05,5.14 37.32031,7.70992 56.07031,6.16992 -17.33,-21.65 -41.85961,-36.08984 -67.59961,-45.58984 0.99,3.12 1.98891,6.11039 4.12891,8.65039 5.17,6.57 12.61085,9.88929 17.88085,16.27929 -35.61,-8.63 -70.210929,-21.25875 -102.960929,-37.71875 0.79,-6.67 2.96054,-13.24164 4.81054,-19.68164 6.96,-22.54 17.79024,-44.78922 32.99024,-62.94922 18.269999,35.23 46.109839,63.69 75.089839,90.25 9.48,9.07 18.28094,17.85977 30.21094,23.75977 3.15,-6.29 5.32883,-12.93055 6.79883,-19.81055 5.16,-22.38 8.45023,-45.15836 9.99023,-68.06836 2.06,-23.32 1.6893,-46.5907 1.5293,-69.9707 -0.12,-27.02 0.0716,-54.01906 0.10156,-81.03906 -0.12,-3.97 -0.6,-8.86047 -4.5,-10.98047 -3.07,20.18 -4.50125,40.61953 -4.78125,61.01953 0.11,5.68 -0.58953,11.32 -0.51953,17 -0.21,31.24 0.11914,61.82047 -2.88086,92.98047 -2,19.07 -5.43898,39.46953 -13.45898,57.01953 -31.48,-22.3 -56.13922,-51.62945 -75.69922,-84.68945 -5.72,-9.81 -11.21164,-19.80086 -15.931639,-30.13086 -4.91,-11.72 -8.73977,-24.43969 -9.50977,-37.17969 -0.67,-8.24 -1.59883,-16.01055 -6.29883,-23.06055 -5.26,10.66 -6.93007,23.30032 -6.58008,35.07032 0.01,7.82 1.56001,15.50984 4.25,22.83984 -22.43,27.91 -38.61101,63.02 -54.04101,95.25 -3.02,-1.21 -5.2893,-2.79992 -7.5293,-5.16992 -6.6099996,-6.86 -9.8796796,-16.28922 -15.42968964,-23.94922 -2.54999996,11.25 1.04993004,23.07875 6.41993004,32.96875 8.1199996,14.85 20.8694496,28.32078 31.1894496,41.80078 13.18,17.19 27.43086,34.65008 38.38086,53.33008 -5.66,0.96 -11.56047,2.58031 -15.48047,7.07031 -2.65,3.03 -3.41969,6.61875 -4.17969,10.46875 7.92,0.32 13.99993,-3.21828 21.16992,-5.73828 4.67001,-1.62 9.53899,-1.82055 13.70899,1.18945 7.3,5.07 13.330229,12.25961 19.240229,18.84961 10.58,12.08 23.5111,22.16992 33.8711,34.41992 -6.81,4.06 -12.71094,9.07969 -16.46094,16.17969 -2.07,4.01 -2.94969,8.53141 -1.67969,12.94141 0.84,2.75 2.48039,4.76883 4.15039,7.04883 7.8,-3.9 10.47922,-10.69008 14.94922,-17.58008 2.76,-4.21 6.53031,-8.79063 12.07031,-8.64063 3.9,-0.23 6.80977,1.70094 9.75977,3.96094 7.99,6.43 14.83039,16.09961 23.65039,21.34961 3.16,2.01 6.62055,2.72055 10.31055,3.06055 -0.54,-5.7 -2.14078,-11.10938 -5.80078,-15.60938 -6.69,-8.26 -15.48008,-11.74101 -23.58008,-19.29101 12.19,-4.07 22.75914,-10.47907 34.11914,-16.28907 6.46,-3.22 12.87023,-6.16078 19.99023,-7.55078 -3.37,9.03 -5.08875,19.34992 -3.46875,28.91992 1.03,5.73 3.35891,11.48055 8.37891,14.81055 2.85,1.94 5.91094,2.36031 9.21094,3.07031 2.38,-16.07 2.22859,-32.55093 3.80859,-48.71093 0.34,-3.79 1.81008,-7.06071 3.83008,-10.22071 0.71,16.8 0.15148,34.34172 -3.72852,50.76172 -2.9,11.83 -7.79062,23.02867 -16.64062,31.63867 2.84,8.44 7.22031,15.62961 4.32031,24.84961 -2.12,-7.23 -4.41133,-13.83984 -10.11133,-19.08984 -3.64,-3.44 -8.08984,-5.37 -12.83984,-6.75 13.66,36.84 20.23078,73.41984 30.30078,111.33984 1,3.52 1.39937,6.87188 3.60938,9.92188 2.38999,-6.7 2.18093,-14.53032 2.96093,-21.57032 1.22,-18.57999 1.1893,-37.29992 1.7793,-55.91992 0.68,-7.67 0.37047,-15.26109 1.73047,-22.87109 1.96,5.82 4.03906,11.61008 6.28906,17.33008 2.07,-5.77 4.03109,-11.52922 6.37109,-17.19922 3.24,32.99 0.60055,67.05945 5.56055,99.68945 1.32,-0.32 2.15953,-1.28086 2.51953,-2.88086 10.78,-38.63 17.89992,-80.43929 32.16992,-117.77929 -5.93,1.44 -11.24968,4.33031 -15.17968,9.07031 -4.14,4.86 -6.41961,10.71969 -7.59961,16.92969 -3.27,-9.06 1.03945,-16.76954 4.18945,-25.01954 -10.06,-9.54 -15.09953,-22.88093 -17.76953,-36.21093 -3.07,-15.33 -3.19094,-30.64899 -2.71094,-46.20899 1.96,3.14 3.49985,6.40063 3.83985,10.14063 1.23,16.24 1.78101,32.49945 3.54101,48.68945 3.75,-0.64 7.18875,-1.08961 10.21875,-3.59961 5.1,-4.02 7.05016,-9.85031 7.91016,-16.07031 1.18,-9 -0.68977,-18.60008 -3.75977,-27.08008 12.01,2.45 23.77086,9.69883 34.63086,15.29883 6.29,3.36 12.73922,6.19133 19.44922,8.61133 -7.28,6.77 -16.7307,11.11851 -22.9707,18.47851 -3.99,4.64 -5.95852,10.30086 -6.22852,16.38086 3.69,-0.4 7.20867,-1.2107 10.38867,-3.2207 7.05,-4.31 12.98086,-11.37891 18.88086,-17.12891 2.8,-2.69 5.98985,-5.7 9.58985,-7.25 4.32,-1.65 9.19976,-0.78047 12.50976,2.51953 7.25,7.09 9.32063,18.59086 19.39063,22.88086 2.98,-4.15 5.35945,-8.17148 4.43945,-13.52148 -1.88,-10.15 -10.22016,-17.57969 -18.66016,-22.67969 9.2,-10.92 20.01008,-19.45031 29.83008,-29.82031 6.16,-6.79 12.16,-13.94859 19,-20.0586 3.41,-2.89 6.83008,-5.7614 11.58008,-5.6914 7.77,0.14 15.03945,5.81062 22.93945,6.64062 1.57,0.13 3.15024,0.21977 4.74024,0.25977 -0.84,-3.98 -1.62953,-7.65875 -4.51953,-10.71875 -4.11,-4.43 -9.41086,-5.73078 -15.13086,-6.80078 11.04,-19.11 25.54164,-36.58914 38.93164,-54.11914 11.5,-15.03 26.69945,-30.55086 33.93945,-48.13086 3.53,-8.26 4.48055,-16.32047 3.31055,-25.23047 -2.92,2.39 -4.06188,5.50969 -5.92188,8.67969 -4.35,7.89 -8.6382,15.9307 -17.1582,19.9707 -15.72,-32.53 -31.47039,-67.06063 -54.15039,-95.39062 4.14,-11.17 5.00953,-23.05985 3.76953,-34.83985 -0.63,-7.96 -2.67953,-15.76953 -6.01953,-23.01953 -5.34,7.48 -5.84125,16.14 -6.53125,25 -1.53,15.71 -6.80899,31.18984 -14.20899,45.08984 -16.01,31.36 -36.29007,60.67079 -62.08007,84.80078 -7.85,7.15 -16.07039,14.1486 -24.90039,20.0586 -9.14,-21.26 -12.09915,-43.03844 -14.11915,-65.89844 -2.51999,-36.74 -1.74117,-74.21984 -2.70117,-111.08984 -1.01,-17.03 -1.64,-34.58008 -5,-51.33008 z m -46.29883,279.80859 c 2.32001,14.25 5.24024,28.45125 6.99024,42.78125 -1.13,-1.66 -1.92102,-3.45086 -3.79102,-4.38086 -1.75,-0.83 -4.03062,-0.69031 -5.89062,-0.32031 -2.45,0.72 -3.67914,3.34086 -4.86914,5.38086 2.54,-14.47 4.59054,-29.07094 7.56054,-43.46094 z m -105.56835,31.49414 c 21.59882,-0.0335 43.23125,1.58672 64.4375,5.13672 0.52,8.24 -1.3193,16.08875 -3.5293,23.96875 -15.69,9.97 -34.71086,15.73016 -52.13086,22.66016 -5.35,-3.11 -10.44008,-6.61899 -15.08008,-10.70899 -12.71,-11.13 -23.37945,-25.06953 -32.43945,-39.26953 12.83625,-1.15125 25.78289,-1.76701 38.74219,-1.78711 z m 213.23632,0.0137 c 12.17614,0.081 24.35571,0.68593 36.50196,1.77343 -6.66,10.32 -13.85063,20.13875 -22.14063,29.21875 -7.57,8.11 -15.85992,15.49102 -25.66992,20.79102 -16.1,-6.69 -33.92953,-11.92969 -49.01953,-20.92969 -1.33,-0.9 -2.97133,-1.60055 -3.36133,-3.31055 -1.98,-7.26 -3.30875,-14.62968 -3.21875,-22.17968 2.05,-0.47 4.11897,-0.91047 6.20899,-1.23047 20.11873,-2.95 40.40566,-4.26778 60.69921,-4.13281 z M 246.67697,419.89844 c 1.11,4.21 1.19039,8.34007 1.65039,12.83008 -2.44,-4.10002 -2.07039,-8.28008 -1.65039,-12.83008 z m 18.60937,0.0898 c 0.69,4.51 0.7193,8.71031 -1.4707,12.82031 0.16,-4.3 0.4207,-8.64031 1.4707,-12.82031 z" />
</svg>
