<?xml version="1.0" encoding="UTF-8" standalone="no"?>
<svg
   xmlns:dc="http://purl.org/dc/elements/1.1/"
   xmlns:cc="http://creativecommons.org/ns#"
   xmlns:rdf="http://www.w3.org/1999/02/22-rdf-syntax-ns#"
   xmlns:svg="http://www.w3.org/2000/svg"
   xmlns="http://www.w3.org/2000/svg"
   xmlns:sodipodi="http://sodipodi.sourceforge.net/DTD/sodipodi-0.dtd"
   xmlns:inkscape="http://www.inkscape.org/namespaces/inkscape"
   viewBox="0 0 518.91156 447.56949"
   version="1.1"
   id="svg853"
   sodipodi:docname="Skybreakers_glyph.svg"
   inkscape:version="0.92.4 (5da689c313, 2019-01-14)"
   width="518.91156"
   height="447.56949">
  <metadata
     id="metadata859">
    <rdf:RDF>
      <cc:Work
         rdf:about="">
        <dc:format>image/svg+xml</dc:format>
        <dc:type
           rdf:resource="http://purl.org/dc/dcmitype/StillImage" />
        <dc:title />
      </cc:Work>
    </rdf:RDF>
  </metadata>
  <defs
     id="defs857" />
  <sodipodi:namedview
     pagecolor="#ffffff"
     bordercolor="#666666"
     borderopacity="1"
     objecttolerance="10"
     gridtolerance="10"
     guidetolerance="10"
     inkscape:pageopacity="0"
     inkscape:pageshadow="2"
     inkscape:window-width="1280"
     inkscape:window-height="647"
     id="namedview855"
     showgrid="false"
     inkscape:zoom="0.73828125"
     inkscape:cx="55.846967"
     inkscape:cy="184.4795"
     inkscape:window-x="0"
     inkscape:window-y="25"
     inkscape:window-maximized="0"
     inkscape:current-layer="svg853"
     inkscape:document-rotation="0" />
  <path
     d="m 262.22157,0.5695021 c 1.07,6.59 1.62,13.2099999 2.03,19.8699999 1.28,15.32 1.95,30.67 1.99,46.04 0.13,24.58 0.29,48.699998 -1.71,73.029998 -0.92,12.64 -1.99,25.65 -5.14,37.95 -2.22,-7.32 -3.14,-15.28 -3.98,-22.9 -2.81,-27.56 -3.46,-55.389998 -3.23,-83.079998 0.37,-23.56 1.27,-47.22 4.08,-70.6299999 2.3,-1.07 3.56,-1.09 5.96,-0.28 z"
     fill="#908f95"
     id="path833"
     style="fill:#5f5d68;fill-opacity:1" />
  <path
     d="m 90.041569,56.639502 c 1.01,0.16 2.01,0.32 3.02,0.5 5.49,0.91 10.640001,3.22 14.610001,7.18 5.84,5.59 8.62,13.67 10.34,21.38 4.22,20.229998 2.56,42.699998 7.1,63.009998 1.56,7.04 4.15,13.54 8.42,19.39 4.58,-2.23 8.73,-4.69 11.49,-9.12 4.58,-7.24 4.55,-16.33 3.35,-24.53 -1.73,-12.43 -6.85,-23.88 -9.09,-36.089998 5.83,2.169998 11.14,5.329998 15.16,10.159998 5.88,6.87 8.29,16.07 8.51,24.96 0.11,12.26 -3.41,24.72 -8.78,35.68 -5.45,10.72 -12.85,21.06 -23.72,26.78 -7.71,-3.09 -14.58,-7.13 -19.04,-14.39 -5.68,-9.3 -5.61,-20.55 -5.22,-31.09 0.96,-15.7 3.1,-31.22 3.01,-46.98 0.31,-8.019998 -0.94,-15.939998 -4.6,-23.139998 -4.34,-8.82 -11.690001,-14.03 -14.560001,-23.7 z"
     fill="#908f95"
     id="path835"
     style="fill:#5f5d68;fill-opacity:1" />
  <path
     d="m 428.58157,56.629502 c -2.65,9.14 -9.3,14.06 -13.72,22.17 -5.31,9.44 -6.2,20.06 -5.32,30.679998 0.39,15.38 2.59,30.63 3.02,46 0.09,10.04 -0.66,19.88 -6.79,28.25 -4.5,6.16 -10.67,9.17 -17.39,12.27 -6.74,-3.48 -12.14,-8.73 -16.59,-14.8 -8.11,-11.07 -13.61,-24.63 -15.47,-38.23 -1.38,-10.25 -0.49,-21.61 5.08,-30.59 4.14,-6.75 10.56,-11.34 17.92,-14.059998 -2.26,12.959998 -8.21,25.569998 -9.4,39.129998 -0.44,7.25 -0.6,13.99 3.08,20.51 2.72,4.95 7.1,7.66 11.94,10.2 5.44,-6.98 7.84,-15.09 9.44,-23.66 3.42,-18.87 2.31,-39.22 6.1,-58.039998 1.76,-8.38 4.65,-16.91 11.14,-22.86 4.78,-4.3 10.67,-6.2 16.96,-6.97 z"
     fill="#908f95"
     id="path837"
     style="fill:#5f5d68;fill-opacity:1" />
  <path
     d="m 0.04156885,73.069502 c 2.27999995,12.19 5.92999995,24.17 10.00000015,35.879998 7.29,20.39 16.99,39.24 32.85,54.32 4.27,-14.08 9.02,-27.53 17.83,-39.51 3.72,1.66 7.3,3.4 10.37,6.13 7.32,6.16 11.55,15.67 14.38,24.61 5.56,17.83 7.38,37.84 13.61,55.51 2.470001,6.68 5.300001,13.39 10.280001,18.62 5.46,5.92 12.57,8.98 18.19,14.82 2.4,2.4 4.23,5.18 6.05,8.03 -5.77,3.97 -12.03,8.07 -19.05,9.28 -4.93,0.91 -10.08,-0.1 -13.98,-3.33 -5.200001,-4.16 -8.460001,-11.12 -10.810001,-17.21 -6.75,-18.23 -9.25,-38.48 -16.36,-56.63 -2.74,-6.98 -6.54,-13.35 -12.5,-18.04 -2.77,8.28 -4.47,17.03 -5.58,25.69 -0.87,8.37 -0.63,17.04 -0.49,25.45 -17.04,-15.02 -28.49,-34.85 -36.93,-55.7 -8.5100002,-21.16 -13.7400002,-43.87 -16.4700002,-66.479998 -0.70999995,-7.16 -1.63999995,-14.22 -1.38999995,-21.44 z"
     fill="#908f95"
     id="path839"
     style="fill:#5f5d68;fill-opacity:1" />
  <path
     d="m 518.91157,73.149502 c -1.23,27.279998 -6.13,54.649998 -15.34,80.389998 -8.37,23.23 -21.02,46.65 -39.72,63.19 0.99,-17.32 -0.7,-34.66 -6.1,-51.2 -5.15,4.17 -8.55,8.97 -11.2,15.01 -8.95,20.31 -10.79,44.11 -19.63,64.37 -3.33,7.12 -7.98,14.44 -16.35,15.93 -9.11,1.48 -18.46,-4.36 -25.58,-9.42 2.04,-3.09 4.11,-6.1 6.82,-8.65 5.92,-5.8 12.87,-8.74 18.14,-14.83 4.63,-5.31 7.66,-12.37 9.98,-18.96 5.85,-17.28 7.75,-36.62 13.08,-54.04 2.58,-8.32 6.41,-17.1 12.63,-23.36 3.49,-3.55 7.71,-5.74 12.16,-7.84 8.71,11.59 13.93,25.69 17.79,39.54 5.24,-4.73 9.77,-10.13 13.85,-15.87 15.32,-21.83 23.28,-48.619998 29.47,-74.259998 z"
     fill="#908f95"
     id="path841"
     style="fill:#5f5d68;fill-opacity:1" />
  <path
     d="m 220.17157,142.3195 c 5,5.8 7.91,12.45 9.25,19.96 2.72,15.22 0.61,31.7 0.45,47.2 -0.34,13.82 1.17,27.31 2.53,41.02 5.05,43.05 15.13,85.88 26.98,127.53 13.93,-50.37 26.17,-102.22 29.15,-154.55 1.13,-15.65 -1.09,-31.25 -0.62,-47 0.19,-12.22 2.06,-24.73 10.6,-34.1 8.18,45.35 7.69,91.52 0.77,136.99 -8.68,58.25 -26.32,111.41 -39.9,168.2 -1.34,-4.76 -2.44,-9.57 -3.64,-14.36 -11.86,-46.88 -26.06,-93.01 -34.26,-140.73 -8.78,-49.85 -10.43,-100.22 -1.31,-150.16 z"
     fill="#908f95"
     id="path843"
     style="fill:#5f5d68;fill-opacity:1" />
  <path
     d="m 190.67157,154.0795 c 2.66,15.82 2.54,31.85 -3.5,46.92 -4.96,12.85 -12.89,22.61 -20.03,34.1 -3.64,5.79 -6.46,11.92 -8.04,18.59 9.74,-4.48 17.77,-10.86 27.66,-14.84 6.26,-2.54 12.92,-3.68 19.66,-3.83 -9.24,8.89 -18.83,17.4 -28.01,26.35 -15.18,14.4 -29.61,29.54 -42.96,45.66 -2.66,-15.27 -2.61,-31.27 2.6,-46.02 5.22,-15.12 14.24,-27.17 22.26,-40.76 6.38,-10.82 11.43,-22.28 13.62,-34.71 1.94,-9.94 1.38,-19.6 1.02,-29.62 4.41,-2.98 10.6,-1.76 15.72,-1.84 z"
     fill="#908f95"
     id="path845"
     style="fill:#5f5d68;fill-opacity:1" />
  <path
     d="m 328.06157,154.0595 c 5.65,0.14 10.71,-1.15 15.77,1.92 -1.79,16.04 -0.1,32.3 6.01,47.29 8.18,20.63 22.69,35.64 30.28,56.45 5.68,15.32 5.93,31.5 3.01,47.43 -12.52,-15.55 -26.33,-29.75 -40.62,-43.66 -9.94,-9.62 -20.27,-18.84 -30.24,-28.43 6.25,0.11 12.42,1.1 18.28,3.3 10.41,3.83 18.59,10.54 28.93,15.28 -1.39,-6.11 -3.87,-11.7 -7.09,-17.06 -6.77,-11.3 -14.69,-20.78 -19.9,-33.1 -6.91,-15.7 -7.6,-32.73 -4.43,-49.42 z"
     fill="#908f95"
     id="path847"
     style="fill:#5f5d68;fill-opacity:1" />
  <path
     d="m 316.23157,258.3995 c 11.03,6.46 21.91,16 25.84,28.56 3.91,12.56 0.53,25.74 -4.67,37.38 -10.77,23.91 -28.84,45.29 -39.92,69.2 -2.02,4.27 -3.54,8.72 -4.97,13.22 -3.9,-4.85 -7.07,-9.98 -8.01,-16.25 -1.49,-8.94 2.18,-17.75 6.71,-25.26 9.31,-15.28 23.25,-28.26 32.29,-43.79 4.28,-7.37 7.08,-15.35 6.59,-23.99 -0.03,-4.96 -1.9,-9.2 -4,-13.57 -3.96,-8.22 -7.16,-16.78 -9.86,-25.5 z"
     fill="#908f95"
     id="path849"
     style="fill:#5f5d68;fill-opacity:1" />
  <path
     d="m 202.38157,258.3795 c -2.47,8.15 -5.48,16.19 -9.08,23.92 -1.55,3.38 -3.44,6.98 -4.21,10.62 -1.45,8.49 0.08,17.19 4.05,24.8 7.6,15.11 21.21,28.3 30.86,42.28 5.56,8.08 10.87,17.34 10.31,27.5 -0.09,7.54 -3.67,13.47 -8.11,19.26 -9.46,-30.72 -35.11,-57.13 -46.89,-87.05 -4.19,-10.72 -6.29,-22.6 -2.41,-33.74 3.86,-11.02 12.26,-18.94 21.77,-25.25 1.23,-0.79 2.47,-1.57 3.71,-2.34 z"
     fill="#908f95"
     id="path851"
     style="fill:#5f5d68;fill-opacity:1" />
</svg>
