<?xml version="1.0" encoding="UTF-8" standalone="no"?>
<svg
   xmlns:dc="http://purl.org/dc/elements/1.1/"
   xmlns:cc="http://creativecommons.org/ns#"
   xmlns:rdf="http://www.w3.org/1999/02/22-rdf-syntax-ns#"
   xmlns:svg="http://www.w3.org/2000/svg"
   xmlns="http://www.w3.org/2000/svg"
   xmlns:sodipodi="http://sodipodi.sourceforge.net/DTD/sodipodi-0.dtd"
   xmlns:inkscape="http://www.inkscape.org/namespaces/inkscape"
   viewBox="0 0 546.17267 475.18164"
   version="1.1"
   id="svg867"
   sodipodi:docname="Stonewards_glyph.svg"
   inkscape:version="0.92.4 (5da689c313, 2019-01-14)"
   width="546.17267"
   height="475.18164">
  <metadata
     id="metadata873">
    <rdf:RDF>
      <cc:Work
         rdf:about="">
        <dc:format>image/svg+xml</dc:format>
        <dc:type
           rdf:resource="http://purl.org/dc/dcmitype/StillImage" />
        <dc:title />
      </cc:Work>
    </rdf:RDF>
  </metadata>
  <defs
     id="defs871" />
  <sodipodi:namedview
     pagecolor="#ffffff"
     bordercolor="#666666"
     borderopacity="1"
     objecttolerance="10"
     gridtolerance="10"
     guidetolerance="10"
     inkscape:pageopacity="0"
     inkscape:pageshadow="2"
     inkscape:window-width="1280"
     inkscape:window-height="647"
     id="namedview869"
     showgrid="false"
     inkscape:zoom="1.6062262"
     inkscape:cx="-6.2755067"
     inkscape:cy="240.11545"
     inkscape:window-x="0"
     inkscape:window-y="25"
     inkscape:window-maximized="0"
     inkscape:current-layer="svg867"
     inkscape:document-rotation="0" />
  <path
     id="path833"
     style="fill:#d26840;fill-opacity:1"
     d="m 273.2914,0 c -1.05,6.5 -2.22109,12.9618 -3.87109,19.3418 -4.67,18.42 -12.18914,36.38929 -15.36914,55.02929 -1.59,8.51 -1.74008,17.44008 -1.83008,26.08008 -13.85,-3.06 -27.18008,-8.23984 -39.33008,-15.58984 -15.55,-9.39 -28.40945,-21.60984 -40.43945,-35.08985 1.02,13.52001 4.43898,26.96016 7.45898,40.16016 5.47,22 11.97094,43.7386 17.21094,65.8086 -6.22,4.51999 -11.94024,9.59109 -17.74024,14.62109 -17.79,-27.42 -39.41937,-51.69133 -56.60937,-79.36133 -4.72,-7.78 -9.28039,-15.76891 -12.90039,-24.12891 -3.91,-9.08 -5.18133,-19.56937 -10.111326,-27.85937 -1.75,-3.11 -4.29906,-5.42063 -7.03906,-7.64063 -0.66,11.54 1.12969,23.01047 4.67969,33.98047 5.699996,17.56 15.249526,32.69852 24.519526,48.47852 10.31,17.74 21.67047,35.06101 32.48047,52.54101 2.73,4.54 5.65078,8.93993 8.05078,13.66993 -14.61,13.48 -31.12133,24.82078 -49.11133,33.30078 -4.16,1.91 -8.27992,3.82969 -12.66992,5.17968 -6.289996,-9.88999 -9.239606,-21.08109 -10.599606,-32.62109 -1.06,-7.82 -1.42946,-15.63953 -1.43946,-23.51953 -0.45,-8.68 -0.77062,-17.32 -0.14062,-26 0.22,-2.89 -0.0497,-5.72984 -0.42969,-8.58984 -6.91,6.81 -12.36898,14.78078 -16.95898,23.30078 -8.05,14.73 -14.38063,31.47914 -23.89063,45.11914 -3.92,5.76 -8.77937,10.69086 -14.10937,15.13086 -3.65,-14.8 -3.97071,-29.79164 -3.22071,-44.93164 2.35,-27.35 11.81016,-52.58891 25.16016,-76.37891 5.24,-9.75 11.62891,-18.72062 17.37891,-28.14062 -18.29,10.71 -32.78953,26.80976 -43.76953,44.75976 -17.44,28.61 -26.3305496,61.4107 -28.31054958,94.7207 -0.68,13.56 -0.5293,27.5604 2.22069998,40.90039 1.31,5.2 3.39094,12.68946 8.4609396,15.43946 2.89,1.85 5.77844,0.20047 8.39844,-1.26953 4.56,-2.95 8.62125,-6.74977 12.28125,-10.75977 11.88,-13.03 22.24859,-27.49117 31.55859,-42.45117 3.13,-4.97 5.86133,-10.10992 8.36133,-15.41992 2.75,12.85 4.72023,25.06101 9.99023,37.29101 2.38,5.59 5.39016,10.57844 9.41016,15.14844 12.749996,-1.81 25.008746,-5.93977 36.468746,-11.75976 16.14,-7.87 30.52023,-19.08922 46.49023,-27.19922 5.08,9.77 10.72954,19.48046 14.76954,29.73046 2.44999,6.53001 4.38984,12.8886 2.08984,19.8086 -3.04,8.74 -8.71844,15.95094 -10.64844,25.21094 -18.21,-9.54 -31.65141,-23.84063 -51.9414,-30.14063 1.38999,5.58 3.35046,10.9511 5.23046,16.37109 6.83,19.14 13.28993,37.14922 14.41993,57.69922 -16.02,-8.27 -29.64055,-21.20906 -41.31055,-34.78906 -15.049996,-17.96 -26.769296,-37.1507 -39.029296,-56.9707 0.64,21.73 8.92953,43.4607 20.01953,61.9707 7.78,13.05 17.290316,25.25945 27.570316,36.43945 9.7,10.97 20.37007,20.68993 33.33007,27.66993 6.14,3.36 12.66938,5.76953 19.35938,7.76953 3.31,-13.82 2.42984,-27.9 -0.16016,-41.75 -2.04,-11.77 -5.70883,-23.15008 -8.04883,-34.83008 9.85,4.27 15.16961,13.15961 24.84961,17.84961 2.82,1.53 5.80922,1.78101 8.94922,2.04101 6.11,-10.72 1.11031,-23.14109 7.82032,-34.37109 6.65,15.99 10.12117,32.42008 14.45117,49.08008 4.32,15.55 11.06922,29.92078 11.94922,46.30078 0.29,15.85 -5.58961,32.22953 -5.34961,48.01953 0.12,7.71 2.6,14.58094 8.25,19.96094 7.25,-12.48 -0.92938,-25.37961 4.14062,-38.34961 2.15,4.64 3.82992,9.47844 5.91992,14.14844 5.67,13.25 11.58977,25.8007 13.75977,40.2207 1.01,6.2 0.73891,12.30906 0.37891,18.53906 1.61999,-0.46 3.25085,-0.90961 4.88085,-1.34961 0.81,-2.45 1.37016,-4.83992 1.66016,-7.41992 7.23,3.3 5.19867,11.48125 12.13867,15.03125 6.03,-4.06 4.98102,-11.43086 11.29102,-15.13086 0.59,2.25 0.84906,4.90946 2.03906,6.93946 1.15,1.19999 3.40992,1.41124 4.91992,2.03124 -0.74,-7.86999 -0.52812,-15.7014 1.17188,-23.4414 3.66,-17.21 12.71961,-33.22891 18.84961,-50.12891 4.5,12.85 -2.50133,26.61016 3.88867,38.91016 5.64,-4.88 8.14164,-11.62117 8.43164,-18.95117 0.73,-17.13 -6.82024,-35.81907 -4.99024,-53.03907 1.86001,-16.48 9.77868,-33.10976 13.38868,-49.00976 3.54,-14.21 6.97156,-28.92086 12.85156,-42.38086 4.16,7.56 3.52875,15.12086 4.46875,23.38086 0.43,3.58 0.97133,7.61891 3.11133,10.62891 3.7,0.78 7.42914,-0.74977 10.61914,-2.50977 8.66,-4.78 13.80898,-12.73891 22.95898,-16.87891 -1.38,9.59 -4.63,18.86891 -6.5,28.37891 -3.47,15.75 -4.86883,32.1 -1.54883,48 17.1,-4.42 32.44899,-14.32039 44.70899,-26.90039 19.42,-19.43 37.36015,-42.84008 47.41016,-68.58008 4.77999,-12.16 7.88109,-25.20906 8.37109,-38.28906 -12.61,20.21 -24.75078,40.13984 -40.30078,58.33984 -11.53,13.32 -24.31024,25.11016 -39.99024,33.41016 1.07,-26.81 12.27141,-49.11985 19.69141,-74.08985 -20.48,6.33 -33.71055,20.46993 -52.06055,30.16993 -0.98,-3.42 -1.93023,-6.77047 -3.49023,-9.98047 -2.51,-5.33 -6.14102,-10.83031 -7.54102,-16.57031 -1.28,-5.41001 -0.36906,-10.68008 1.46094,-15.83008 3.94,-11.12 10.34977,-21.88969 15.75977,-32.42969 17.87,9.3 33.92937,22.10125 52.85937,30.28125 9.6,4.23 19.82,7.37992 30.25,8.66992 3.35,-4.09 6.29141,-8.41172 8.44141,-13.26172 5.53,-12.03 8.2289,-26.03976 10.6289,-39.00976 4.5,8.73 9.39094,17.22054 14.96094,25.31054 7.84,11.55 16.24031,23.00969 25.82031,33.17969 4.15,4.23 8.90946,9.18953 14.43946,11.51953 2.9,1.4 5.99929,0.21164 8.02929,-2.06836 3.38,-3.8 5.03961,-9.3407 6.09961,-14.2207 2.92,-13.36 2.24,-27.79992 2,-41.41992 -1.97,-33.16 -11.46898,-66.91992 -29.20898,-95.16992 -10.68,-16.87 -25.11078,-33.26946 -42.80078,-42.93946 15.83,23.56 29.58047,47.1993 37.23047,74.7793 6.88,24.44 7.65929,49.57086 2.27929,74.38086 -13.3,-9.73 -21.39914,-26.05055 -28.36914,-40.56055 -7.23,-14.61 -14.63906,-31.85008 -27.03906,-42.83008 -0.35,20.92 0.89976,41.02883 -2.24024,61.79883 -1.62,10.34 -4.32124,20.18164 -10.28124,28.93164 -22.98001,-8.65 -43.55969,-22.05125 -61.67969,-38.53125 12.12,-21.05 25.91969,-41.11984 38.17969,-62.08984 10.31999,-17.71 22.3907,-36.14898 27.9707,-55.95899 2.87,-9.93999 4.27906,-20.40023 3.78906,-30.74023 -3.05,2.56 -5.87875,5.16977 -7.71875,8.75977 -5.05,9.36 -6.1407,20.33976 -10.9707,30.00976 -17,35.94 -46.42938,66.78086 -68.10938,100.38086 -5.65,-5.07 -11.32047,-10.06172 -17.48047,-14.51172 0.86,-5.35 2.35016,-10.51976 3.66016,-15.75976 7.56,-29.43 17.48078,-60.47867 21.05078,-90.63868 -12.46,13.83 -25.59047,26.43922 -41.73047,35.94922 -11.86,7.06 -25.00047,12.05024 -38.48047,14.99024 0.35,-10.22 -0.36898,-20.32008 -2.45898,-30.33008 C 286.46187,46.00086 276.1514,24.89 273.2914,0 Z m -0.0312,53.10156 c 3.46,11.82 5.50063,23.9793 6.14063,36.2793 0.39,10.35 -0.32063,22.04094 -6.14063,30.96094 -5.62,-8.16 -6.33984,-18.35094 -6.33984,-27.96094 0.36,-13.25 2.26984,-26.6393 6.33984,-39.2793 z m 59.43164,52.93946 c 0.48,2.79 0.95985,5.48984 0.83984,8.33984 -0.54998,10 -2.91085,19.81992 -7.13085,28.91992 -10.74,-5.57 -22.01993,-9.78039 -33.16993,-14.40039 0.59,-2.19 1.10094,-4.24898 2.71094,-5.95898 4.99,-6.01 13.50844,-8.06985 20.64844,-10.33985 5.73,-1.6 10.90156,-3.65054 16.10156,-6.56054 z m -119.02153,0.11914 c 5.05,2.54 10.14086,4.83148 15.63086,6.27148 6.9,2.16 15.24961,4.22969 20.34961,9.67969 1.92,1.87 2.82984,4.18008 3.83984,6.58008 -11.21,4.75 -22.57969,8.96906 -33.42969,14.53906 -4.11,-8.31 -6.30008,-17.63984 -7.08008,-26.83984 -0.33,-3.46 0.11946,-6.82047 0.68946,-10.23047 z m 59.28515,25.54297 c 1.31075,-0.0279 2.60235,0.58359 3.71485,1.52734 1.15,5.69 -0.72938,12.31086 -3.35938,17.38086 -2.72,-4.42 -3.83976,-9.15078 -4.00976,-14.30078 -0.01,-1.19 5.4e-4,-3.24883 1.31054,-3.79883 0.765,-0.54375 1.55731,-0.79184 2.34375,-0.80859 z m -15.03515,6.66796 c 5.5,9.65 7.15093,20.0993 7.96093,31.0293 1.04,21.67 -0.52039,43.30953 0.0996,65.01953 -3.36,-0.56 -6.16007,-1.54883 -8.58007,-4.04883 -5.16,-5.19 -8.74024,-11.90023 -13.49024,-17.49023 -6.35,-7.67 -13.31883,-14.17953 -17.54883,-23.51953 -4.03,-8.83 -4.55039,-19.69094 -1.90039,-28.96094 2.55,-3.03 6.09922,-5.31 9.19922,-7.75 7.54,-5.44 15.54977,-10.9093 24.25977,-14.2793 z M 288.59023,138.5 c 4.61,1.39 8.87125,4.27039 13.03125,6.65039 7,4.41 14.09914,9.22969 20.11914,14.92969 3.25,10.45 2.14117,22.75133 -3.29883,32.36133 -5.85,10.58 -15.44047,18.33976 -22.23047,28.75976 -4.17,5.92 -7.86031,11.95055 -15.57031,13.31055 -0.12,-6.71 0.0802,-13.42086 -0.01,-20.13086 -0.74,-13.31 -0.7507,-26.68977 -0.4707,-40.00977 0.74,-11.62 1.89969,-25.89109 8.42969,-35.87109 z m -87.20899,41.75 c 6.33,13.7 8.34039,27.64063 10.40039,42.39063 -3.02998,2.24 -5.76992,4.61101 -8.41992,7.29101 -3.77,-11.79 -7.60992,-23.71086 -12.41992,-35.13086 -0.49,-1.31 -1.04094,-2.69961 -1.21094,-4.09961 3.08,-4.1 7.65039,-7.25117 11.65039,-10.45117 z m 143.62891,0.13086 c 4.44,2.91 8.40094,6.69914 11.96094,10.61914 -5.41,12.75 -9.85,25.82172 -14,39.01172 -2.57,-2.83 -5.15985,-5.06164 -8.33985,-7.18164 1.8,-14.05 4.15891,-29.59922 10.37891,-42.44922 z m -31.63867,44.09961 c -0.73,7.65 -2.06133,15.06016 -3.11133,22.66016 -3,21.58 -6.2093,43.05078 -11.0293,64.30078 -6.31,-15.1 -9.81968,-31.45047 -14.92968,-46.98047 -0.62,-1.96 -1.39063,-3.96977 -1.64063,-6.00977 0.49,-1.29 1.42,-2.47078 2.25,-3.55078 8.61,-11.15 20.38094,-18.71992 28.46094,-30.41992 z m -80.57031,0.01 c 9.27,12.56999 22.30945,21.15085 31.18945,33.88085 -5.96,17.41 -9.80945,35.69977 -16.68945,52.75977 -1.75,-6.35 -2.95969,-12.78023 -4.17969,-19.24023 -4.09,-22.32 -6.93031,-44.87039 -10.32031,-67.40039 z m -16.13086,20.41015 c 1.43,4.1 2.53093,8.30047 3.71093,12.48047 4.57,15.43 10.15914,31.22922 13.36915,46.94922 2.61,12.28 3.89023,25.05156 2.99023,37.60156 -6.23,-10.67 -8.48008,-24.40008 -11.58008,-36.33008 -3.29,-14.24 -10.7293,-28.77093 -12.0293,-43.21093 -0.64,-6.21 0.72907,-11.99024 3.53907,-17.49024 z m 112.77148,0.0195 c 0.54,0.97 1.06985,1.95164 1.58984,2.93164 1.97002,4.27 2.46852,8.87907 2.22852,13.53907 -0.6,11.28 -5.65984,23.05929 -9.08984,33.77929 -5.24,15.97 -6.45977,31.67078 -14.25977,46.55078 -1.36,-6.88 -0.25898,-13.42054 0.041,-20.31054 2.68,-27.2 12.83023,-50.47024 19.49023,-76.49024 z m -56.18164,46.13086 c 10.29,15.45 13.61008,36.10008 13.58008,54.33008 -0.19,15.42 -3.16899,33.85984 -13.70899,45.83984 -9.47,-11.32 -12.64992,-26.44984 -13.41992,-40.83984 -0.5,-11.6 0.29055,-23.20023 3.06055,-34.49023 1.85,-7.67 4.52906,-15.64032 8.78906,-22.32032 0.56,-0.84 1.12922,-1.67953 1.69922,-2.51953 z m 26.04102,79.38086 c 2.48,9.47 2.60078,18.94875 0.30078,28.46875 -3.28,13.48 -9.94172,26.32125 -17.26172,38.03125 -1.92,-10.13 -1.33922,-20.12172 1.55078,-30.01172 3.74,-12.57 10.47016,-24.28828 15.41016,-36.48828 z m -52.05078,0.35938 c 4.61,11.46 10.82132,22.35054 14.61132,34.06054 3.39,10.35 4.24008,21.42891 2.08008,32.12891 -5.99,-9.98 -11.80086,-20.66953 -15.38086,-31.76953 -3.25,-9.88 -4.69953,-20.84078 -2.26953,-31.05078 0.31,-1.13 0.62898,-2.24914 0.95899,-3.36914 z m 25.98437,68.83007 c 0.25943,-0.006 0.52562,0.0339 0.79687,0.12891 2.77,1.39 3.69922,5.80133 3.69922,8.61133 -0.29,5.34 -1.45953,10.87898 -4.76953,15.20898 -3.25,-5.84 -5.36078,-13.53937 -3.55078,-20.10937 0.525,-1.51375 2.00818,-3.80088 3.82422,-3.83985 z" />
</svg>
