<?xml version="1.0" encoding="UTF-8" standalone="no"?>
<svg
   xmlns:dc="http://purl.org/dc/elements/1.1/"
   xmlns:cc="http://creativecommons.org/ns#"
   xmlns:rdf="http://www.w3.org/1999/02/22-rdf-syntax-ns#"
   xmlns:svg="http://www.w3.org/2000/svg"
   xmlns="http://www.w3.org/2000/svg"
   xmlns:sodipodi="http://sodipodi.sourceforge.net/DTD/sodipodi-0.dtd"
   xmlns:inkscape="http://www.inkscape.org/namespaces/inkscape"
   viewBox="0 0 482.56 472.34"
   version="1.1"
   id="svg851"
   sodipodi:docname="Truthwatchers_glyph.svg"
   inkscape:version="0.92.4 (5da689c313, 2019-01-14)"
   width="482.56"
   height="472.34">
  <metadata
     id="metadata857">
    <rdf:RDF>
      <cc:Work
         rdf:about="">
        <dc:format>image/svg+xml</dc:format>
        <dc:type
           rdf:resource="http://purl.org/dc/dcmitype/StillImage" />
        <dc:title />
      </cc:Work>
    </rdf:RDF>
  </metadata>
  <defs
     id="defs855" />
  <sodipodi:namedview
     pagecolor="#ffffff"
     bordercolor="#666666"
     borderopacity="1"
     objecttolerance="10"
     gridtolerance="10"
     guidetolerance="10"
     inkscape:pageopacity="0"
     inkscape:pageshadow="2"
     inkscape:window-width="1280"
     inkscape:window-height="647"
     id="namedview853"
     showgrid="false"
     inkscape:zoom="0.64453125"
     inkscape:cx="-290.25394"
     inkscape:cy="197.81"
     inkscape:window-x="0"
     inkscape:window-y="25"
     inkscape:window-maximized="0"
     inkscape:current-layer="svg851"
     inkscape:document-rotation="0" />
  <path
     d="m 248.43,0 c 3.89,2.41 7.62,4.89 10.7,8.31 7.1,7.71 12,17.83 15.28,27.71 6.11,18.76 7.36,38.19 5.99,57.78 -0.18,18.71 -1.56,37.34 -2.44,56.02 -1.88,28.24 -3.95,56.46 -6.8,84.62 -7.54,79.69 -18.9,158.62 -29.64,237.9 -1.56,-8.47 -2.45,-17.02 -3.63,-25.55 C 221.36,327.42 205.8,210.58 202.21,89.81 202.1,81.5 201.84,73.05 202.63,64.8 c 1.38,-13.82 4.3,-27.21 10.21,-39.84 4.87,-10.27 11.42,-19.46 21.69,-24.89 -1.13,6.25 -2.72,12.38 -4.14,18.57 -7.92,36.33 -10.8,73.05 -11.05,110.17 0.15,16.68 0.96,33.36 1.97,50.01 3,41.08 8.85,81.63 15.94,122.18 1.31,7.69 2.56,15.37 4.27,22.98 11.9,-65.24 22.5,-133.77 21.76,-200.17 0.1,-34.6 -3.34,-69.3 -10.37,-103.19 C 251.46,13.73 249.53,6.97 248.43,0 Z"
     fill="#0f583a"
     id="path833"
     style="fill:#1e4d39;fill-opacity:1" />
  <path
     d="m 482.56,66.67 c -0.02,15.21 -6.33,30.05 -14.32,42.74 -14.43,22.6 -34.05,39.75 -50.79,60.21 -18.45,22.33 -33.17,48.14 -48.18,72.82 -3.77,5.91 -6.76,12.06 -11.54,17.28 0.45,-3.28 0.95,-6.5 2.11,-9.62 3.85,-10.28 8,-20.43 12.79,-30.31 17.61,-36.6 42.3,-69.73 67.81,-101.15 13.95,-17.4 28.38,-34.4 42.12,-51.97 z"
     fill="#0f583a"
     id="path835"
     style="fill:#1e4d39;fill-opacity:1" />
  <path
     d="m 0,66.91 c 0.91,0.98 1.81,1.96 2.71,2.95 3.43,3.85 6.48,8.06 9.78,12.05 20,24.72 41.18,49.54 59.72,75.35 21.5,29.53 39.57,60.77 51.67,95.36 0.7,2.39 0.99,4.78 1.32,7.24 -5.06,-5.69 -8.04,-11.98 -12.2,-18.41 C 96.63,214.55 81.8,188.4 61.03,164.39 47.58,148.87 31.49,133.28 19.22,116.28 8.72,101.41 0.94,85.4 0,66.91 Z"
     fill="#0f583a"
     id="path837"
     style="fill:#1e4d39;fill-opacity:1" />
  <path
     d="m 150.35,94.19 c -1.2,6.87 -2.65,13.61 -3.21,20.59 -1.25,13.08 -0.33,26.35 2.2,39.23 5.23,26.98 17.75,52.65 30.07,77.02 10.61,21.29 21.67,42.05 26.56,65.55 6.47,30.27 6.31,63.37 6.52,94.23 0.49,22.06 0.15,43.98 2.19,65.99 0.41,4.2 0.68,8.4 0.82,12.62 -4.14,-3.82 -7.93,-7.88 -10.58,-12.9 -6.12,-11.12 -8.04,-25.09 -8.69,-37.6 -1.04,-23.86 1.02,-46.81 -3.02,-70.72 -7.24,-46.33 -23.96,-88.19 -40.08,-131.86 -6.71,-18.62 -13.93,-37.95 -17.67,-57.41 -2.82,-14.87 -4.1,-30.58 1.22,-45.07 2.77,-7.78 7.48,-14.25 13.67,-19.67 z"
     fill="#0f583a"
     id="path839"
     style="fill:#1e4d39;fill-opacity:1" />
  <path
     d="m 332.73,94.27 c 7.69,6.81 12.8,15.21 15.2,25.22 4.02,16.54 1.05,34.3 -3.02,50.55 -4.82,18.72 -11.93,37.4 -18.58,55.45 -16,43.05 -31.75,84.38 -37.74,130.33 -2.95,22.79 -0.36,47 -2.46,69.97 -1.1,11.46 -3.37,23.08 -9.52,33 -2.57,4.22 -6.04,7.44 -9.63,10.76 3.88,-33.83 3.12,-66.8 3.41,-100.74 0.32,-8.35 0.66,-16.68 0.83,-25.03 1.5,-23.37 3.48,-45.64 11.6,-67.81 9.83,-26.46 24.73,-50.91 36.01,-76.99 8.62,-19.69 15.44,-40.63 17.06,-62.17 1.14,-13.22 -0.24,-26.24 -2.66,-39.23 -0.17,-1.1 -0.34,-2.21 -0.5,-3.31 z"
     fill="#0f583a"
     id="path841"
     style="fill:#1e4d39;fill-opacity:1" />
  <path
     d="m 393.98,117.32 c -0.41,9.25 -1.36,18.45 -3.23,27.52 -3.86,19.02 -11.05,37.16 -19.58,54.53 -13.21,26.73 -29.97,53.37 -40.97,81.03 -6.42,15.89 -11.09,32.32 -13.11,49.36 -0.45,4.02 -0.89,8.04 -1.44,12.04 -3.8,-7.98 -5.9,-16.16 -6.46,-24.98 -1.02,-15.02 2.7,-29.47 8.12,-43.35 7.29,-18.29 18.04,-36.03 28.01,-52.98 6.82,-11.58 14.03,-23.63 18.74,-36.24 5.79,-15.35 6.45,-33.13 13.03,-47.99 3.73,-8.31 9.02,-14.31 16.89,-18.94 z"
     fill="#0f583a"
     id="path843"
     style="fill:#1e4d39;fill-opacity:1" />
  <path
     d="m 89.02,117.4 c 2.59,1.73 5.21,3.39 7.53,5.5 5.13,4.77 8.75,11.4 11.06,17.95 5.2,14.92 6.28,31.97 12.41,46.56 4.98,11.9 11.89,23.51 18.42,34.61 8.71,14.93 18.05,30.22 24.88,46.09 5.36,12.15 9.39,25.42 10.39,38.7 0.89,12.05 -1.46,24.06 -6.37,35.08 -1.15,-7.84 -1.78,-15.65 -3.31,-23.42 -3.23,-17.5 -9.28,-34.24 -16.62,-50.41 -15.9,-34.7 -37.22,-65.2 -49.46,-101.59 -5.24,-15.76 -8.67,-32.43 -8.93,-49.07 z"
     fill="#0f583a"
     id="path845"
     style="fill:#1e4d39;fill-opacity:1" />
  <path
     d="m 92.53,254.09 c 12.11,5.28 22.66,13.73 30.24,24.58 11.18,15.6 17.36,35.76 21.96,54.22 -9.32,-15.37 -21.76,-27.33 -33.27,-40.91 -9.34,-11.31 -17.18,-22.94 -18.93,-37.89 z"
     fill="#0f583a"
     id="path847"
     style="fill:#1e4d39;fill-opacity:1" />
  <path
     d="m 390.41,254.07 c -1.36,9.5 -4.57,17.7 -9.83,25.69 -9.03,13.74 -22.01,25.84 -32.25,38.72 -3.56,4.47 -6.65,9.16 -9.92,13.83 3.78,-16.26 9.07,-32.74 17.49,-47.25 7.92,-13.72 19.91,-24.71 34.51,-30.99 z"
     fill="#0f583a"
     id="path849"
     style="fill:#1e4d39;fill-opacity:1" />
</svg>
