<?xml version="1.0" encoding="UTF-8" standalone="no"?>
<svg
   xmlns:dc="http://purl.org/dc/elements/1.1/"
   xmlns:cc="http://creativecommons.org/ns#"
   xmlns:rdf="http://www.w3.org/1999/02/22-rdf-syntax-ns#"
   xmlns:svg="http://www.w3.org/2000/svg"
   xmlns="http://www.w3.org/2000/svg"
   xmlns:sodipodi="http://sodipodi.sourceforge.net/DTD/sodipodi-0.dtd"
   xmlns:inkscape="http://www.inkscape.org/namespaces/inkscape"
   viewBox="0 0 482.65887 546.78003"
   version="1.1"
   id="svg851"
   sodipodi:docname="Willshapers_glyph.svg"
   inkscape:version="0.92.4 (5da689c313, 2019-01-14)"
   width="482.65887"
   height="546.78003">
  <metadata
     id="metadata857">
    <rdf:RDF>
      <cc:Work
         rdf:about="">
        <dc:format>image/svg+xml</dc:format>
        <dc:type
           rdf:resource="http://purl.org/dc/dcmitype/StillImage" />
        <dc:title />
      </cc:Work>
    </rdf:RDF>
  </metadata>
  <defs
     id="defs855" />
  <sodipodi:namedview
     pagecolor="#ffffff"
     bordercolor="#666666"
     borderopacity="1"
     objecttolerance="10"
     gridtolerance="10"
     guidetolerance="10"
     inkscape:pageopacity="0"
     inkscape:pageshadow="2"
     inkscape:window-width="1280"
     inkscape:window-height="647"
     id="namedview853"
     showgrid="false"
     inkscape:zoom="0.64453125"
     inkscape:cx="-290.36754"
     inkscape:cy="273.93"
     inkscape:window-x="0"
     inkscape:window-y="25"
     inkscape:window-maximized="0"
     inkscape:current-layer="svg851"
     inkscape:document-rotation="0" />
  <path
     d="m 240.7364,0 c 1.45,0.7 2.2,1.35 2.81,2.9 2.13,5.36 2.91,11.35 3.86,17.02 2.93,20.26 4.12,40.8 5.5,61.21 0.07,9.97 1.32,19.83 1.33,29.8 0.69,11 0.82,21.99 1.08,33.01 0.86,9.74 0.44,19.47 0.8,29.22 2.86,-2.89 5.78,-6.21 9.17,-8.45 10.38,-6.5 22.21,-8.58 31.57,-17.44 6.04,-5.87 10.52,-13.92 14.95,-21.04 3.9,-6.55 10.17,-11.77 17.02,-14.98 6.39,-2.87 12.88,-1.9 19.21,0.52 -5.08,21.23 -18.04,40.24 -35.82,52.87 -16.83,11.98 -36.02,18.57 -55.98,23.22 -0.48,12.37 0.16,24.24 -0.95,36.54 -0.83,23.44 -2.47,47.02 -6.22,70.18 -1.68,8.71 -3.11,17.36 -7.61,25.08 -4.32,-6.32 -5.38,-13.34 -7.04,-20.69 -4.19,-22.2 -5.7,-45.51 -6.83,-68.03 -1.24,-14.28 -0.04,-28.69 -1.4,-42.94 -9.69,-2.8 -19.45,-5.04 -28.8,-8.93 -21.53,-8.15 -41.43,-22.83 -52.99,-43.01 -4.5,-7.47 -7.62,-15.86 -9.82,-24.27 6.72,-2.53 13.6,-3.5 20.26,-0.17 6.9,3.68 13.08,9.23 16.96,16.07 4.79,7.7 9.58,16.54 16.91,22.07 8.51,6.8 19.3,9.07 28.27,14.7 3.7,2.31 6.49,5.37 9.44,8.51 0.87,-12.31 0.27,-24.7 1,-37.03 0.67,-9.67 0.43,-19.35 1.13,-29.01 0.59,-7.65 0.27,-15.3 1.1,-22.94 1.36,-22.34 2.59,-44.91 6.04,-67.05 1.05,-5.5 1.79,-12.28 5.05,-16.94 z"
     fill="#632868"
     id="path833"
     style="fill:#672861;fill-opacity:1" />
  <path
     d="m 94.696402,98.75 c 0.83,1.23 0.09,3.7 0.08,5.15 -2.1,12.98 1.31,26.42 8.419998,37.36 7.06,10.79 16.65,20.22 26.15,28.85 5.69,5.3 10.96,11.06 16.13,16.85 7.29,8.54 13.13,19.44 12.67,30.97 0.26,12.76 -7.13,24.25 -15.09,33.62 -0.73,-6.25 -0.78,-11.98 -2.18,-17.96 -2.29,-9.63 -6.38,-18.88 -11.81,-27.16 -10.43,-16.31 -25.11,-30.45 -35.319998,-46.75 -7.13,-11.52 -11.96,-24.03 -11.88,-37.75 -0.04,-7.15 -0.2,-16.32 4.47,-22.23 2.1,-2.68 5.63,-2.59 8.36,-0.95 z"
     fill="#632868"
     id="path835"
     style="fill:#672861;fill-opacity:1" />
  <path
     d="m 395.5664,98.93 c 2.63,2.17 3.71,6.37 4.44,9.56 1.5,8.19 1.26,17.3 -0.42,25.45 -3.12,16.25 -13.29,30.83 -23.65,43.39 -10.86,13.74 -21.98,25.51 -29.25,41.71 -4.97,10.37 -6.58,21.48 -6.83,32.88 -6.43,-7.48 -12.72,-16.81 -14.65,-26.62 -0.83,-6.88 -0.87,-14.5 1.6,-21.08 3.58,-10.38 11.53,-19.19 19.17,-26.84 8.63,-8.61 17.85,-16.95 25.94,-26.05 7.49,-8.69 14.04,-19.67 15.83,-31.13 1.21,-7.45 0.04,-14.43 0.1,-21.83 2.8,-0.63 5.22,-1.36 7.72,0.56 z"
     fill="#632868"
     id="path837"
     style="fill:#672861;fill-opacity:1" />
  <path
     d="m 2.8964016,138.93 c 2.79,3.11 5.03,6.68 7.8000004,9.82 11.19,13.06 25.49,22.9 39.8,32.23 16.09,10.7 32.14,20.14 46.49,32.49 4.359998,3.91 8.809998,8 11.909998,13 2.78,4.4 4.86,8.76 8.5,12.6 5.11,5.42 12.54,9.13 17.9,14.1 2.73,2.59 4.99,5.81 4.34,9.77 -0.9,5.72 -3.93,11.46 -6.52,16.6 -4.04,7.81 -7.33,15.98 -10.95,24.02 -3.45,7.73 -5.69,15.82 -5.23,24.37 0,6.88 2.5,14.71 -0.26,21.1 -2.68,7.62 -10.73,12.26 -17.889998,14.95 0.99,-6.17 2.579998,-11.7 1.859998,-18.05 -1.049998,-11.39 -5.439998,-23.8 -4.179998,-36.03 0.77,-7.46 4.279998,-13.52 8.479998,-19.54 4.1,-6.31 9.62,-13.7 10.08,-21.42 0.46,-5.91 -3.01,-10.6 -6.81,-14.7 -9.449998,-9.75 -21.359998,-16.22 -31.819998,-24.15 -4.06,-2.98 -7.3,-6.7 -10.53,-10.52 -7.88,-8.94 -14.12,-17.92 -23.9,-25.06 -9.54,-6.94 -20.71,-11.79 -29.88,-19.16 -4.7400004,-3.89 -8.7700004,-8.25 -10.8000004,-14.16 -2.47,-7.18 -1.08,-15.35 1.61,-22.26 z"
     fill="#632868"
     id="path839"
     style="fill:#672861;fill-opacity:1" />
  <path
     d="m 479.6064,138.78 c 3.6,8.26 4.37,17.36 0.38,25.64 -4.17,8.22 -12.17,13.49 -19.86,18.07 -9.78,5.97 -19.28,10.33 -27.19,18.85 -10.57,10.05 -16.92,21.47 -28.16,29.84 -6.92,5.13 -14.26,9.67 -21.12,14.9 -5.15,3.89 -10.54,8.48 -13.84,14.1 -3.06,4.96 -2.58,11.5 -0.2,16.63 3.87,8.54 10.69,15.91 14.48,24.49 2.13,4.74 2.17,9.53 2.13,14.63 0.04,11.24 -4.1,21.6 -4.23,33 -0.14,5.2 0.91,10.06 1.95,15.11 -7.92,-3.04 -15.83,-7.67 -18.46,-16.29 -1.95,-8.42 1.16,-18.22 0.08,-26.85 -1.15,-10.52 -7.01,-21.26 -11.1,-30.93 -3.37,-8.24 -8.96,-16.47 -11.1,-25.03 -0.89,-3.41 -0.45,-6.58 1.81,-9.36 5.21,-6.49 14.05,-10.17 19.82,-16.16 4.57,-4.88 7.22,-11.39 11.34,-16.68 2.03,-2.64 4.39,-4.93 6.88,-7.13 25.02,-22.36 58.54,-37.14 82.73,-60.27 5.29,-4.99 9.23,-10.86 13.66,-16.56 z"
     fill="#632868"
     id="path841"
     style="fill:#672861;fill-opacity:1" />
  <path
     d="m 156.6664,174.52 c 7.27,-0.11 14.23,1.48 20.81,4.5 6.97,3.23 13.78,7.67 21.2,9.79 4.89,1.44 10.07,1.54 15.14,1.73 4.27,7.16 7.14,14.96 7.26,23.38 0.6,14.14 -4.69,28.66 -8.42,42.15 -3.21,11.44 -5.82,22.87 -5.12,34.88 1.24,16.16 10.28,31.22 14.02,47 1.48,6.72 1.86,13.55 0.3,20.29 -2.17,10.02 -7.19,18.67 -9.45,28.65 -1.4,5.58 -1.71,11.33 -1.17,17.04 2.39,28.17 12.05,56.71 14.16,84.98 1.22,12.23 0.05,24.43 -1.35,36.66 -1,6.44 -2.41,14.18 -6.47,19.46 -1.16,1.7 -2.76,1.44 -4.57,1.75 -1.02,-2.89 -2.06,-5.71 -2.49,-8.77 -2.56,-18 -0.81,-36.82 -2.18,-55.08 -0.6,-18.4 -2.07,-37.3 -6.55,-55.21 -3.53,-14.38 -10.82,-26.42 -14.18,-40.83 -0.95,-4.7 -1.25,-9.77 -0.28,-14.48 2.11,-7.36 7.8,-13.94 9.31,-21.44 0.96,-7.29 0.45,-14.85 -1.13,-22.02 -3.48,-17.59 -10.65,-34.79 -9.25,-53.03 0.83,-12.27 5.81,-22.05 10.06,-33.26 3.75,-10.09 5.1,-20.65 1.57,-31.03 -10.81,-5.36 -25.57,-8.12 -34.1,-16.97 -5.53,-5.45 -7.43,-12.53 -7.12,-20.14 z"
     fill="#632868"
     id="path843"
     style="fill:#672861;fill-opacity:1" />
  <path
     d="m 326.2664,174.41 c 0.16,8.89 -3.02,17.54 -10.31,22.94 -8.73,6.61 -21.01,9.52 -30.99,14.11 -2.4,6.67 -2.63,13.78 -1.6,20.74 2.24,11.61 8.14,21.09 11.16,32.75 2.08,7.26 2.08,14.53 1.69,22.01 -1.33,17.19 -8.75,33.24 -10.28,49.94 -0.16,6.68 -1.05,14.38 2.19,20.41 3.41,7.23 8.17,13.17 7.96,21.61 -0.6,13.3 -7.97,26.79 -12.35,39.28 -6.45,18.81 -8.33,39.95 -9.24,59.73 -0.82,12.98 -0.22,26.03 -1.17,38.99 -0.35,7.03 0.08,13.84 -1.14,20.83 -0.52,2.96 -1.15,6.46 -3.02,8.89 -3.56,0.73 -4.87,-2.5 -6.28,-5.05 -3.4,-7.51 -4.49,-16.5 -5.21,-24.64 -1.38,-13.33 -1.04,-26.77 0.84,-40.03 2.77,-19.46 7.92,-38.59 11.03,-57.99 1.47,-10.04 3.02,-19.96 1.14,-30 -1.52,-9.19 -6.5,-18.06 -9.01,-27.13 -2.44,-8.13 -2.34,-16.76 -0.21,-24.95 2.8,-12.21 8.72,-22.95 11.82,-35.1 2.15,-7.69 2.14,-15.93 1.45,-23.84 -2.01,-17.71 -9.91,-35.12 -12.49,-52.47 -0.87,-8.09 -1.05,-17.22 1.8,-24.97 1.17,-3.53 2.96,-6.72 4.86,-9.89 5.26,-0.26 10.22,-0.41 15.31,-1.91 9.04,-2.55 17.44,-8.75 26.26,-11.77 5.12,-1.77 10.41,-2.3 15.79,-2.49 z"
     fill="#632868"
     id="path845"
     style="fill:#672861;fill-opacity:1" />
  <path
     d="m 172.1964,218.64 c 1.93,4.97 2.26,10 2.06,15.28 -0.08,9.51 -3.4,17.47 -4.86,27.01 -0.95,6.71 -1.36,13.15 1.77,19.39 3.29,7.44 10.63,14.11 10.12,22.6 -0.06,7.01 0.37,14.65 -1.31,21.45 -2.85,12.38 -8.49,24.57 -14.13,35.91 -8.81,17.89 -17.07,35.26 -17.54,55.65 0.65,19.15 9.08,37.23 7.83,57.34 -8.2,-6.85 -14.89,-15.28 -18.59,-25.38 -6.47,-16.31 -6.2,-32.52 -5.3,-49.75 2.12,-22.54 7.49,-45.08 12.39,-67.17 5.16,-20.28 6.45,-40.33 8.65,-61.04 1.58,-12.14 3.37,-25.56 8.43,-36.81 2.59,-5.36 5.62,-10.86 10.48,-14.48 z"
     fill="#632868"
     id="path847"
     style="fill:#672861;fill-opacity:1" />
  <path
     d="m 310.4964,218.71 c 6.9,5.44 10.95,14.46 13.54,22.65 4.72,16.05 5.72,34 7.54,50.59 0.94,10.19 2.47,20.35 4.44,30.39 5.81,26.51 13.12,54.47 14.73,81.58 0.71,13.42 0.07,27.95 -4.44,40.73 -3.72,10.83 -10.46,21.83 -19.99,28.45 -0.04,-5.08 0.33,-10.14 0.89,-15.19 1.73,-14.31 7.5,-29.6 6.96,-43.98 -0.12,-7.92 -1.89,-15.8 -4.32,-23.31 -6.48,-20.79 -19.94,-40.21 -25.85,-61.09 -2.65,-8.89 -3.42,-18.4 -2.78,-27.63 0.62,-8.8 7.79,-15.08 10.98,-23.28 3.63,-8.33 1.12,-18.08 -0.84,-26.53 -2.56,-11.38 -5.22,-21.98 -0.86,-33.38 z"
     fill="#632868"
     id="path849"
     style="fill:#672861;fill-opacity:1" />
</svg>
