<?xml version="1.0" encoding="UTF-8" standalone="no"?>
<svg
   xmlns:dc="http://purl.org/dc/elements/1.1/"
   xmlns:cc="http://creativecommons.org/ns#"
   xmlns:rdf="http://www.w3.org/1999/02/22-rdf-syntax-ns#"
   xmlns:svg="http://www.w3.org/2000/svg"
   xmlns="http://www.w3.org/2000/svg"
   xmlns:sodipodi="http://sodipodi.sourceforge.net/DTD/sodipodi-0.dtd"
   xmlns:inkscape="http://www.inkscape.org/namespaces/inkscape"
   viewBox="0 0 470.70432 561.58002"
   version="1.1"
   id="svg861"
   sodipodi:docname="Jeseh_glyph.svg"
   inkscape:version="0.92.4 (5da689c313, 2019-01-14)"
   width="470.70432"
   height="561.58002">
  <metadata
     id="metadata867">
    <rdf:RDF>
      <cc:Work
         rdf:about="">
        <dc:format>image/svg+xml</dc:format>
        <dc:type
           rdf:resource="http://purl.org/dc/dcmitype/StillImage" />
        <dc:title />
      </cc:Work>
    </rdf:RDF>
  </metadata>
  <defs
     id="defs865" />
  <sodipodi:namedview
     pagecolor="#ffffff"
     bordercolor="#666666"
     borderopacity="1"
     objecttolerance="10"
     gridtolerance="10"
     guidetolerance="10"
     inkscape:pageopacity="0"
     inkscape:pageshadow="2"
     inkscape:window-width="1920"
     inkscape:window-height="1017"
     id="namedview863"
     showgrid="false"
     inkscape:zoom="0.73828125"
     inkscape:cx="-49.933553"
     inkscape:cy="263.67333"
     inkscape:window-x="1912"
     inkscape:window-y="-8"
     inkscape:window-maximized="1"
     inkscape:current-layer="svg861"
     inkscape:document-rotation="0" />
  <path
     d="m 261.71338,0 c -6.99,25.05 -6.67,50.6 -3.26,76.17 4.38,33.89 13.42,65.68 12.54,100.14 -4.52,-1.75 -8.54,-3.54 -13.53,-2.49 -12.38,2.61 -18.73,20.22 -9.92,29.67 1.9,-0.73 3,-1.68 3.44,-3.73 0.79,-4.44 0.29,-9.18 0.32,-13.68 3.78,0.45 7.15,0.41 10.09,3.22 4.25,4.08 4.55,10.38 3.61,15.85 -0.64,3.13 -1.9,6.94 -4.46,9.02 -4.67,3.11 -11.16,3.74 -16.21,1.17 -4.11,-1.97 -7.38,-5.38 -10.69,-8.46 -3.44,3.3 -7.12,7.03 -11.6,8.85 -4.95,2.12 -11.07,1.29 -15.5,-1.67 -2.37,-2.13 -3.55,-5.79 -4.23,-8.82 -1.13,-5.31 -0.6,-11.81 3.5,-15.78 2.81,-2.83 6.49,-2.99 10.19,-3.72 -0.04,4.43 -0.54,9.12 0.22,13.48 0.33,1.97 1.6,3.12 2.81,4.57 1.89,-2.56 3.72,-4.85 4.34,-8.08 1,-5.19 -0.33,-10.85 -3.05,-15.33 -2.51,-3.85 -5.92,-7.17 -10.81,-7.21 -4.46,0.12 -8.84,1.88 -13.27,2.5 -1,-44.26 14.77,-88.92 13.95,-133.5 0.12,-14.28 -2.17,-28.26 -5.4,-42.12 4.83,3.87 10.42,7.73 14.29,12.58 4.11,5.08 5.45,12.27 6.19,18.59 1.32,10.17 0.2,20 -0.62,30.17 -3.74,32.94 -10.11,65.78 -15.55,98.48 5.8,0.38 12.44,0.69 17.83,3.01 2.8,1.16 4.64,3.21 6.66,5.36 4.47,-3.25 8.5,-6.37 13.97,-7.78 3.52,-0.98 6.84,-0.6 10.43,-0.38 -5.34,-28.82 -13.87,-57.83 -17.04,-86.88 -1.14,-8.54 -1.24,-17.4 -1.17,-26.03 0.15,-8.47 0.28,-16.43 3.25,-24.49 3.49,-9.27 10.88,-16.83 18.68,-22.68 z"
     fill="#0e3461"
     id="path833"
     style="fill:#0f3562;fill-opacity:1" />
  <path
     d="m 129.41338,91.28 c 21.78,36.67 31.38,79.41 29.61,121.89 -1.06,24.49 -6.04,49.67 -16.59,71.92 -3.52,7.6 -8.14,14.44 -12.8,21.38 0.28,-6.9 1.22,-13.4 0.34,-20.32 -1.6,-14.06 -7.78,-25.73 -11.87,-38.88 -1.79,-5.63 -2.62,-11.15 -2.62,-17.05 4.81,0.62 9.29,1.64 13.02,4.95 4.81,4.31 6.47,10.23 8.07,16.25 4.15,-15.13 6.54,-30.58 7.22,-46.25 0.41,-14.64 -0.41,-29.6 -4.25,-43.8 -4.21,-16.3 -10.85,-32.28 -11.72,-49.2 -0.47,-7.09 0.63,-13.91 1.59,-20.89 z"
     fill="#0e3461"
     id="path835"
     style="fill:#0f3562;fill-opacity:1" />
  <path
     d="m 342.27338,92.44 c -4.54,25.7 -11.1,51.68 -14.85,77.73 -4.19,28.33 -5.13,56.33 2.3,84.26 2.31,-6.06 3.75,-14.01 8.3,-18.76 3.73,-3.94 8.53,-4.85 13.71,-5.36 0.32,6.73 -0.3,13.39 -2.24,19.86 -3.31,11.18 -7.82,21.24 -9.62,32.98 -1.22,7.23 -0.93,14.36 -0.85,21.65 -6.29,-7.8 -11.86,-16.03 -15.9,-25.23 -10.5,-23.28 -14.31,-50.05 -14.87,-75.4 -0.17,-23.08 2.36,-46.92 9.16,-69.05 2.89,-9.4 6.74,-18.73 11.95,-27.1 3.62,-5.86 8.16,-10.63 12.91,-15.58 z"
     fill="#0e3461"
     id="path837"
     style="fill:#0f3562;fill-opacity:1" />
  <path
     d="m 112.40338,160.4 c -3.31,5.38 -6.51,10.25 -7.23,16.72 -1.94,15.28 7.86,31.24 5.43,46.07 -0.94,6.61 -4.85,11.48 -9.82,15.64 10.11,8.09 16.22,20.54 17.38,33.34 0.61,7.53 -0.7,15.21 -5.33,21.35 -2.27,3.08 -5.21,5.09 -8.29,7.26 -5.299995,-6.7 -9.419995,-15.44 -16.109995,-20.52 -4.54,-3.53 -9.95,-4.92 -15.63,-5.01 0.02,2.91 0.01,5.65 1.32,8.33 2.06,4.34 3.96,8.57 4.67,13.38 -5.81,-0.07 -11.13,-0.41 -15.83,-4.23 -5.94,-4.8 -7,-13.1 -3.61,-19.74 4.99,-10.2 17.76,-13.84 28.13,-10.59 6.24,2.02 10.18,6.53 15.469995,10.22 -0.46,-3.83 -1.06,-7.52 -2.999995,-10.92 -3.8,-6.94 -10.36,-11.64 -15.6,-17.39 -2.52,-2.68 -4.5,-5.71 -6.43,-8.82 2.65,-2.12 5.24,-3.92 7.04,-6.88 2.45,-4.14 3.1,-8.7 3.15,-13.44 0.1,-10.11 -2.02,-19.81 -1.15,-30.02 0.47,-6.82 3.19,-13.54 8.74,-17.78 5.049995,-3.94 10.679995,-5.25 16.699995,-6.97 z"
     fill="#0e3461"
     id="path839"
     style="fill:#0f3562;fill-opacity:1" />
  <path
     d="m 356.63338,160.39 c 1.15,0.32 2.31,0.65 3.47,0.99 4.78,1.38 9.26,2.85 13.24,5.97 4.13,3.18 6.81,7.8 8,12.84 3.04,13.8 -2.16,28.57 0.31,41.96 1.03,5.94 4.66,9.97 9.45,13.31 -5.28,10.33 -15.27,15.58 -21.32,25.06 -2.44,3.76 -3.19,7.92 -3.69,12.29 4.16,-3.23 8.11,-6.95 12.87,-9.2 6.74,-3.3 15.13,-3.06 21.78,0.35 6.19,3.12 10.46,9.35 10.96,16.27 0.23,5.81 -2.91,11.35 -8.01,14.13 -4.26,2.43 -8.62,2.47 -13.38,2.57 0.67,-4.78 2.55,-8.96 4.58,-13.27 1.36,-2.73 1.48,-5.46 1.34,-8.45 -5.92,0.16 -11.55,1.69 -16.18,5.49 -6.34,5.16 -10.4,13.57 -15.53,20.05 -3.75,-2.51 -7.22,-5.09 -9.55,-9.06 -4.37,-7.04 -4.77,-14.97 -3.67,-23 1.97,-11.59 7.72,-22.42 16.93,-29.84 -5.27,-4.44 -9.18,-9.73 -10.01,-16.78 -1.62,-14.2 7.13,-29.32 5.73,-43.94 -0.39,-5.44 -2.6,-10.24 -5.49,-14.77 -0.61,-1 -1.22,-1.98 -1.83,-2.97 z"
     fill="#0e3461"
     id="path841"
     style="fill:#0f3562;fill-opacity:1" />
  <path
     d="m 181.91338,169.57 c 2.68,-0.68 4.92,1.89 6.58,3.61 3.8,4.46 7.37,9.05 11.7,13.03 -1.49,4.26 -2.88,8.5 -3.49,13 -1.11,6.81 0.12,13.76 2.73,20.1 5.88,14.21 18.15,25.05 23.22,39.67 2.48,6.89 2.7,13.88 1.26,21.03 -8.57,-1.91 -16.44,-5.93 -25,-7.7 -4.54,-0.98 -8.97,-0.62 -13.55,-0.23 0.68,2.01 1.44,3.99 2.29,5.94 5.95,13.16 10.55,27.69 11.57,42.16 0.62,9.39 -0.38,19.23 -5.19,27.51 -3.28,5.73 -8.43,9.4 -13.56,13.32 1.46,-5.39 3.41,-10.26 4.06,-15.87 0.98,-8.33 -0.4,-16.48 -2.97,-24.4 -4.96,-15.35 -14.28,-29.96 -19.14,-45.4 -2.07,-6.72 -3.6,-14.1 -3.11,-21.16 0.34,-5.49 2.08,-11.16 3.36,-16.53 1.17,3.2 2.16,6.58 3.74,9.6 2.01,3.77 6.1,6.46 9.86,8.28 7.73,3.71 16.34,4.53 24.73,2.87 -5.03,-8.1 -10.23,-15.94 -13.91,-24.79 -8.16,-18.7 -11.69,-38.99 -8.09,-59.24 0.51,-1.91 0.56,-4.28 2.91,-4.8 z"
     fill="#0e3461"
     id="path843"
     style="fill:#0f3562;fill-opacity:1" />
  <path
     d="m 286.31338,169.54 c 1.53,0.13 2.29,1.7 2.61,3.02 3.69,16.91 1.63,34.81 -3.85,51.1 -4.09,12.52 -10.51,23.85 -17.87,34.72 10.83,2.21 22.83,0.11 31.42,-7.09 4.24,-3.55 5.12,-8.63 7,-13.6 2.25,8.14 4.24,15.99 3.16,24.53 -2.68,23.8 -19.85,44.13 -24.35,67.5 -0.85,4.75 -1.06,9.64 -0.69,14.45 0.36,5.76 2.63,11.41 4.22,17.03 -4.6,-3.77 -9.31,-6.81 -12.63,-11.87 -5.57,-8.36 -6.77,-18.33 -6.28,-28.16 0.95,-16.76 6.91,-33.7 14.2,-48.71 -3.92,-0.69 -7.81,-1.13 -11.79,-0.5 -9.47,1.42 -17.65,6.03 -27.12,8.04 -0.87,-6.1 -1.28,-12.08 0.44,-18.09 4.74,-18.09 21.89,-30.74 26.2,-48.96 2.39,-9.3 0.34,-17.92 -2.8,-26.71 4.09,-3.78 7.48,-8.12 11.04,-12.38 1.83,-1.96 4.04,-4.9 7.09,-4.32 z"
     fill="#0e3461"
     id="path845"
     style="fill:#0f3562;fill-opacity:1" />
  <path
     d="m 13.193385,226.87 c 0.82,6.56 0.48,13.04 1.8,19.54 1.89,10.79 5.85,21.12 12.31,30.02 8.83,12.45 21.99,21.22 35.95,26.98 18.18,7.49 38.719995,10.39 58.259995,11.15 9.86,0.08 19.87,0.43 29.67,-0.71 -1.88,-4.3 -4.12,-8.64 -5.4,-13.16 -0.9,-3.38 -1.03,-7.11 1.25,-9.99 2.62,-3.39 7.14,-4.17 11.02,-5.27 2.5,12.67 9.35,24.09 12.54,36.67 1.7,6.43 3.12,14.8 -0.02,20.96 -3.36,6.68 -11.19,9 -18.16,7.91 -1.49,-0.22 -2.13,-2 -2.95,-3.1 2.63,-2.63 6.58,-5.42 5.88,-9.67 -1.13,-4.92 -5.61,-8.89 -10.21,-10.62 -6.96,-2.71 -15.24,-2.95 -22.62,-2.96 -12.04,0.06 -23.699995,0.67 -35.799995,-0.24 -20.09,-1.97 -40.67,-7.71 -57.82,-18.59 -10.83,-6.89 -20.8200001,-16.28 -25.7400001,-28.37 -3.99999998,-9.6 -4.10999998,-20.41 -0.81,-30.23 2.41,-7.58 6.6,-13.71 10.8500001,-20.32 z"
     fill="#0e3461"
     id="path847"
     style="fill:#0f3562;fill-opacity:1" />
  <path
     d="m 457.22338,226.64 c 5.5,8.23 10.56,16.12 12.51,26.02 2.19,9.48 0.56,19.34 -3.73,27.98 -5.86,11.65 -16.07,20.32 -27.12,26.89 -16.66,9.77 -36.15,15.07 -55.3,16.85 -12.81,1 -26.31,0.12 -39.07,0.27 -6.63,0.12 -14.05,0.67 -20.17,3.39 -4.39,1.93 -8.64,6.23 -9.25,11.14 0.27,3.75 3.59,6.18 5.97,8.72 -0.48,0.96 -0.95,1.93 -1.43,2.9 -2.93,0.23 -6.01,0.43 -8.92,-0.02 -5.01,-1.02 -9.83,-4.57 -11.46,-9.54 -2.02,-5.99 -0.84,-12.91 0.69,-18.88 3.14,-12.64 10.18,-24.15 12.51,-36.9 5.13,1.29 10.79,2.35 12.6,8.12 1.67,6.67 -3.21,14.2 -5.58,20.29 10.61,1.09 21.39,0.82 32.04,0.62 22.98,-1.22 47.3,-5.28 67.55,-16.77 14.36,-8.08 26.12,-20.32 32.19,-35.78 4.66,-11.35 5.73,-23.16 5.97,-35.3 z"
     fill="#0e3461"
     id="path849"
     style="fill:#0f3562;fill-opacity:1" />
  <path
     d="m 194.53338,275.35 c 1.02,0.62 2.04,1.24 3.06,1.87 4.28,2.67 8.36,5.3 11.84,9.02 7.06,7.45 11.21,17.13 13.88,26.93 4.94,18.12 5.79,37.58 10.12,55.99 4.22,-21.69 5,-44.4 10.86,-66.25 2.23,-7.6 5.69,-15.9 12.5,-20.48 4.28,-2.99 8.93,-3.59 13.97,-4.32 -9.99,21.72 -15.04,44.51 -18.64,68.02 -10.27,70.49 -7.81,144.44 -15.99,215.44 -1.65,0.01 -3.3,0.01 -4.95,0.01 -6.93,-53.93 -7.71,-110.01 -12,-164.4 -2.56,-31.17 -6.21,-63.67 -14.71,-93.84 -2.51,-8.35 -4.81,-16.69 -8.51,-24.62 -0.48,-1.12 -0.96,-2.24 -1.43,-3.37 z"
     fill="#0e3461"
     id="path851"
     style="fill:#0f3562;fill-opacity:1" />
  <path
     d="m 40.053385,314.85 c 7.47,2.02 12.19,7.32 16.32,13.54 -3.39,3.4 -6.64,6.72 -11.91,6.05 -5.8,-1.09 -10.88,-5.02 -16.52,-6.92 -1.83,2.38 -3.51,4.44 -3.12,7.67 0.29,4.36 2.88,6.99 6.25,9.36 1.79,-1.4 3.6,-3.13 5.69,-4.05 2.52,-0.91 5.73,-0.22 8.35,0 -3.42,12.67 -3.1,26.4 -0.33,39.15 2.85,14.33 8.27,29.07 9.42,43.52 0.85,9.95 -0.94,19.98 -6.08,28.61 -4.34,7.47 -10.26,12.75 -16.38,18.66 2.61,-9.34 5.19,-18.48 5.35,-28.27 0.88,-28.48 -11.13,-52.58 -10.78,-81.16 -6.12,-1.22 -11.76,-2.72 -16.08,-7.56 -3.5600001,-4.11 -4.8400001,-9.99 -3.4500001,-15.24 2.17,-9.4 9.3000001,-17.75 18.0300001,-21.76 4.76,-2.29 10.1,-2.6 15.24,-1.6 z"
     fill="#0e3461"
     id="path853"
     style="fill:#0f3562;fill-opacity:1" />
  <path
     d="m 449.83338,318.9 c 7.04,4.8 12.81,12.67 14,21.22 0.75,5.55 -1.11,11.24 -5.37,14.94 -4.27,3.66 -9.25,4.88 -14.62,5.98 0.86,27.1 -11.7,53.04 -10.66,81.13 0.16,9.73 2.67,18.86 5.33,28.13 -6.77,-6.36 -13.19,-12.19 -17.52,-20.6 -5.2,-9.88 -6.01,-20.86 -4.33,-31.76 2.37,-16.74 9.63,-34.56 10.76,-51.78 0.87,-8.68 -0.19,-17.26 -2.28,-25.69 2.39,-0.2 4.96,-0.64 7.34,-0.28 2.46,0.52 4.63,2.78 6.53,4.31 3.62,-2.09 6.12,-4.98 6.43,-9.3 0.36,-3.14 -1.27,-5.18 -2.83,-7.66 -5.65,1.71 -10.49,5.42 -16.17,6.81 -5.63,1.04 -8.96,-2.4 -12.61,-5.99 3.12,-4.35 6.03,-8.43 10.79,-11.15 7.83,-4.76 17.88,-3.41 25.21,1.69 z"
     fill="#0e3461"
     id="path855"
     style="fill:#0f3562;fill-opacity:1" />
  <path
     d="m 86.913385,329.84 c 7.22,0.03 14.609995,1.88 21.589995,3.66 6.45,1.83 13.23,4.13 18.85,7.85 3.02,2.1 6.07,4.94 6.5,8.81 0.2,3.41 -2.32,6.46 -4.92,8.37 -4.17,3.05 -9.4,4.97 -14.11,7.06 2.27,-3.37 4.32,-6.82 5.93,-10.56 -5.65,-5.77 -15.97,-6.41 -23.539995,-8.03 -6.68,21.87 -8.31,46.49 -11.32,69.17 -0.63,4.13 -1.03,8.28 -1.48,12.43 -9.57,-12.86 -11.33,-27.84 -11.07,-43.44 0.69,-15.54 3.36,-31.47 8.99,-46.02 1.31,-3.14 2.56,-6.54 4.58,-9.3 z"
     fill="#0e3461"
     id="path857"
     style="fill:#0f3562;fill-opacity:1" />
  <path
     d="m 382.89338,329.58 c 2.86,5.24 5.16,10.63 6.9,16.34 4.41,14.28 6.68,29.29 6.59,44.25 -0.16,8.61 -1.14,17.66 -4.13,25.79 -1.66,4.62 -4.21,8.56 -6.83,12.68 -0.79,-7.43 -2.03,-14.8 -2.76,-22.24 -2.46,-20.25 -4.29,-39.66 -10.06,-59.35 -6.23,1.02 -12.77,2.06 -18.64,4.44 -1.93,0.93 -4.58,2.07 -4.37,4.64 1.09,3.38 3.47,6.4 5.21,9.48 -5.53,-2.66 -12.95,-5.01 -16.88,-9.88 -2.21,-2.64 -2.66,-6.04 -0.86,-9.05 2.51,-4.22 7.66,-7.01 12.02,-8.94 10.63,-4.59 22.33,-7.05 33.81,-8.16 z"
     fill="#0e3461"
     id="path859"
     style="fill:#0f3562;fill-opacity:1" />
</svg>
